<svg viewBox="0 0 1336 398" xmlns="http://www.w3.org/2000/svg"><path d="m10 92h182.4v244h-182.4z" fill="#231f20"/><path d="m0 82h182.4v244h-182.4z" fill="#eaeae9"/><path d="m14.9 227.6h152.5v77h-152.5z" fill="#fff"/><path d="m57.7 235.3h1.7l.5 5.3c.1.8.1 1.3.1 2.2.1-.9.3-1.4.4-2.2l.8-3h1.2l.7 3c.2.8.3 1.3.4 2.2h.1c0-.9.1-1.4.1-2.2l.4-5.3h1.6l-1.2 9.2h-1.8l-.7-3.3c-.1-.6-.2-1.1-.3-1.7-.1.6-.2 1.1-.3 1.7l-.7 3.3h-1.7zm10.1 2.3h1.3l.1 1.6c.7-1.1 1.7-1.7 2.9-1.7.6 0 .9.1 1.3.3l-.3 1.4c-.5-.1-.7-.2-1.2-.2-.9 0-1.9.5-2.6 1.8v3.8h-1.6v-7zm10.7 1.3h-3v-1.3h4.6v6.9h-1.6zm-.4-3.6c0-.6.5-1.1 1.2-1.1s1.2.4 1.2 1.1-.5 1.1-1.2 1.1-1.2-.5-1.2-1.1zm7.3 6.4v-2.8h-1.8v-1.2l1.9-.1.2-2.2h1.3v2.2h3.1v1.3h-3.1v2.8c0 1.1.4 1.6 1.6 1.6.6 0 1-.1 1.5-.3l.3 1.2c-.6.2-1.3.4-2.2.4-2 0-2.8-1.1-2.8-2.9zm6.6-.7c0-2.2 1.7-3.6 3.5-3.6 2.1 0 3.2 1.4 3.2 3.3 0 .3 0 .6-.1.8h-5.5v-1.1h4.5l-.3.4c0-1.4-.6-2-1.7-2s-2 .8-2 2.4 1 2.4 2.4 2.4c.7 0 1.3-.2 1.9-.6l.6 1c-.7.5-1.7.8-2.7.8-2.1-.2-3.8-1.5-3.8-3.8zm16.7 0c0-2.3 1.6-3.6 3.5-3.6s3.5 1.3 3.5 3.6-1.6 3.6-3.5 3.6-3.5-1.3-3.5-3.6zm5.3 0c0-1.4-.7-2.3-1.8-2.3s-1.8.9-1.8 2.3.7 2.3 1.8 2.3 1.8-.9 1.8-2.3zm4.2-3.4h1.3l.1 1.6c.7-1.1 1.7-1.7 2.9-1.7.6 0 .9.1 1.3.3l-.3 1.4c-.5-.1-.7-.2-1.2-.2-.9 0-1.9.5-2.6 1.8v3.8h-1.6v-7zm-73.3 18.1h-3v-1.3h4.6v6.9h-1.6zm-.4-3.6c0-.6.5-1.1 1.2-1.1s1.2.4 1.2 1.1-.5 1.1-1.2 1.1-1.2-.5-1.2-1.1zm5.3 2.3h1.2l.1.9c.3-.6.7-1 1.5-1 .6 0 1.1.4 1.2 1.2.3-.7.8-1.2 1.6-1.2 1 0 1.5.8 1.5 2.2v4.9h-1.6v-4.8c0-.6-.2-.9-.5-.9-.4 0-.6.3-.9.9v4.8h-1.3v-4.8c0-.6-.2-.9-.5-.9-.4 0-.6.3-.9.9v4.8h-1.6v-7zm8.9 0h1.3l.1.8c.6-.6 1.4-1 2.2-1 1.8 0 2.8 1.4 2.8 3.5 0 2.3-1.5 3.7-3.1 3.7-.6 0-1.3-.3-1.9-.8l.1 1.2v2.2h-1.6v-9.6zm4.9 3.3c0-1.4-.5-2.2-1.6-2.2-.5 0-1.1.2-1.6.8v3.1c.5.5 1.1.6 1.5.6.9.1 1.7-.7 1.7-2.3zm3.1.1c0-2.3 1.6-3.6 3.5-3.6 1.8 0 3.5 1.3 3.5 3.6s-1.6 3.6-3.5 3.6c-1.8 0-3.5-1.3-3.5-3.6zm5.3 0c0-1.4-.7-2.3-1.8-2.3s-1.8.9-1.8 2.3.7 2.3 1.8 2.3 1.8-.9 1.8-2.3zm4.2-3.4h1.3l.1 1.6c.7-1.1 1.7-1.7 2.9-1.7.6 0 .9.1 1.3.3l-.3 1.4c-.5-.1-.7-.2-1.2-.2-.9 0-1.9.5-2.6 1.8v3.8h-1.6v-7zm9.2 4.1v-2.8h-1.8v-1.2l1.9-.1.2-2.2h1.3v2.2h3.1v1.3h-3.1v2.8c0 1.1.4 1.6 1.6 1.6.6 0 1-.1 1.5-.3l.3 1.2c-.6.2-1.3.4-2.2.4-2 0-2.8-1.1-2.8-2.9zm15.2.9c0-1.5 1.4-2.3 4.8-2.5-.1-.8-.5-1.3-1.6-1.3-.8 0-1.5.3-2.2.7l-.6-1.1c.8-.5 2-1 3.1-1 1.9 0 3 1.1 3 3v4.1h-1.3l-.1-.9c-.7.6-1.6 1-2.6 1-1.6 0-2.5-.8-2.5-2zm4.7-.1v-1.4c-2.5.2-3.2.7-3.2 1.4 0 .6.5.9 1.2.9.8 0 1.4-.4 2-.9zm12.2-4.9h1.3l.1 1h.1c.7-.7 1.4-1.2 2.5-1.2 1.6 0 2.3 1 2.3 2.8v4.3h-1.6v-4.1c0-1.1-.4-1.6-1.3-1.6-.7 0-1.1.3-1.8 1v4.7h-1.6zm8.1 3.4c0-2.2 1.7-3.6 3.5-3.6 2.1 0 3.2 1.4 3.2 3.3 0 .3 0 .6-.1.8h-5.5v-1.1h4.5l-.3.4c0-1.4-.6-2-1.7-2s-2 .8-2 2.4 1 2.4 2.4 2.4c.7 0 1.3-.2 1.9-.6l.6 1c-.7.5-1.7.8-2.7.8-2.1-.2-3.8-1.5-3.8-3.8zm7.7-3.4h1.6l.6 3.6c.1.7.2 1.3.3 2h.1c.1-.7.2-1.3.4-2l.6-2.9h1.3l.6 2.9c.1.7.3 1.3.4 2h.1c.1-.7.2-1.3.3-2l.6-3.6h1.5l-1.3 6.9h-2l-.6-2.7c-.1-.5-.2-1.2-.3-2h-.1c-.1.7-.2 1.4-.3 2l-.6 2.7h-1.9zm-95.8 22.8.7-1c.8.5 1.8.9 2.9.9 1 0 1.4-.4 1.4-.8 0-.5-.3-.7-1.9-1-1.8-.4-2.7-1-2.7-2.1 0-1.2 1.1-2.1 3-2.1 1.1 0 2.2.4 2.9.9l-.7 1c-.7-.4-1.5-.7-2.3-.7-.9 0-1.3.3-1.3.8s.5.7 1.8.9c2.2.5 2.8 1.1 2.8 2.2 0 1.2-1.1 2.1-3.2 2.1-1.4-.1-2.6-.5-3.4-1.1zm8.6-6h1.3l.1.8c.6-.6 1.4-1 2.2-1 1.8 0 2.8 1.4 2.8 3.5 0 2.3-1.5 3.7-3.1 3.7-.6 0-1.3-.3-1.9-.8l.1 1.2v2.2h-1.6v-9.6zm4.9 3.3c0-1.4-.5-2.2-1.6-2.2-.5 0-1.1.2-1.6.8v3.1c.5.5 1.1.6 1.5.6.9.1 1.7-.7 1.7-2.3zm3.2.1c0-2.2 1.7-3.6 3.5-3.6 2.1 0 3.2 1.4 3.2 3.3 0 .3 0 .6-.1.8h-5.5v-1.1h4.5l-.3.4c0-1.4-.6-2-1.7-2s-2 .8-2 2.4 1 2.4 2.4 2.4c.7 0 1.3-.2 1.9-.6l.6 1c-.7.5-1.7.8-2.7.8-2.1-.2-3.8-1.5-3.8-3.8zm8.6 0c0-2.3 1.8-3.6 3.9-3.6 1.1 0 2 .4 2.5 1l-.8 1c-.5-.4-1.1-.7-1.7-.7-1.4 0-2.3.9-2.3 2.3s.9 2.3 2.3 2.3c.8 0 1.4-.3 2-.8l.7 1c-.8.7-1.8 1-2.8 1-2.1.1-3.8-1.2-3.8-3.5zm11.5-2.1h-3v-1.3h4.7v6.9h-1.6v-5.6zm-.4-3.6c0-.6.5-1.1 1.2-1.1s1.2.4 1.2 1.1-.5 1.1-1.2 1.1c-.7-.1-1.2-.5-1.2-1.1zm6 2.4 1.9-.1h4.2v1.3h-6.1zm1.9-.5c0-1.6.9-2.8 2.9-2.8.7 0 1.4.2 2 .4l-.3 1.2c-.5-.2-1-.3-1.5-.3-1 0-1.5.5-1.5 1.5v7.3h-1.6zm9.3 1.7h-3v-1.3h4.6v6.9h-1.6zm-.4-3.6c0-.6.5-1.1 1.2-1.1s1.2.4 1.2 1.1-.5 1.1-1.2 1.1c-.7-.1-1.2-.5-1.2-1.1zm5.7 5.7c0-2.3 1.8-3.6 3.9-3.6 1.1 0 2 .4 2.5 1l-.8 1c-.5-.4-1.1-.7-1.7-.7-1.4 0-2.3.9-2.3 2.3s.9 2.3 2.3 2.3c.8 0 1.4-.3 2-.8l.7 1c-.8.7-1.8 1-2.8 1-2.1.1-3.8-1.2-3.8-3.5zm8.4 1.6c0-1.5 1.4-2.3 4.8-2.5-.1-.8-.5-1.3-1.6-1.3-.8 0-1.5.3-2.2.7l-.8-1.1c.8-.5 2-1 3.1-1 1.9 0 3 1.1 3 3v4.1h-1.3l-.1-.9c-.7.6-1.6 1-2.6 1-1.4 0-2.3-.8-2.3-2zm4.7-.1v-1.4c-2.5.2-3.2.7-3.2 1.4 0 .6.5.9 1.2.9.8 0 1.4-.4 2-.9zm5.3-.8v-2.8h-1.8v-1.2l1.9-.1.2-2.2h1.3v2.2h3.1v1.3h-3.1v2.8c0 1.1.4 1.6 1.6 1.6.6 0 1-.1 1.5-.3l.3 1.2c-.6.2-1.3.4-2.2.4-2 0-2.8-1.1-2.8-2.9zm9.9-2.8h-3v-1.3h4.6v6.9h-1.6zm-.4-3.6c0-.6.5-1.1 1.2-1.1s1.2.4 1.2 1.1-.5 1.1-1.2 1.1c-.7-.1-1.2-.5-1.2-1.1zm5.4 5.7c0-2.3 1.6-3.6 3.5-3.6 1.8 0 3.5 1.3 3.5 3.6s-1.6 3.6-3.5 3.6c-1.8 0-3.5-1.3-3.5-3.6zm5.3 0c0-1.4-.7-2.3-1.8-2.3s-1.8.9-1.8 2.3.7 2.3 1.8 2.3 1.8-.9 1.8-2.3zm3.5-3.4h1.3l.1 1h.1c.7-.7 1.4-1.2 2.5-1.2 1.6 0 2.3 1 2.3 2.8v4.3h-1.6v-4c0-1.1-.4-1.6-1.3-1.6-.7 0-1.1.3-1.8 1v4.7h-1.6zm-86.6 19.8c0-2.7 1.2-4.8 3-6.4l.9.8c-1.8 1.6-2.6 3.3-2.6 5.6s.8 4 2.6 5.6l-.9.8c-1.8-1.6-3-3.8-3-6.4zm6.4.4c0-2.3 1.6-3.6 3.5-3.6s3.5 1.3 3.5 3.6-1.6 3.6-3.5 3.6-3.5-1.3-3.5-3.6zm5.3 0c0-1.4-.7-2.3-1.8-2.3s-1.8.9-1.8 2.3.7 2.3 1.8 2.3 1.8-.9 1.8-2.3zm3.5-3.4h1.3l.1.8c.6-.6 1.4-1 2.2-1 1.8 0 2.8 1.4 2.8 3.5 0 2.3-1.5 3.7-3.1 3.7-.6 0-1.3-.3-1.9-.8l.1 1.2v2.2h-1.6v-9.6zm4.9 3.3c0-1.4-.5-2.2-1.6-2.2-.5 0-1.1.2-1.6.8v3.1c.5.5 1.1.6 1.5.6.9.1 1.7-.7 1.7-2.3zm5 .8v-2.8h-1.8v-1.2l1.9-.1.2-2.2h1.3v2.2h3.1v1.3h-3.1v2.8c0 1.1.4 1.6 1.6 1.6.6 0 1-.1 1.5-.3l.3 1.2c-.6.2-1.3.4-2.2.4-2 0-2.8-1.1-2.8-2.9zm9.9-2.8h-3v-1.3h4.6v6.9h-1.6zm-.4-3.6c0-.6.5-1.1 1.2-1.1s1.2.4 1.2 1.1-.5 1.1-1.2 1.1-1.2-.5-1.2-1.1zm5.4 5.7c0-2.3 1.6-3.6 3.5-3.6s3.5 1.3 3.5 3.6-1.6 3.6-3.5 3.6-3.5-1.3-3.5-3.6zm5.3 0c0-1.4-.7-2.3-1.8-2.3s-1.8.9-1.8 2.3.7 2.3 1.8 2.3 1.8-.9 1.8-2.3zm3.5-3.4h1.3l.1 1h.1c.7-.7 1.4-1.2 2.5-1.2 1.6 0 2.3 1 2.3 2.8v4.3h-1.6v-4c0-1.1-.4-1.6-1.3-1.6-.7 0-1.1.3-1.8 1v4.7h-1.6zm8.3 5c0-1.5 1.4-2.3 4.8-2.5-.1-.8-.5-1.3-1.6-1.3-.8 0-1.5.3-2.2.7l-.6-1.1c.8-.5 2-1 3.1-1 1.9 0 3 1.1 3 3v4.1h-1.5l-.1-.9c-.7.6-1.6 1-2.6 1-1.4 0-2.3-.8-2.3-2zm4.7-.1v-1.4c-2.5.2-3.2.7-3.2 1.4 0 .6.5.9 1.2.9.8 0 1.4-.4 2-.9zm5.8-.5v-6.1h-2.3v-1.3h3.9v7.5c0 .9.5 1.3 1.2 1.3.4 0 .7-.1 1.2-.3l.4 1.2c-.7.3-1.1.4-1.9.4-1.6-.1-2.5-1-2.5-2.7zm7 4.2c1.8-1.6 2.6-3.3 2.6-5.6s-.8-4-2.6-5.6l.9-.8c1.9 1.6 3.1 3.7 3.1 6.4s-1.2 4.8-3.1 6.4z" fill="#1c272b"/><path d="m41.4 107.6h-1.9v-9.1l-2.8 1v-1.6l4.4-1.6h.2v11.3zm5.3-2c.4 0 .6.1.8.3s.3.5.3.8-.1.5-.3.7-.5.3-.8.3-.6-.1-.8-.3-.3-.4-.3-.7.1-.6.3-.8.5-.3.8-.3zm13.4-.9c0-.5-.2-.9-.5-1.2-.4-.3-1-.5-1.9-.8s-1.6-.6-2.2-.9c-1-.7-1.6-1.5-1.6-2.5 0-.9.4-1.7 1.1-2.3s1.7-.9 2.9-.9c.8 0 1.5.1 2.1.4s1.1.7 1.5 1.2.5 1.1.5 1.8h-2c0-.6-.2-1.1-.6-1.4s-.9-.5-1.6-.5c-.6 0-1.1.1-1.5.4s-.5.7-.5 1.2c0 .4.2.8.6 1 .4.3 1 .5 1.9.8s1.6.6 2.1.9.9.7 1.2 1.2c.2.4.4.9.4 1.5 0 .9-.4 1.7-1.1 2.3s-1.7.8-3 .8c-.8 0-1.6-.2-2.3-.5s-1.2-.7-1.6-1.3c-.4-.5-.6-1.2-.6-1.9h2c0 .6.2 1.1.6 1.5s1 .5 1.8.5c.7 0 1.2-.1 1.6-.4.5-.1.7-.4.7-.9zm10.9-1.2c0 1.3-.3 2.4-.9 3.1-.6.8-1.4 1.2-2.4 1.2-.9 0-1.7-.3-2.2-.9v4h-1.9v-11.7h1.8l.1.9c.6-.7 1.3-1 2.3-1s1.8.4 2.4 1.2.9 1.8.9 3.2zm-1.9-.2c0-.8-.2-1.5-.5-2s-.8-.7-1.4-.7c-.8 0-1.3.3-1.7 1v3.8c.3.7.9 1 1.7 1 .6 0 1.1-.2 1.4-.7.4-.6.5-1.4.5-2.4zm7.3 4.5c-1.2 0-2.2-.4-2.9-1.1s-1.1-1.8-1.1-3v-.2c0-.8.2-1.6.5-2.3s.8-1.2 1.4-1.6 1.2-.6 2-.6c1.2 0 2 .4 2.7 1.1s.9 1.8.9 3.1v.8h-5.5c.1.7.3 1.2.7 1.7s.9.6 1.5.6c.9 0 1.6-.4 2.1-1.1l1 1c-.3.5-.8.9-1.4 1.2s-1.2.4-1.9.4zm-.3-7.2c-.5 0-.9.2-1.3.5-.3.4-.5.9-.6 1.5h3.6v-.1c0-.6-.2-1.1-.5-1.4-.2-.4-.6-.5-1.2-.5zm8.6 5.7c.5 0 .9-.1 1.2-.4s.5-.6.5-1h1.8c0 .5-.2 1-.5 1.5s-.7.8-1.2 1.1-1.1.4-1.7.4c-1.2 0-2.1-.4-2.8-1.1s-1-1.8-1-3.2v-.2c0-1.3.3-2.3 1-3.1s1.6-1.2 2.8-1.2c1 0 1.8.3 2.5.9s1 1.4 1 2.3h-1.8c0-.5-.2-.9-.5-1.2s-.7-.5-1.2-.5c-.6 0-1.1.2-1.4.7s-.5 1.1-.5 2v.3c0 .9.2 1.6.5 2.1.2.4.7.6 1.3.6zm4.9-9.3c0-.3.1-.5.3-.7s.4-.3.8-.3.6.1.8.3.3.4.3.7-.1.5-.3.7-.5.3-.8.3-.6-.1-.8-.3-.3-.4-.3-.7zm2 10.6h-1.9v-8.5h1.9zm2.8 0v-7h-1.3v-1.4h1.3v-.8c0-.9.3-1.7.8-2.2s1.2-.8 2.2-.8c.3 0 .7 0 1.1.1v1.5c-.2 0-.5-.1-.7-.1-.9 0-1.4.5-1.4 1.4v.8h1.6v1.4h-1.7v7h-1.9zm5-10.6c0-.3.1-.5.3-.7s.4-.3.8-.3.6.1.8.3.3.4.3.7-.1.5-.3.7-.5.3-.8.3-.6-.1-.8-.3-.3-.4-.3-.7zm2 10.6h-1.9v-8.5h1.9zm5.5-1.3c.5 0 .9-.1 1.2-.4s.5-.6.5-1h1.8c0 .5-.2 1-.5 1.5s-.7.8-1.2 1.1-1.1.4-1.7.4c-1.2 0-2.1-.4-2.8-1.1s-1-1.8-1-3.2v-.2c0-1.3.3-2.3 1-3.1s1.6-1.2 2.8-1.2c1 0 1.8.3 2.5.9s1 1.4 1 2.3h-1.8c0-.5-.2-.9-.5-1.2s-.7-.5-1.2-.5c-.6 0-1.1.2-1.4.7s-.5 1.1-.5 2v.3c0 .9.2 1.6.5 2.1.2.4.7.6 1.3.6zm10 1.3c-.1-.2-.2-.4-.2-.8-.6.6-1.3.9-2.2.9-.8 0-1.5-.2-2.1-.7s-.8-1.1-.8-1.8c0-.9.3-1.6 1-2.1s1.6-.7 2.9-.7h1.2v-.6c0-.4-.1-.8-.4-1.1-.2-.3-.6-.4-1.1-.4-.4 0-.8.1-1.1.3s-.4.5-.4.8h-1.9c0-.5.2-.9.5-1.3s.7-.7 1.3-.9c.5-.2 1.1-.3 1.8-.3 1 0 1.8.2 2.4.7s.9 1.2.9 2.1v3.8c0 .8.1 1.4.3 1.8v.1h-2.1zm-2.1-1.3c.4 0 .7-.1 1.1-.3.3-.2.6-.4.7-.7v-1.6h-1c-.7 0-1.2.1-1.6.4-.4.2-.5.6-.5 1s.1.7.4.9c.2.2.5.3.9.3zm8.1-9.2v2.1h1.5v1.4h-1.5v4.7c0 .3.1.6.2.7s.4.2.7.2c.2 0 .4 0 .7-.1v1.5c-.4.1-.8.2-1.2.2-1.5 0-2.2-.8-2.2-2.4v-4.8h-1.4v-1.4h1.4v-2.1zm2.9-.1c0-.3.1-.5.3-.7s.4-.3.8-.3.6.1.8.3.3.4.3.7-.1.5-.3.7-.5.3-.8.3-.6-.1-.8-.3-.3-.4-.3-.7zm2 10.6h-1.9v-8.5h1.9zm1.7-4.3c0-.8.2-1.6.5-2.2s.8-1.2 1.4-1.5c.6-.4 1.3-.5 2-.5 1.1 0 2.1.4 2.8 1.1s1.1 1.7 1.2 2.9v.4c0 .8-.2 1.6-.5 2.2s-.8 1.2-1.4 1.5-1.3.5-2.1.5c-1.2 0-2.1-.4-2.9-1.2-.6-.7-1-1.7-1-3.2zm1.9.2c0 .9.2 1.6.5 2s.9.7 1.5.7 1.1-.2 1.5-.8.5-1.2.5-2.2c0-.9-.2-1.5-.6-2s-.9-.8-1.5-.8-1.1.2-1.5.7-.4 1.4-.4 2.4zm9.4-4.3.1 1c.6-.8 1.4-1.1 2.5-1.1 1.8 0 2.7 1 2.7 3v5.6h-1.9v-5.5c0-.5-.1-.9-.3-1.2s-.6-.4-1.1-.4c-.8 0-1.3.3-1.7 1v6h-2.1v-8.5h1.8zm-68.8 23.4v4.2h-2v-11.4h4.4c1.3 0 2.3.3 3 1s1.1 1.5 1.1 2.6-.4 2-1.1 2.6-1.8.9-3.1.9h-2.3zm0-1.6h2.4c.7 0 1.2-.2 1.6-.5s.6-.8.6-1.4-.2-1.1-.6-1.5-.9-.6-1.5-.6h-2.5zm10-1.7c.6-.7 1.4-1.1 2.4-1.1 1.8 0 2.7 1 2.7 3.1v5.5h-1.9v-5.5c0-.6-.1-1-.4-1.2s-.6-.4-1.1-.4c-.8 0-1.3.3-1.7 1v6h-1.9v-12h1.9zm12 7.5c-.1-.2-.2-.4-.2-.8-.6.6-1.3.9-2.2.9-.8 0-1.5-.2-2.1-.7s-.8-1.1-.8-1.8c0-.9.3-1.6 1-2.1s1.6-.7 2.9-.7h1.2v-.6c0-.4-.1-.8-.4-1.1-.2-.3-.6-.4-1.1-.4-.4 0-.8.1-1.1.3s-.4.5-.4.8h-1.9c0-.5.2-.9.5-1.3s.7-.7 1.3-.9c.5-.2 1.1-.3 1.8-.3 1 0 1.8.2 2.4.7s.9 1.2.9 2.1v3.8c0 .8.1 1.4.3 1.8v.1h-2.1zm-2.1-1.3c.4 0 .7-.1 1.1-.3.3-.2.6-.4.7-.7v-1.6h-1c-.7 0-1.2.1-1.6.4-.4.2-.5.6-.5 1s.1.7.4.9c.2.2.5.3.9.3zm10.5-.9c0-.3-.1-.6-.4-.8s-.7-.3-1.4-.5c-.6-.1-1.2-.3-1.6-.5-.9-.5-1.4-1.1-1.4-2 0-.7.3-1.3.9-1.8s1.4-.7 2.3-.7c1 0 1.8.2 2.4.8s.9 1.1.9 1.9h-1.9c0-.4-.1-.7-.4-.9s-.6-.4-1.1-.4c-.4 0-.8.1-1 .3-.3.2-.4.5-.4.8s.1.5.4.7c.2.2.7.3 1.5.5s1.3.4 1.8.6.7.5.9.8.3.7.3 1.2c0 .8-.3 1.4-.9 1.8-.6.5-1.5.7-2.5.7-.7 0-1.3-.1-1.9-.4s-1-.6-1.3-1-.5-.9-.5-1.4h1.8c0 .4.2.8.5 1s.7.4 1.2.4.9-.1 1.1-.3c.5-.3.7-.5.7-.8zm7.2 2.4c-1.2 0-2.2-.4-2.9-1.1s-1.1-1.8-1.1-3v-.2c0-.8.2-1.6.5-2.3s.8-1.2 1.4-1.6 1.2-.6 2-.6c1.2 0 2 .4 2.7 1.1s.9 1.8.9 3.1v.8h-5.5c.1.7.3 1.2.7 1.7s.9.6 1.5.6c.9 0 1.6-.4 2.1-1.1l1 1c-.3.5-.8.9-1.4 1.2s-1.2.4-1.9.4zm-.2-7.2c-.5 0-.9.2-1.3.5-.3.4-.5.9-.6 1.5h3.6v-.1c0-.6-.2-1.1-.5-1.4-.3-.4-.7-.5-1.2-.5z" fill="#1c272b"/><path d="m14.9 140.6h152.5v77h-152.5z" fill="#fff"/><path d="m66.2 170c0-3 1.8-4.8 4.2-4.8 1.1 0 2 .5 2.6 1.1l-.9 1c-.5-.5-1-.7-1.7-.7-1.5 0-2.6 1.3-2.6 3.3 0 2.1 1 3.4 2.6 3.4.7 0 1.3-.3 1.8-.9l.9 1c-.7.9-1.7 1.3-2.9 1.3-2.1 0-4-1.6-4-4.7zm9.4-2.3h1.4l.1 1.6c.7-1.1 1.7-1.7 2.9-1.7.6 0 .9.1 1.3.3l-.3 1.4c-.5-.1-.7-.2-1.2-.2-.9 0-1.9.5-2.6 1.8v3.8h-1.6zm7.5 3.4c0-2.2 1.7-3.6 3.5-3.6 2.1 0 3.2 1.4 3.2 3.3 0 .3 0 .6-.1.8h-5.5v-1.1h4.5l-.3.4c0-1.4-.6-2-1.7-2s-2 .8-2 2.4 1 2.4 2.4 2.4c.7 0 1.3-.2 1.9-.6l.6 1c-.7.5-1.7.8-2.7.8-2.2-.2-3.8-1.5-3.8-3.8zm8.5 1.6c0-1.5 1.4-2.3 4.8-2.5-.1-.8-.5-1.3-1.6-1.3-.8 0-1.5.3-2.2.7l-.6-1.1c.8-.5 2-1 3.1-1 1.9 0 3 1.1 3 3v4.1h-1.3l-.1-.9c-.7.6-1.6 1-2.6 1-1.5 0-2.5-.8-2.5-2zm4.8-.1v-1.4c-2.5.2-3.2.7-3.2 1.4 0 .6.5.9 1.2.9s1.3-.4 2-.9zm5.3-.8v-2.8h-1.8v-1.2l1.9-.1.2-2.2h1.3v2.2h3.1v1.3h-3.1v2.8c0 1.1.4 1.6 1.6 1.6.6 0 1-.1 1.5-.3l.3 1.2c-.6.2-1.3.4-2.2.4-2.1 0-2.8-1.1-2.8-2.9zm6.6-.7c0-2.2 1.7-3.6 3.5-3.6 2.1 0 3.2 1.4 3.2 3.3 0 .3 0 .6-.1.8h-5.5v-1.1h4.5l-.3.4c0-1.4-.6-2-1.7-2s-2 .8-2 2.4 1 2.4 2.4 2.4c.7 0 1.3-.2 1.9-.6l.6 1c-.7.5-1.7.8-2.7.8-2.2-.2-3.8-1.5-3.8-3.8zm-54.5 18.4c0-1.5 1.4-2.3 4.8-2.5-.1-.8-.5-1.3-1.6-1.3-.8 0-1.5.3-2.2.7l-.6-1.1c.8-.5 2-1 3.1-1 1.9 0 3 1.1 3 3v4.1h-1.3l-.1-.9c-.7.6-1.6 1-2.6 1-1.5 0-2.5-.8-2.5-2zm4.8-.1v-1.4c-2.5.2-3.2.7-3.2 1.4 0 .6.5.9 1.2.9s1.3-.4 2-.9zm12.2-4.9h1.3l.1 1h.1c.7-.7 1.4-1.2 2.5-1.2 1.6 0 2.3 1 2.3 2.8v4.3h-1.6v-4.1c0-1.1-.4-1.6-1.3-1.6-.7 0-1.1.3-1.8 1v4.7h-1.6zm8.1 3.4c0-2.2 1.7-3.6 3.5-3.6 2.1 0 3.2 1.4 3.2 3.3 0 .3 0 .6-.1.8h-5.5v-1.1h4.5l-.3.4c0-1.4-.6-2-1.7-2s-2 .8-2 2.4 1 2.4 2.4 2.4c.7 0 1.3-.2 1.9-.6l.6 1c-.7.5-1.7.8-2.7.8-2.2-.2-3.8-1.5-3.8-3.8zm7.6-3.4h1.6l.6 3.6c.1.7.2 1.3.3 2 .1-.7.2-1.3.4-2l.6-2.9h1.3l.6 2.9c.1.7.3 1.3.4 2h.1c.1-.7.2-1.3.3-2l.6-3.6h1.5l-1.3 6.9h-2l-.6-2.7c-.1-.5-.2-1.2-.3-2h-.1c-.1.7-.2 1.4-.3 2l-.6 2.7h-1.9zm20-2.3h1.9l3 9.2h-1.7l-1.4-4.9c-.3-1-.6-2-.8-3h-.1c-.3 1-.5 2.1-.8 3l-1.4 4.9h-1.7zm-1.3 5.4h4.3v1.3h-4.3zm7.6-5.4h3c2 0 3.5.7 3.5 2.8s-1.5 3-3.5 3h-1.4v3.4h-1.6zm2.9 4.5c1.4 0 2-.5 2-1.7 0-1.1-.7-1.5-2-1.5h-1.3v3.2zm5.5 3.3h2.2v-6.4h-2.2v-1.4h6v1.4h-2.2v6.4h2.2v1.4h-6z" fill="#1c272b"/><path d="m14.9 138.8h152.5v3.5h-152.5z" fill="#f26c3d"/><path d="m14.9 225.8h152.5v3.5h-152.5z" fill="#f26c3d"/><g fill="#fff"><path d="m1036.1 229c-.8 0-1.5-.7-1.5-1.5 0-12.4 10.1-22.5 22.5-22.5.8 0 1.5.7 1.5 1.5s-.7 1.5-1.5 1.5c-10.8 0-19.5 8.7-19.5 19.5 0 .8-.7 1.5-1.5 1.5z"/><path d="m1096.3 208h-39.2c-.8 0-1.5-.7-1.5-1.5s.7-1.5 1.5-1.5h39.2c.8 0 1.5.7 1.5 1.5s-.7 1.5-1.5 1.5z"/><path d="m1094.1 214 13-7.5-13-7.5z"/><path d="m1057.1 208c-12.4 0-22.5-10.1-22.5-22.5v-96.7c0-10.8-8.7-19.5-19.5-19.5h-49.8c-.8 0-1.5-.7-1.5-1.5s.7-1.5 1.5-1.5h49.8c12.4 0 22.5 10.1 22.5 22.5v96.8c0 10.8 8.7 19.5 19.5 19.5.8 0 1.5.7 1.5 1.5s-.7 1.4-1.5 1.4z"/><path d="m1015.1 346.8h-49.8c-.8 0-1.5-.7-1.5-1.5s.7-1.5 1.5-1.5h49.8c10.8 0 19.5-8.7 19.5-19.5v-96.8c0-.8.7-1.5 1.5-1.5s1.5.7 1.5 1.5v96.8c0 12.4-10.1 22.5-22.5 22.5z"/><path d="m271.9 208c-.8 0-1.5-.7-1.5-1.5s.7-1.5 1.5-1.5c10.8 0 19.5-8.7 19.5-19.5 0-.8.7-1.5 1.5-1.5s1.5.7 1.5 1.5c0 12.4-10.1 22.5-22.5 22.5z"/><path d="m271.9 208h-43c-.8 0-1.5-.7-1.5-1.5s.7-1.5 1.5-1.5h43c.8 0 1.5.7 1.5 1.5s-.6 1.5-1.5 1.5z"/><path d="m353 346.8h-39c-12.4 0-22.5-10.1-22.5-22.5v-96.8c0-10.8-8.7-19.5-19.5-19.5-.8 0-1.5-.7-1.5-1.5s.7-1.5 1.5-1.5c12.4 0 22.5 10.1 22.5 22.5v96.8c0 10.8 8.7 19.5 19.5 19.5h39c.8 0 1.5.7 1.5 1.5s-.7 1.5-1.5 1.5z"/><path d="m350.8 337.8 12.9 7.5-12.9 7.4z"/><path d="m292.9 187c-.8 0-1.5-.7-1.5-1.5v-96.7c0-12.4 10.1-22.5 22.5-22.5h39c.8 0 1.5.7 1.5 1.5s-.7 1.5-1.5 1.5h-39c-10.8 0-19.5 8.7-19.5 19.5v96.8c0 .7-.6 1.4-1.5 1.4z"/><path d="m350.8 75.2 12.9-7.4-12.9-7.5z"/></g><path d="m419.2 264.8h517.6v133.2h-517.6z" fill="#231f20"/><path d="m409.2 254.8h517.6v133.2h-517.6z" fill="#eaeae9"/><path d="m429.2 291h152.5v77h-152.5z" fill="#fff"/><path d="m477.5 315.6h5.9v1.4h-4.2v2.3h3.6v1.4h-3.6v2.7h4.4v1.4h-6v-9.2zm10.1 5.6-2.3-3.3h1.8l.9 1.3c.2.4.5.8.8 1.2h.1c.2-.4.5-.8.7-1.2l.8-1.3h1.7l-2.3 3.5 2.5 3.4h-1.8l-1-1.4c-.3-.4-.6-.8-.8-1.2h-.1c-.2.4-.5.8-.7 1.2l-.9 1.3h-1.7zm6.4-3.3h1.3l.1.8c.6-.6 1.4-1 2.2-1 1.8 0 2.8 1.4 2.8 3.5 0 2.3-1.5 3.7-3.1 3.7-.6 0-1.3-.3-1.9-.8l.1 1.2v2.2h-1.5zm4.8 3.4c0-1.4-.5-2.2-1.6-2.2-.5 0-1.1.2-1.6.8v3.1c.5.5 1.1.6 1.5.6 1 0 1.7-.8 1.7-2.3zm5.6 1v-6.1h-2.3v-1.3h3.9v7.5c0 .9.5 1.3 1.2 1.3.4 0 .7-.1 1.2-.3l.4 1.2c-.7.3-1.1.4-1.9.4-1.6 0-2.5-1-2.5-2.7zm6-.9c0-2.3 1.6-3.6 3.5-3.6s3.5 1.3 3.5 3.6-1.6 3.6-3.5 3.6-3.5-1.4-3.5-3.6zm5.2 0c0-1.4-.7-2.3-1.8-2.3s-1.8.9-1.8 2.3.7 2.3 1.8 2.3c1.2-.1 1.8-1 1.8-2.3zm4.3-3.5h1.3l.1 1.6c.7-1.1 1.7-1.7 2.9-1.7.6 0 .9.1 1.3.3l-.3 1.4c-.5-.1-.7-.2-1.2-.2-.9 0-1.9.5-2.6 1.8v3.8h-1.6v-7zm7.4 3.4c0-2.2 1.7-3.6 3.5-3.6 2.1 0 3.2 1.4 3.2 3.3 0 .3 0 .6-.1.8h-5.5v-1.1h4.5l-.3.4c0-1.4-.6-2-1.7-2s-2 .8-2 2.4 1 2.4 2.4 2.4c.7 0 1.3-.2 1.9-.6l.6 1c-.7.5-1.7.8-2.7.8-2.1-.1-3.8-1.5-3.8-3.8zm-48.6 17.5v-2.8h-1.8v-1.2l1.9-.1.2-2.2h1.3v2.2h3.1v1.3h-3.1v2.8c0 1.1.4 1.6 1.6 1.6.6 0 1-.1 1.5-.3l.3 1.2c-.6.2-1.3.4-2.2.4-2.1.1-2.8-1.1-2.8-2.9zm6.9-7.1h1.6v2.6l-.1 1.5c.6-.6 1.4-1.2 2.4-1.2 1.6 0 2.3 1 2.3 2.8v4.3h-1.6v-4.1c0-1.1-.4-1.6-1.3-1.6-.7 0-1.1.3-1.8 1v4.7h-1.6v-10zm8.1 6.4c0-2.2 1.7-3.6 3.5-3.6 2.1 0 3.2 1.4 3.2 3.3 0 .3 0 .6-.1.8h-5.5v-1.1h4.5l-.3.4c0-1.4-.6-2-1.7-2s-2 .8-2 2.4 1 2.4 2.4 2.4c.7 0 1.3-.2 1.9-.6l.6 1c-.7.5-1.7.8-2.7.8-2.1-.1-3.8-1.5-3.8-3.8zm19.2-5.7h1.9l3 9.2h-1.8l-1.4-4.9c-.3-1-.6-2-.8-3h-.1c-.3 1-.5 2.1-.8 3l-1.4 4.9h-1.7zm-1.2 5.4h4.3v1.3h-4.3zm7.6-5.4h3c2 0 3.5.7 3.5 2.8 0 2-1.5 3-3.5 3h-1.4v3.4h-1.6zm2.9 4.5c1.4 0 2-.5 2-1.7 0-1.1-.7-1.5-2-1.5h-1.3v3.2zm5.4 3.3h2.2v-6.4h-2.2v-1.4h6v1.4h-2.2v6.4h2.2v1.4h-6z" fill="#1c272b"/><path d="m591.7 291h152.5v77h-152.5z" fill="#fff"/><path d="m647.1 308.6h1.7l.5 5.3c.1.8.1 1.3.1 2.2.1-.9.3-1.4.4-2.2l.8-3h1.2l.7 3c.2.8.3 1.3.4 2.2h.1c0-.9.1-1.4.1-2.2l.4-5.3h1.6l-1.2 9.2h-1.8l-.7-3.3c-.1-.6-.2-1.1-.3-1.7-.1.6-.2 1.1-.3 1.7l-.7 3.3h-1.8zm10.1 2.3h1.3l.1 1.6c.7-1.1 1.7-1.7 2.9-1.7.6 0 .9.1 1.3.3l-.3 1.4c-.5-.1-.7-.2-1.2-.2-.9 0-1.9.5-2.6 1.8v3.8h-1.6v-7zm10.8 1.3h-3v-1.3h4.6v6.9h-1.6zm-.5-3.6c0-.6.5-1.1 1.2-1.1s1.2.4 1.2 1.1-.5 1.1-1.2 1.1-1.2-.5-1.2-1.1zm7.4 6.4v-2.8h-1.9v-1.2l1.9-.1.2-2.2h1.3v2.2h3.1v1.3h-3.1v2.8c0 1.1.4 1.6 1.6 1.6.6 0 1-.1 1.5-.3l.3 1.2c-.6.2-1.3.4-2.2.4-2 .1-2.7-1.1-2.7-2.9zm6.6-.7c0-2.2 1.7-3.6 3.5-3.6 2.1 0 3.2 1.4 3.2 3.3 0 .3 0 .6-.1.8h-5.5v-1.1h4.5l-.3.4c0-1.4-.6-2-1.7-2s-2 .8-2 2.4 1 2.4 2.4 2.4c.7 0 1.3-.2 1.9-.6l.6 1c-.7.5-1.7.8-2.7.8-2.2-.1-3.8-1.5-3.8-3.8zm-57 17.5v-2.8h-1.8v-1.2l1.9-.1.2-2.2h1.3v2.2h3.1v1.3h-3.1v2.8c0 1.1.4 1.6 1.6 1.6.6 0 1-.1 1.5-.3l.3 1.2c-.6.2-1.3.4-2.2.4-2.1.1-2.8-1.1-2.8-2.9zm6.6-.7c0-2.2 1.7-3.6 3.5-3.6 2.1 0 3.2 1.4 3.2 3.3 0 .3 0 .6-.1.8h-5.5v-1.1h4.5l-.3.4c0-1.4-.6-2-1.7-2s-2 .8-2 2.4 1 2.4 2.4 2.4c.7 0 1.3-.2 1.9-.6l.6 1c-.7.5-1.7.8-2.7.8-2.2-.1-3.8-1.5-3.8-3.8zm8.4 2.6.7-1c.8.5 1.8.9 2.9.9 1 0 1.4-.4 1.4-.8 0-.5-.3-.7-1.9-1-1.8-.4-2.7-1-2.7-2.1 0-1.2 1.1-2.1 3-2.1 1.1 0 2.2.4 2.9.9l-.7 1c-.7-.4-1.5-.7-2.3-.7-.9 0-1.3.3-1.3.8s.5.7 1.8.9c2.2.5 2.8 1.1 2.8 2.2 0 1.2-1.1 2.1-3.2 2.1-1.3 0-2.6-.5-3.4-1.1zm10.2-1.9v-2.8h-1.8v-1.2l1.9-.1.2-2.2h1.3v2.2h3.1v1.3h-3.1v2.8c0 1.1.4 1.6 1.6 1.6.6 0 1-.1 1.5-.3l.3 1.2c-.6.2-1.3.4-2.2.4-2.1.1-2.8-1.1-2.8-2.9zm6.6 1.9.7-1c.8.5 1.8.9 2.9.9 1 0 1.4-.4 1.4-.8 0-.5-.3-.7-1.9-1-1.8-.4-2.7-1-2.7-2.1 0-1.2 1.1-2.1 3-2.1 1.1 0 2.2.4 2.9.9l-.7 1c-.7-.4-1.5-.7-2.3-.7-.9 0-1.3.3-1.3.8s.5.7 1.8.9c2.2.5 2.8 1.1 2.8 2.2 0 1.2-1.1 2.1-3.2 2.1-1.3 0-2.6-.5-3.4-1.1zm16.9-1.7v-4.3h1.6v4.1c0 1.1.3 1.6 1.3 1.6.6 0 1.1-.3 1.7-1v-4.6h1.6v6.9h-1.3l-.1-1.1h-.1c-.7.8-1.4 1.3-2.4 1.3-1.6-.1-2.3-1.1-2.3-2.9zm8.3 1.7.7-1c.8.5 1.8.9 2.9.9 1 0 1.4-.4 1.4-.8 0-.5-.3-.7-1.9-1-1.8-.4-2.7-1-2.7-2.1 0-1.2 1.1-2.1 3-2.1 1.1 0 2.2.4 2.9.9l-.7 1c-.7-.4-1.5-.7-2.3-.7-.9 0-1.3.3-1.3.8s.5.7 1.8.9c2.2.5 2.8 1.1 2.8 2.2 0 1.2-1.1 2.1-3.2 2.1-1.3 0-2.6-.5-3.4-1.1zm11.7-4.7h-3v-1.3h4.6v6.9h-1.6zm-.5-3.6c0-.6.5-1.1 1.2-1.1s1.2.4 1.2 1.1-.5 1.1-1.2 1.1-1.2-.5-1.2-1.1zm5.9 2.3h1.3l.1 1h.1c.7-.7 1.4-1.2 2.5-1.2 1.6 0 2.3 1 2.3 2.8v4.3h-1.6v-4.1c0-1.1-.4-1.6-1.3-1.6-.7 0-1.1.3-1.8 1v4.7h-1.6zm8.1 8.1c0-.6.4-1.1 1.1-1.5v-.1c-.4-.2-.7-.6-.7-1.2 0-.5.3-.9.8-1.3v-.1c-.5-.3-.9-1-.9-1.8 0-1.6 1.3-2.5 2.8-2.5.4 0 .8.1 1.1.2h2.8v1.2h-1.6c.2.3.4.7.4 1.1 0 1.5-1.2 2.3-2.8 2.3-.3 0-.7-.1-1.1-.2-.3.2-.4.4-.4.6 0 .5.4.7 1.3.7h1.4c1.8 0 2.7.5 2.7 1.7 0 1.4-1.5 2.4-4 2.4-1.7.3-2.9-.3-2.9-1.5zm5.5-.3c0-.5-.5-.7-1.4-.7h-1.1c-.4 0-.8 0-1-.1-.5.3-.7.6-.7.9 0 .6.7 1 2 1s2.2-.5 2.2-1.1zm-1.1-5.5c0-.8-.6-1.4-1.3-1.4s-1.3.5-1.3 1.4.6 1.4 1.3 1.4c.8 0 1.3-.5 1.3-1.4zm-84.1 20 1-1c.5.7 1.2 1.1 1.9 1.1 1.1 0 1.6-.5 1.6-1.9v-4.6h-3.7v-1.4h5.3v6.1c0 1.8-.8 3.2-3.2 3.2-1.1.1-2.2-.4-2.9-1.5zm8.4-.4c0-1.5 1.4-2.3 4.8-2.5-.1-.8-.5-1.3-1.6-1.3-.8 0-1.5.3-2.2.7l-.6-1.1c.8-.5 2-1 3.1-1 1.9 0 3 1.1 3 3v4.1h-1.3l-.1-.9c-.7.6-1.6 1-2.6 1-1.5 0-2.5-.9-2.5-2zm4.7-.1v-1.5c-2.5.2-3.2.7-3.2 1.4 0 .6.5.9 1.2.9.8 0 1.4-.3 2-.8zm3.3-5h1.6l1.3 3.6c.2.7.5 1.4.7 2.1h.1c.2-.7.4-1.4.7-2.1l1.3-3.6h1.6l-2.7 6.9h-1.8zm8.8 5.1c0-1.5 1.4-2.3 4.8-2.5-.1-.8-.5-1.3-1.6-1.3-.8 0-1.5.3-2.2.7l-.6-1.1c.8-.5 2-1 3.1-1 1.9 0 3 1.1 3 3v4.1h-1.3l-.1-.9c-.7.6-1.6 1-2.6 1-1.5 0-2.5-.9-2.5-2zm4.7-.1v-1.5c-2.5.2-3.2.7-3.2 1.4 0 .6.5.9 1.2.9.8 0 1.4-.3 2-.8zm3.6 1 .7-1c.8.5 1.8.9 2.9.9 1 0 1.4-.4 1.4-.8 0-.5-.3-.7-1.9-1-1.8-.4-2.7-1-2.7-2.1 0-1.2 1.1-2.1 3-2.1 1.1 0 2.2.4 2.9.9l-.7 1c-.7-.4-1.5-.7-2.3-.7-.9 0-1.3.3-1.3.8s.5.7 1.8.9c2.2.5 2.8 1.1 2.8 2.2 0 1.2-1.1 2.1-3.2 2.1-1.3 0-2.6-.5-3.4-1.1zm8.5-2.5c0-2.3 1.8-3.6 3.9-3.6 1.1 0 2 .4 2.5 1l-.8 1c-.5-.4-1.1-.7-1.7-.7-1.4 0-2.3.9-2.3 2.3s.9 2.3 2.3 2.3c.8 0 1.4-.3 2-.8l.7 1c-.8.7-1.8 1-2.8 1-2.1.1-3.8-1.3-3.8-3.5zm9.2-3.5h1.3l.1 1.6c.7-1.1 1.7-1.7 2.9-1.7.6 0 .9.1 1.3.3l-.3 1.4c-.5-.1-.7-.2-1.2-.2-.9 0-1.9.5-2.6 1.8v3.8h-1.6v-7zm10.8 1.3h-3v-1.3h4.6v6.9h-1.6zm-.5-3.6c0-.6.5-1.1 1.2-1.1s1.2.4 1.2 1.1-.5 1.1-1.2 1.1-1.2-.5-1.2-1.1zm5.9 2.3h1.3l.1.8c.6-.6 1.4-1 2.2-1 1.8 0 2.8 1.4 2.8 3.5 0 2.3-1.5 3.7-3.1 3.7-.6 0-1.3-.3-1.9-.8l.1 1.2v2.2h-1.6v-9.6zm4.8 3.4c0-1.4-.5-2.2-1.6-2.2-.5 0-1.1.2-1.6.8v3.1c.5.5 1.1.6 1.5.6.9 0 1.7-.8 1.7-2.3zm5.1.7v-2.8h-1.8v-1.2l1.9-.1.2-2.2h1.3v2.2h3.1v1.3h-3.1v2.8c0 1.1.4 1.6 1.6 1.6.6 0 1-.1 1.5-.3l.3 1.2c-.6.2-1.3.4-2.2.4-2.1.1-2.8-1.1-2.8-2.9z" fill="#1c272b"/><path d="m754.3 291h152.5v77h-152.5z" fill="#fff"/><path d="m784.7 308.6h1.7l1.3 4.6c.3 1 .5 1.9.8 3h.1c.3-1 .5-1.9.8-3l1.3-4.6h1.7l-2.8 9.2h-1.9zm8.9 5.7c0-2.2 1.7-3.6 3.5-3.6 2.1 0 3.2 1.4 3.2 3.3 0 .3 0 .6-.1.8h-5.5v-1.1h4.5l-.3.4c0-1.4-.6-2-1.7-2s-2 .8-2 2.4 1 2.4 2.4 2.4c.7 0 1.3-.2 1.9-.6l.6 1c-.7.5-1.7.8-2.7.8-2.1-.1-3.8-1.5-3.8-3.8zm9.4-3.4h1.3l.1 1.6c.7-1.1 1.7-1.7 2.9-1.7.6 0 .9.1 1.3.3l-.3 1.4c-.5-.1-.7-.2-1.2-.2-.9 0-1.9.5-2.6 1.8v3.8h-1.5zm10.7 1.3h-3v-1.3h4.6v6.9h-1.6zm-.4-3.6c0-.6.5-1.1 1.2-1.1s1.2.4 1.2 1.1-.5 1.1-1.2 1.1-1.2-.5-1.2-1.1zm5.9 2.4 1.9-.1h4.2v1.3h-6.1zm1.9-.5c0-1.6.9-2.8 2.9-2.8.7 0 1.4.2 2 .4l-.3 1.2c-.5-.2-1-.3-1.5-.3-1 0-1.5.5-1.5 1.5v7.3h-1.6zm6.2 10 .3-1.3c.2.1.4.1.6.1.9 0 1.4-.5 1.7-1.2l.2-.4-3.1-6.8h1.6l1.4 3.4c.3.6.5 1.3.8 2h.1c.2-.7.5-1.4.7-2l1.2-3.4h1.5l-2.9 7.2c-.6 1.5-1.4 2.5-3.1 2.5-.4 0-.7 0-1-.1zm18.5-5.5v-2.8h-1.8v-1.2l1.9-.1.2-2.2h1.3v2.2h3.1v1.3h-3.1v2.8c0 1.1.4 1.6 1.6 1.6.6 0 1-.1 1.5-.3l.3 1.2c-.6.2-1.3.4-2.2.4-2.1.1-2.8-1.1-2.8-2.9zm6.6-.7c0-2.2 1.7-3.6 3.5-3.6 2.1 0 3.2 1.4 3.2 3.3 0 .3 0 .6-.1.8h-5.5v-1.1h4.5l-.3.4c0-1.4-.6-2-1.7-2s-2 .8-2 2.4 1 2.4 2.4 2.4c.7 0 1.3-.2 1.9-.6l.6 1c-.7.5-1.7.8-2.7.8-2.1-.1-3.8-1.5-3.8-3.8zm8.4 2.6.7-1c.8.5 1.8.9 2.9.9 1 0 1.4-.4 1.4-.8 0-.5-.3-.7-1.9-1-1.8-.4-2.7-1-2.7-2.1 0-1.2 1.1-2.1 3-2.1 1.1 0 2.2.4 2.9.9l-.7 1c-.7-.4-1.5-.7-2.3-.7-.9 0-1.3.3-1.3.8s.5.7 1.8.9c2.2.5 2.8 1.1 2.8 2.2 0 1.2-1.1 2.1-3.2 2.1-1.3 0-2.5-.5-3.4-1.1zm10.2-1.9v-2.8h-1.8v-1.2l1.9-.1.2-2.2h1.3v2.2h3.1v1.3h-3.1v2.8c0 1.1.4 1.6 1.6 1.6.6 0 1-.1 1.5-.3l.3 1.2c-.6.2-1.3.4-2.2.4-2.1.1-2.8-1.1-2.8-2.9zm-80.6 12.7h1.3l.1 1.6c.7-1.1 1.7-1.7 2.9-1.7.6 0 .9.1 1.3.3l-.3 1.4c-.5-.1-.7-.2-1.2-.2-.9 0-1.9.5-2.6 1.8v3.8h-1.6v-7zm7.4 3.4c0-2.2 1.7-3.6 3.5-3.6 2.1 0 3.2 1.4 3.2 3.3 0 .3 0 .6-.1.8h-5.4v-1.1h4.5l-.3.4c0-1.4-.6-2-1.7-2s-2 .8-2 2.4 1 2.4 2.4 2.4c.7 0 1.3-.2 1.9-.6l.6 1c-.7.5-1.7.8-2.7.8-2.2-.1-3.9-1.5-3.9-3.8zm8.4 2.6.7-1c.8.5 1.8.9 2.9.9 1 0 1.4-.4 1.4-.8 0-.5-.3-.7-1.9-1-1.8-.4-2.7-1-2.7-2.1 0-1.2 1.1-2.1 3-2.1 1.1 0 2.2.4 2.9.9l-.7 1c-.7-.4-1.5-.7-2.3-.7-.9 0-1.3.3-1.3.8s.5.7 1.8.9c2.2.5 2.8 1.1 2.8 2.2 0 1.2-1.1 2.1-3.2 2.1-1.3 0-2.5-.5-3.4-1.1zm8.5-1.7v-4.3h1.6v4.1c0 1.1.3 1.6 1.3 1.6.6 0 1.1-.3 1.7-1v-4.6h1.6v6.9h-1.3l-.1-1.1h-.1c-.7.8-1.4 1.3-2.4 1.3-1.6-.1-2.3-1.1-2.3-2.9zm10.6.1v-6.1h-2.3v-1.3h3.9v7.5c0 .9.5 1.3 1.2 1.3.4 0 .7-.1 1.2-.3l.4 1.2c-.7.3-1.1.4-2 .4-1.5 0-2.4-1-2.4-2.7zm7.9-.3v-2.8h-1.8v-1.2l1.9-.1.2-2.2h1.3v2.2h3.1v1.3h-3.1v2.8c0 1.1.4 1.6 1.6 1.6.6 0 1-.1 1.5-.3l.3 1.2c-.6.2-1.3.4-2.2.4-2.1.1-2.8-1.1-2.8-2.9zm6.6 1.9.7-1c.8.5 1.8.9 2.9.9 1 0 1.4-.4 1.4-.8 0-.5-.3-.7-1.9-1-1.8-.4-2.7-1-2.7-2.1 0-1.2 1.1-2.1 3-2.1 1.1 0 2.2.4 2.9.9l-.7 1c-.7-.4-1.5-.7-2.3-.7-.9 0-1.3.3-1.3.8s.5.7 1.8.9c2.2.5 2.8 1.1 2.8 2.2 0 1.2-1.1 2.1-3.2 2.1-1.3 0-2.5-.5-3.4-1.1zm20.1-4.7h-3v-1.3h4.6v6.9h-1.6zm-.4-3.6c0-.6.5-1.1 1.2-1.1s1.2.4 1.2 1.1-.5 1.1-1.2 1.1c-.8 0-1.2-.5-1.2-1.1zm5.8 2.3h1.3l.1 1h.1c.7-.7 1.4-1.2 2.5-1.2 1.6 0 2.3 1 2.3 2.8v4.3h-1.6v-4.1c0-1.1-.4-1.6-1.3-1.6-.7 0-1.1.3-1.8 1v4.7h-1.6zm-105.3 19.1c0-3 1.8-4.8 4.2-4.8 1.1 0 2 .5 2.6 1.1l-.9 1c-.5-.5-1-.7-1.7-.7-1.5 0-2.6 1.3-2.6 3.3 0 2.1 1 3.4 2.6 3.4.7 0 1.3-.3 1.8-.9l.9 1c-.7.9-1.7 1.3-2.9 1.3-2.2.1-4-1.6-4-4.7zm8.3 1.2c0-2.3 1.6-3.6 3.5-3.6s3.5 1.3 3.5 3.6-1.6 3.6-3.5 3.6-3.5-1.4-3.5-3.6zm5.2 0c0-1.4-.7-2.3-1.8-2.3s-1.8.9-1.8 2.3.7 2.3 1.8 2.3 1.8-1 1.8-2.3zm5.6.9v-6.1h-2.3v-1.3h3.9v7.5c0 .9.5 1.3 1.2 1.3.4 0 .7-.1 1.2-.3l.4 1.2c-.7.3-1.1.4-1.9.4-1.6 0-2.5-1-2.5-2.7zm8.4 0v-6.1h-2.3v-1.3h3.9v7.5c0 .9.5 1.3 1.2 1.3.4 0 .7-.1 1.2-.3l.4 1.2c-.7.3-1.1.4-1.9.4-1.6 0-2.5-1-2.5-2.7zm6.1-1c0-2.2 1.7-3.6 3.5-3.6 2.1 0 3.2 1.4 3.2 3.3 0 .3 0 .6-.1.8h-5.5v-1.1h4.5l-.3.4c0-1.4-.6-2-1.7-2s-2 .8-2 2.4 1 2.4 2.4 2.4c.7 0 1.3-.2 1.9-.6l.6 1c-.7.5-1.7.8-2.7.8-2.1-.1-3.8-1.5-3.8-3.8zm8.6.1c0-2.3 1.8-3.6 3.9-3.6 1.1 0 2 .4 2.5 1l-.8 1c-.5-.4-1.1-.7-1.7-.7-1.4 0-2.3.9-2.3 2.3s.9 2.3 2.3 2.3c.8 0 1.4-.3 2-.8l.7 1c-.8.7-1.8 1-2.8 1-2.2.1-3.8-1.3-3.8-3.5zm10 .6v-2.8h-1.8v-1.2l1.9-.1.2-2.2h1.3v2.2h3.1v1.3h-3.1v2.8c0 1.1.4 1.6 1.6 1.6.6 0 1-.1 1.5-.3l.3 1.2c-.6.2-1.3.4-2.2.4-2.1.1-2.8-1.1-2.8-2.9zm9.9-2.8h-3v-1.3h4.6v6.9h-1.6zm-.4-3.6c0-.6.5-1.1 1.2-1.1s1.2.4 1.2 1.1-.5 1.1-1.2 1.1-1.2-.5-1.2-1.1zm5.4 5.8c0-2.3 1.6-3.6 3.5-3.6 1.8 0 3.5 1.3 3.5 3.6s-1.6 3.6-3.5 3.6-3.5-1.4-3.5-3.6zm5.2 0c0-1.4-.7-2.3-1.8-2.3s-1.8.9-1.8 2.3.7 2.3 1.8 2.3c1.2-.1 1.8-1 1.8-2.3zm3.6-3.5h1.3l.1 1h.1c.7-.7 1.4-1.2 2.5-1.2 1.6 0 2.3 1 2.3 2.8v4.3h-1.6v-4c0-1.1-.4-1.6-1.3-1.6-.7 0-1.1.3-1.8 1v4.7h-1.6zm16.8-2.3h3.1c1.9 0 3.4.7 3.4 2.7s-1.5 2.9-3.4 2.9h-1.4v3.6h-1.6v-9.2zm2.9 4.3c1.3 0 1.9-.5 1.9-1.6 0-1-.7-1.4-1.9-1.4h-1.3v3zm1.1-.1 2.9 5h-1.8l-2.2-4zm4.2 2.4v-4.3h1.6v4.1c0 1.1.3 1.6 1.3 1.6.6 0 1.1-.3 1.7-1v-4.6h1.6v6.9h-1.3l-.1-1.1h-.1c-.7.8-1.4 1.3-2.4 1.3-1.6-.1-2.3-1.1-2.3-2.9zm8.6-4.3h1.3l.1 1h.1c.7-.7 1.4-1.2 2.5-1.2 1.6 0 2.3 1 2.3 2.8v4.3h-1.6v-4c0-1.1-.4-1.6-1.3-1.6-.7 0-1.1.3-1.8 1v4.7h-1.6zm8.4 0h1.3l.1 1h.1c.7-.7 1.4-1.2 2.5-1.2 1.6 0 2.3 1 2.3 2.8v4.3h-1.6v-4c0-1.1-.4-1.6-1.3-1.6-.7 0-1.1.3-1.8 1v4.7h-1.6zm8.1 3.4c0-2.2 1.7-3.6 3.5-3.6 2.1 0 3.2 1.4 3.2 3.3 0 .3 0 .6-.1.8h-5.5v-1.1h4.5l-.3.4c0-1.4-.6-2-1.7-2s-2 .8-2 2.4 1 2.4 2.4 2.4c.7 0 1.3-.2 1.9-.6l.6 1c-.7.5-1.7.8-2.7.8-2.1-.1-3.8-1.5-3.8-3.8zm9.4-3.4h1.3l.1 1.6c.7-1.1 1.7-1.7 2.9-1.7.6 0 .9.1 1.3.3l-.3 1.4c-.5-.1-.7-.2-1.2-.2-.9 0-1.9.5-2.6 1.8v3.8h-1.6v-7z" fill="#1c272b"/><path d="m429.2 289.2h152.5v3.5h-152.5z" fill="#f26c3d"/><path d="m591.7 289.2h152.5v3.5h-152.5z" fill="#f26c3d"/><path d="m754.3 289.2h152.5v3.5h-152.5z" fill="#f26c3d"/><path d="m611.4 271h1.2c.6 0 1-.2 1.4-.5s.5-.7.5-1.3c0-.5-.1-1-.4-1.3s-.7-.4-1.3-.4c-.5 0-.9.1-1.3.4s-.5.7-.5 1.2h-1.9c0-.6.2-1.1.5-1.6s.7-.9 1.3-1.1 1.2-.4 1.9-.4c1.1 0 2 .3 2.7.9s1 1.4 1 2.4c0 .5-.2 1-.5 1.4s-.7.8-1.3 1c.6.2 1.1.5 1.4 1s.5 1 .5 1.6c0 1-.4 1.8-1.1 2.4s-1.6.9-2.8.9c-1.1 0-2-.3-2.7-.9s-1-1.4-1-2.3h1.9c0 .5.2.9.5 1.2s.8.5 1.4.5 1.1-.2 1.4-.5.5-.8.5-1.4-.2-1.1-.5-1.4-.9-.5-1.6-.5h-1.1v-1.3zm8.2 4.5c.4 0 .6.1.8.3s.3.5.3.8-.1.5-.3.7-.5.3-.8.3-.6-.1-.8-.3-.3-.4-.3-.7.1-.6.3-.8.4-.3.8-.3zm15.2-7.8h-3.5v9.8h-2v-9.8h-3.5v-1.6h9zm4.3 10c-1.2 0-2.2-.4-2.9-1.1s-1.1-1.8-1.1-3v-.2c0-.8.2-1.6.5-2.3s.8-1.2 1.4-1.6 1.2-.6 2-.6c1.2 0 2 .4 2.7 1.1s.9 1.8.9 3.1v.8h-5.6c.1.7.3 1.2.7 1.7s.9.6 1.5.6c.9 0 1.6-.4 2.1-1.1l1 1c-.3.5-.8.9-1.4 1.2s-1.1.4-1.8.4zm-.2-7.3c-.5 0-.9.2-1.3.5s-.5.9-.6 1.5h3.6v-.1c0-.6-.2-1.1-.5-1.4s-.7-.5-1.2-.5zm9.8 4.8c0-.3-.1-.6-.4-.8s-.7-.3-1.4-.5-1.2-.3-1.6-.5c-.9-.5-1.4-1.1-1.4-2 0-.7.3-1.3.9-1.8s1.4-.7 2.3-.7c1 0 1.8.2 2.4.8s.9 1.1.9 1.9h-1.9c0-.4-.1-.7-.4-.9s-.6-.4-1.1-.4c-.4 0-.8.1-1 .3s-.4.5-.4.8.1.5.4.7.7.3 1.5.5 1.3.4 1.8.6.7.5.9.8.3.7.3 1.2c0 .8-.3 1.4-.9 1.8s-1.5.7-2.5.7c-.7 0-1.3-.1-1.9-.4s-1-.6-1.3-1-.5-.9-.5-1.4h1.8c0 .4.2.8.5 1s.7.4 1.2.4.9-.1 1.1-.3.7-.5.7-.8zm5.9-8.2v2.1h1.5v1.4h-1.5v4.7c0 .3.1.6.2.7s.4.2.7.2c.2 0 .4 0 .7-.1v1.5c-.4.1-.8.2-1.2.2-1.5 0-2.2-.8-2.2-2.4v-4.8h-1.4v-1.4h1.4v-2.1zm3-.1c0-.3.1-.5.3-.7s.4-.3.8-.3.6.1.8.3.3.4.3.7-.1.5-.3.7-.5.3-.8.3-.6-.1-.8-.3-.3-.4-.3-.7zm2 10.6h-1.9v-8.5h1.9zm3.8-8.4.1 1c.6-.8 1.4-1.1 2.5-1.1 1.8 0 2.7 1 2.7 3v5.6h-1.9v-5.6c0-.5-.1-.9-.3-1.2s-.6-.4-1.1-.4c-.8 0-1.3.3-1.7 1v6h-1.9v-8.5h1.6zm6.8 4.1c0-1.3.3-2.4.9-3.1s1.4-1.2 2.5-1.2c1 0 1.7.3 2.3 1l.1-.9h1.7v8.2c0 1.1-.3 2-1 2.6s-1.6 1-2.8 1c-.6 0-1.2-.1-1.8-.4s-1-.6-1.3-1l.9-1.1c.6.7 1.3 1 2.2 1 .6 0 1.1-.2 1.5-.5s.5-.8.5-1.5v-.6c-.5.6-1.3.9-2.2.9-1 0-1.8-.4-2.4-1.2-.8-.7-1.1-1.8-1.1-3.2zm1.9.2c0 .8.2 1.5.5 2s.8.7 1.4.7c.8 0 1.3-.3 1.7-1v-3.7c-.4-.6-.9-1-1.7-1-.6 0-1.1.2-1.5.7-.2.6-.4 1.3-.4 2.3zm13.7-.1v4.2h-2v-11.4h4.4c1.3 0 2.3.3 3 1s1.1 1.5 1.1 2.6-.4 2-1.1 2.6-1.8.9-3.1.9h-2.3zm0-1.6h2.4c.7 0 1.2-.2 1.6-.5s.6-.8.6-1.4-.2-1.1-.6-1.5-.9-.6-1.5-.6h-2.4v4zm9.9-1.7c.6-.7 1.4-1.1 2.4-1.1 1.8 0 2.7 1 2.7 3.1v5.5h-1.9v-5.5c0-.6-.1-1-.4-1.2s-.6-.4-1.1-.4c-.8 0-1.3.3-1.7 1v6h-1.9v-12h1.9zm12.1 7.5c-.1-.2-.2-.4-.2-.8-.6.6-1.3.9-2.2.9-.8 0-1.5-.2-2.1-.7-.5-.5-.8-1.1-.8-1.8 0-.9.3-1.6 1-2.1s1.6-.7 2.9-.7h1.2v-.6c0-.4-.1-.8-.4-1.1-.2-.3-.6-.4-1.1-.4-.4 0-.8.1-1.1.3s-.4.5-.4.8h-1.9c0-.5.2-.9.5-1.3s.7-.7 1.3-.9c.5-.2 1.1-.3 1.8-.3 1 0 1.8.2 2.4.7s.9 1.2.9 2.1v3.8c0 .8.1 1.4.3 1.8v.1h-2.1zm-2.1-1.4c.4 0 .7-.1 1.1-.3.3-.2.6-.4.7-.7v-1.6h-1c-.7 0-1.2.1-1.6.4-.4.2-.5.6-.5 1s.1.7.4.9.5.3.9.3zm10.4-.9c0-.3-.1-.6-.4-.8s-.7-.3-1.4-.5c-.6-.1-1.2-.3-1.6-.5-.9-.5-1.4-1.1-1.4-2 0-.7.3-1.3.9-1.8s1.4-.7 2.3-.7c1 0 1.8.2 2.4.8.6.5.9 1.1.9 1.9h-1.8c0-.4-.1-.7-.4-.9s-.6-.4-1.1-.4c-.4 0-.8.1-1 .3-.3.2-.4.5-.4.8s.1.5.4.7c.2.2.7.3 1.5.5.7.2 1.3.4 1.8.6.4.2.7.5.9.8s.3.7.3 1.2c0 .8-.3 1.4-.9 1.8-.6.5-1.5.7-2.5.7-.7 0-1.3-.1-1.9-.4-.5-.2-1-.6-1.3-1s-.5-.9-.5-1.4h1.8c0 .4.2.8.5 1s.7.4 1.2.4.9-.1 1.1-.3c.5-.2.6-.5.6-.8zm7.2 2.5c-1.2 0-2.2-.4-2.9-1.1-.7-.8-1.1-1.8-1.1-3v-.2c0-.8.2-1.6.5-2.3s.8-1.2 1.4-1.6 1.2-.6 2-.6c1.2 0 2 .4 2.7 1.1.6.7.9 1.8.9 3.1v.8h-5.5c.1.7.3 1.2.7 1.7.4.4.9.6 1.5.6.9 0 1.6-.4 2.1-1.1l1 1c-.3.5-.8.9-1.4 1.2-.5.2-1.2.4-1.9.4zm-.2-7.3c-.5 0-.9.2-1.3.5s-.5.9-.6 1.5h3.6v-.1c0-.6-.2-1.1-.5-1.4s-.7-.5-1.2-.5z" fill="#1c272b"/><path d="m507.9 219.2c-10.1-17.2-7.3-39.1 6.8-53.2l2.1 2.1c-13.2 13.2-15.8 33.6-6.4 49.6z" fill="#fff"/><path d="m502 221 13.8 6-1.8-14.9z" fill="#fff"/><path d="m821.3 228-2.1-2.1c13.2-13.2 15.8-33.6 6.4-49.6l2.6-1.5c10 17.2 7.2 39.1-6.9 53.2z" fill="#fff"/><path d="m834 173-13.8-6 1.8 14.9z" fill="#fff"/><path d="m543.2 177h2.2v-6.4h-2.2v-1.4h6v1.4h-2.2v6.4h2.2v1.4h-6zm8.4-5.5h1.3l.1 1h.1c.7-.7 1.4-1.2 2.5-1.2 1.6 0 2.3 1 2.3 2.8v4.3h-1.6v-4.1c0-1.1-.4-1.6-1.3-1.6-.7 0-1.1.3-1.8 1v4.7h-1.6zm7.8 0h1.6l1.3 3.6c.2.7.5 1.4.7 2.1h.1c.2-.7.4-1.4.7-2.1l1.3-3.6h1.6l-2.7 6.9h-1.8zm12 1.3h-3v-1.3h4.6v6.9h-1.6zm-.5-3.6c0-.6.5-1.1 1.2-1.1s1.2.4 1.2 1.1-.5 1.1-1.2 1.1-1.2-.5-1.2-1.1zm7.4 6.4v-2.8h-1.8v-1.2l1.9-.1.2-2.2h1.3v2.2h3.1v1.3h-3.1v2.8c0 1.1.4 1.6 1.6 1.6.6 0 1-.1 1.5-.3l.3 1.2c-.6.2-1.3.4-2.2.4-2.1.1-2.8-1.1-2.8-2.9zm6.6-.7c0-2.2 1.7-3.6 3.5-3.6 2.1 0 3.2 1.4 3.2 3.3 0 .3 0 .6-.1.8h-5.5v-1.1h4.5l-.3.4c0-1.4-.6-2-1.7-2s-2 .8-2 2.4 1 2.4 2.4 2.4c.7 0 1.3-.2 1.9-.6l.6 1c-.7.5-1.7.8-2.7.8-2.2-.1-3.8-1.5-3.8-3.8zm18.6.7v-2.8h-1.8v-1.2l1.9-.1.2-2.2h1.3v2.2h3.1v1.3h-3.1v2.8c0 1.1.4 1.6 1.6 1.6.6 0 1-.1 1.5-.3l.3 1.2c-.6.2-1.3.4-2.2.4-2.1.1-2.8-1.1-2.8-2.9zm6.6-.7c0-2.2 1.7-3.6 3.5-3.6 2.1 0 3.2 1.4 3.2 3.3 0 .3 0 .6-.1.8h-5.5v-1.1h4.5l-.3.4c0-1.4-.6-2-1.7-2s-2 .8-2 2.4 1 2.4 2.4 2.4c.7 0 1.3-.2 1.9-.6l.6 1c-.7.5-1.7.8-2.7.8-2.2-.1-3.8-1.5-3.8-3.8zm8.5 1.6c0-1.5 1.4-2.3 4.8-2.5-.1-.8-.5-1.3-1.6-1.3-.8 0-1.5.3-2.2.7l-.6-1.1c.8-.5 2-1 3.1-1 1.9 0 3 1.1 3 3v4.1h-1.3l-.1-.9c-.7.6-1.6 1-2.6 1-1.5.1-2.5-.8-2.5-2zm4.7-.1v-1.4c-2.5.2-3.2.7-3.2 1.4 0 .6.5.9 1.2.9.8 0 1.4-.3 2-.9zm3.3-4.9h1.2l.1.9c.3-.6.7-1 1.5-1 .6 0 1.1.4 1.2 1.2.3-.7.8-1.2 1.6-1.2 1 0 1.5.8 1.5 2.2v4.9h-1.6v-4.8c0-.6-.2-.9-.5-.9-.4 0-.6.3-.9.9v4.8h-1.3v-4.8c0-.6-.2-.9-.5-.9-.4 0-.6.3-.9.9v4.8h-1.6v-7zm8.4 0h1.2l.1.9c.3-.6.7-1 1.5-1 .6 0 1.1.4 1.2 1.2.3-.7.8-1.2 1.6-1.2 1 0 1.5.8 1.5 2.2v4.9h-1.6v-4.8c0-.6-.2-.9-.5-.9-.4 0-.6.3-.9.9v4.8h-1.1v-4.8c0-.6-.2-.9-.5-.9-.4 0-.6.3-.9.9v4.8h-1.6zm8.8 5c0-1.5 1.4-2.3 4.8-2.5-.1-.8-.5-1.3-1.6-1.3-.8 0-1.5.3-2.2.7l-.6-1.1c.8-.5 2-1 3.1-1 1.9 0 3 1.1 3 3v4.1h-1.3l-.1-.9c-.7.6-1.6 1-2.6 1-1.5.1-2.5-.8-2.5-2zm4.7-.1v-1.4c-2.5.2-3.2.7-3.2 1.4 0 .6.5.9 1.2.9.8 0 1.4-.3 2-.9zm5.4-.8v-2.8h-1.9v-1.2l1.9-.1.2-2.2h1.3v2.2h3.1v1.3h-3.1v2.8c0 1.1.4 1.6 1.6 1.6.6 0 1-.1 1.5-.3l.3 1.2c-.6.2-1.3.4-2.2.4-2 .1-2.7-1.1-2.7-2.9zm6.6-.7c0-2.2 1.7-3.6 3.5-3.6 2.1 0 3.2 1.4 3.2 3.3 0 .3 0 .6-.1.8h-5.5v-1.1h4.5l-.3.4c0-1.4-.6-2-1.7-2s-2 .8-2 2.4 1 2.4 2.4 2.4c.7 0 1.3-.2 1.9-.6l.6 1c-.7.5-1.7.8-2.7.8-2.2-.1-3.8-1.5-3.8-3.8zm8.4 2.6.7-1c.8.5 1.8.9 2.9.9 1 0 1.4-.4 1.4-.8 0-.5-.3-.7-1.9-1-1.8-.4-2.7-1-2.7-2.1 0-1.2 1.1-2.1 3-2.1 1.1 0 2.2.4 2.9.9l-.7 1c-.7-.4-1.5-.7-2.3-.7-.9 0-1.3.3-1.3.8s.5.7 1.8.9c2.2.5 2.8 1.1 2.8 2.2 0 1.2-1.1 2.1-3.2 2.1-1.3 0-2.6-.5-3.4-1.1zm18.6-1.9v-2.8h-1.8v-1.2l1.9-.1.2-2.2h1.3v2.2h3.1v1.3h-3.1v2.8c0 1.1.4 1.6 1.6 1.6.6 0 1-.1 1.5-.3l.3 1.2c-.6.2-1.3.4-2.2.4-2.1.1-2.8-1.1-2.8-2.9zm6.4-.6c0-2.3 1.6-3.6 3.5-3.6s3.5 1.3 3.5 3.6-1.6 3.6-3.5 3.6-3.5-1.4-3.5-3.6zm5.3 0c0-1.4-.7-2.3-1.8-2.3s-1.8.9-1.8 2.3.7 2.3 1.8 2.3 1.8-1 1.8-2.3zm10.9-3.5h1.6l.6 3.6c.1.7.2 1.3.3 2h.1c.1-.7.2-1.3.4-2l.6-2.9h1.3l.6 2.9c.1.7.3 1.3.4 2h.1c.1-.7.2-1.3.3-2l.6-3.6h1.5l-1.3 6.9h-2l-.6-2.7c-.1-.5-.2-1.2-.3-2h-.1c-.1.7-.2 1.4-.3 2l-.6 2.7h-1.9zm9 3.5c0-2.3 1.6-3.6 3.5-3.6 1.8 0 3.5 1.3 3.5 3.6s-1.6 3.6-3.5 3.6c-1.8 0-3.5-1.4-3.5-3.6zm5.3 0c0-1.4-.7-2.3-1.8-2.3s-1.8.9-1.8 2.3.7 2.3 1.8 2.3c1.1-.1 1.8-1 1.8-2.3zm4.2-3.5h1.3l.1 1.6c.7-1.1 1.7-1.7 2.9-1.7.6 0 .9.1 1.3.3l-.3 1.4c-.5-.1-.7-.2-1.2-.2-.9 0-1.9.5-2.6 1.8v3.8h-1.6v-7zm7.9-3h1.6v6.2h.1l3.1-3.2h1.8l-5 5.1v1.8h-1.6zm2.7 6.5.9-1 3.2 4.4h-1.8zm5.3 2.5.7-1c.8.5 1.8.9 2.9.9 1 0 1.4-.4 1.4-.8 0-.5-.3-.7-1.9-1-1.8-.4-2.7-1-2.7-2.1 0-1.2 1.1-2.1 3-2.1 1.1 0 2.2.4 2.9.9l-.7 1c-.7-.4-1.5-.7-2.3-.7-.9 0-1.3.3-1.3.8s.5.7 1.8.9c2.2.5 2.8 1.1 2.8 2.2 0 1.2-1.1 2.1-3.2 2.1-1.3 0-2.6-.5-3.4-1.1zm8.7-6h1.3l.1.8c.6-.6 1.4-1 2.2-1 1.8 0 2.8 1.4 2.8 3.5 0 2.3-1.5 3.7-3.1 3.7-.6 0-1.3-.3-1.9-.8l.1 1.2v2.2h-1.6v-9.6zm4.8 3.4c0-1.4-.5-2.2-1.6-2.2-.5 0-1.1.2-1.6.8v3.1c.5.5 1.1.6 1.5.6.9 0 1.7-.8 1.7-2.3zm3.4 1.6c0-1.5 1.4-2.3 4.8-2.5-.1-.8-.5-1.3-1.6-1.3-.8 0-1.5.3-2.2.7l-.6-1.1c.8-.5 2-1 3.1-1 1.9 0 3 1.1 3 3v4.1h-1.3l-.1-.9c-.7.6-1.6 1-2.6 1-1.6.1-2.5-.8-2.5-2zm4.7-.1v-1.4c-2.5.2-3.2.7-3.2 1.4 0 .6.5.9 1.2.9.8 0 1.4-.3 2-.9zm3.7-1.4c0-2.3 1.8-3.6 3.9-3.6 1.1 0 2 .4 2.5 1l-.8 1c-.5-.4-1.1-.7-1.7-.7-1.4 0-2.3.9-2.3 2.3s.9 2.3 2.3 2.3c.8 0 1.4-.3 2-.8l.7 1c-.8.7-1.8 1-2.8 1-2.1.1-3.8-1.3-3.8-3.5zm8.3-.1c0-2.2 1.7-3.6 3.5-3.6 2.1 0 3.2 1.4 3.2 3.3 0 .3 0 .6-.1.8h-5.5v-1.1h4.5l-.3.4c0-1.4-.6-2-1.7-2s-2 .8-2 2.4 1 2.4 2.4 2.4c.7 0 1.3-.2 1.9-.6l.6 1c-.7.5-1.7.8-2.7.8-2.2-.1-3.8-1.5-3.8-3.8zm8.4 2.6.7-1c.8.5 1.8.9 2.9.9 1 0 1.4-.4 1.4-.8 0-.5-.3-.7-1.9-1-1.8-.4-2.7-1-2.7-2.1 0-1.2 1.1-2.1 3-2.1 1.1 0 2.2.4 2.9.9l-.7 1c-.7-.4-1.5-.7-2.3-.7-.9 0-1.3.3-1.3.8s.5.7 1.8.9c2.2.5 2.8 1.1 2.8 2.2 0 1.2-1.1 2.1-3.2 2.1-1.3 0-2.6-.5-3.4-1.1zm-246 18.1v-2.8h-1.8v-1.2l1.9-.1.2-2.2h1.3v2.2h3.1v1.3h-3.1v2.8c0 1.1.4 1.6 1.6 1.6.6 0 1-.1 1.5-.3l.3 1.2c-.6.2-1.3.4-2.2.4-2.1.1-2.8-1.1-2.8-2.9zm6.4-.6c0-2.3 1.6-3.6 3.5-3.6s3.5 1.3 3.5 3.6-1.6 3.6-3.5 3.6-3.5-1.4-3.5-3.6zm5.3 0c0-1.4-.7-2.3-1.8-2.3s-1.8.9-1.8 2.3.7 2.3 1.8 2.3c1.1-.1 1.8-1 1.8-2.3zm11.7 2.5.7-1c.8.5 1.8.9 2.9.9 1 0 1.4-.4 1.4-.8 0-.5-.3-.7-1.9-1-1.8-.4-2.7-1-2.7-2.1 0-1.2 1.1-2.1 3-2.1 1.1 0 2.2.4 2.9.9l-.7 1c-.7-.4-1.5-.7-2.3-.7-.9 0-1.3.3-1.3.8s.5.7 1.8.9c2.2.5 2.8 1.1 2.8 2.2 0 1.2-1.1 2.1-3.2 2.1-1.3 0-2.6-.5-3.4-1.1zm8.7-9h1.6v2.6l-.1 1.5c.6-.6 1.4-1.2 2.4-1.2 1.6 0 2.3 1 2.3 2.8v4.3h-1.6v-4.1c0-1.1-.4-1.6-1.3-1.6-.7 0-1.1.3-1.8 1v4.7h-1.6v-10zm8.2 8c0-1.5 1.4-2.3 4.8-2.5-.1-.8-.5-1.3-1.6-1.3-.8 0-1.5.3-2.2.7l-.6-1.1c.8-.5 2-1 3.1-1 1.9 0 3 1.1 3 3v4.1h-1.3l-.1-.9c-.7.6-1.6 1-2.6 1-1.5.1-2.5-.8-2.5-2zm4.7-.1v-1.4c-2.5.2-3.2.7-3.2 1.4 0 .6.5.9 1.2.9.8 0 1.4-.3 2-.9zm4.5-4.9h1.3l.1 1.6c.7-1.1 1.7-1.7 2.9-1.7.6 0 .9.1 1.3.3l-.3 1.4c-.5-.1-.7-.2-1.2-.2-.9 0-1.9.5-2.6 1.8v3.8h-1.5zm7.5 3.4c0-2.2 1.7-3.6 3.5-3.6 2.1 0 3.2 1.4 3.2 3.3 0 .3 0 .6-.1.8h-5.5v-1.1h4.5l-.3.4c0-1.4-.6-2-1.7-2s-2 .8-2 2.4 1 2.4 2.4 2.4c.7 0 1.3-.2 1.9-.6l.6 1c-.7.5-1.7.8-2.7.8-2.2-.1-3.8-1.5-3.8-3.8zm16.9.9v-4.3h1.6v4.1c0 1.1.3 1.6 1.3 1.6.6 0 1.1-.3 1.7-1v-4.6h1.6v6.9h-1.3l-.1-1.1h-.1c-.7.8-1.4 1.3-2.4 1.3-1.6-.1-2.3-1.2-2.3-2.9zm8.6-4.3h1.3l.1.8c.6-.6 1.4-1 2.2-1 1.8 0 2.8 1.4 2.8 3.5 0 2.3-1.5 3.7-3.1 3.7-.6 0-1.3-.3-1.9-.8l.1 1.2v2.2h-1.5zm4.8 3.4c0-1.4-.5-2.2-1.6-2.2-.5 0-1.1.2-1.6.8v3.1c.5.5 1.1.6 1.5.6.9 0 1.7-.8 1.7-2.3zm3.1.1c0-2.2 1.5-3.6 3-3.6.8 0 1.4.3 1.9.8l-.1-1.2v-2.5h1.6v9.9h-1.3l-.1-.8c-.5.5-1.3 1-2.1 1-1.7 0-2.9-1.4-2.9-3.6zm4.9 1.4v-3.1c-.5-.5-1-.6-1.5-.6-1 0-1.8.8-1.8 2.3s.6 2.3 1.7 2.3c.6-.1 1.2-.3 1.6-.9zm3.8.1c0-1.5 1.4-2.3 4.8-2.5-.1-.8-.5-1.3-1.6-1.3-.8 0-1.5.3-2.2.7l-.6-1.1c.8-.5 2-1 3.1-1 1.9 0 3 1.1 3 3v4.1h-1.3l-.1-.9c-.7.6-1.6 1-2.6 1-1.5.1-2.5-.8-2.5-2zm4.7-.1v-1.4c-2.5.2-3.2.7-3.2 1.4 0 .6.5.9 1.2.9.8 0 1.4-.3 2-.9zm5.4-.8v-2.8h-1.8v-1.2l1.9-.1.2-2.2h1.3v2.2h3.1v1.3h-3.1v2.8c0 1.1.4 1.6 1.6 1.6.6 0 1-.1 1.5-.3l.3 1.2c-.6.2-1.3.4-2.2.4-2.1.1-2.8-1.1-2.8-2.9zm6.6-.7c0-2.2 1.7-3.6 3.5-3.6 2.1 0 3.2 1.4 3.2 3.3 0 .3 0 .6-.1.8h-5.5v-1.1h4.5l-.3.4c0-1.4-.6-2-1.7-2s-2 .8-2 2.4 1 2.4 2.4 2.4c.7 0 1.3-.2 1.9-.6l.6 1c-.7.5-1.7.8-2.7.8-2.2-.1-3.8-1.5-3.8-3.8zm8.4 2.6.7-1c.8.5 1.8.9 2.9.9 1 0 1.4-.4 1.4-.8 0-.5-.3-.7-1.9-1-1.8-.4-2.7-1-2.7-2.1 0-1.2 1.1-2.1 3-2.1 1.1 0 2.2.4 2.9.9l-.7 1c-.7-.4-1.5-.7-2.3-.7-.9 0-1.3.3-1.3.8s.5.7 1.8.9c2.2.5 2.8 1.1 2.8 2.2 0 1.2-1.1 2.1-3.2 2.1-1.3 0-2.6-.5-3.4-1.1zm10.1 2.9c1.2-.5 1.8-1.2 1.8-2.2l-.2-1.5.8 1.3c-.2.2-.5.3-.9.3-.7 0-1.3-.4-1.3-1.2s.6-1.3 1.4-1.3c1 0 1.5.8 1.5 2.1 0 1.7-1 2.9-2.7 3.5zm16.9-4.8v-2.8h-1.8v-1.2l1.9-.1.2-2.2h1.3v2.2h3.1v1.3h-3.1v2.8c0 1.1.4 1.6 1.6 1.6.6 0 1-.1 1.5-.3l.3 1.2c-.6.2-1.3.4-2.2.4-2.1.1-2.8-1.1-2.8-2.9zm6.6-.7c0-2.2 1.7-3.6 3.5-3.6 2.1 0 3.2 1.4 3.2 3.3 0 .3 0 .6-.1.8h-5.5v-1.1h4.5l-.3.4c0-1.4-.6-2-1.7-2s-2 .8-2 2.4 1 2.4 2.4 2.4c.7 0 1.3-.2 1.9-.6l.6 1c-.7.5-1.7.8-2.7.8-2.2-.1-3.8-1.5-3.8-3.8zm8.4 2.6.7-1c.8.5 1.8.9 2.9.9 1 0 1.4-.4 1.4-.8 0-.5-.3-.7-1.9-1-1.8-.4-2.7-1-2.7-2.1 0-1.2 1.1-2.1 3-2.1 1.1 0 2.2.4 2.9.9l-.7 1c-.7-.4-1.5-.7-2.3-.7-.9 0-1.3.3-1.3.8s.5.7 1.8.9c2.2.5 2.8 1.1 2.8 2.2 0 1.2-1.1 2.1-3.2 2.1-1.3 0-2.6-.5-3.4-1.1zm10.2-1.9v-2.8h-1.9v-1.2l1.9-.1.2-2.2h1.3v2.2h3.1v1.3h-3.1v2.8c0 1.1.4 1.6 1.6 1.6.6 0 1-.1 1.5-.3l.3 1.2c-.6.2-1.3.4-2.2.4-2 .1-2.7-1.1-2.7-2.9zm15.9-4.1h1.3l.1 1.6c.7-1.1 1.7-1.7 2.9-1.7.6 0 .9.1 1.3.3l-.3 1.4c-.5-.1-.7-.2-1.2-.2-.9 0-1.9.5-2.6 1.8v3.8h-1.6v-7zm7.5 3.4c0-2.2 1.7-3.6 3.5-3.6 2.1 0 3.2 1.4 3.2 3.3 0 .3 0 .6-.1.8h-5.5v-1.1h4.5l-.3.4c0-1.4-.6-2-1.7-2s-2 .8-2 2.4 1 2.4 2.4 2.4c.7 0 1.3-.2 1.9-.6l.6 1c-.7.5-1.7.8-2.7.8-2.2-.1-3.8-1.5-3.8-3.8zm8.4 2.6.7-1c.8.5 1.8.9 2.9.9 1 0 1.4-.4 1.4-.8 0-.5-.3-.7-1.9-1-1.8-.4-2.7-1-2.7-2.1 0-1.2 1.1-2.1 3-2.1 1.1 0 2.2.4 2.9.9l-.7 1c-.7-.4-1.5-.7-2.3-.7-.9 0-1.3.3-1.3.8s.5.7 1.8.9c2.2.5 2.8 1.1 2.8 2.2 0 1.2-1.1 2.1-3.2 2.1-1.3 0-2.6-.5-3.4-1.1zm8.5-1.7v-4.3h1.6v4.1c0 1.1.3 1.6 1.3 1.6.6 0 1.1-.3 1.7-1v-4.6h1.6v6.9h-1.3l-.1-1.1h-.1c-.7.8-1.4 1.3-2.4 1.3-1.6-.1-2.3-1.2-2.3-2.9zm10.6.1v-6.1h-2.3v-1.3h3.9v7.5c0 .9.5 1.3 1.2 1.3.4 0 .7-.1 1.2-.3l.4 1.2c-.7.3-1.1.4-1.9.4-1.7 0-2.5-1-2.5-2.7zm7.9-.3v-2.8h-1.8v-1.2l1.9-.1.2-2.2h1.3v2.2h3.1v1.3h-3.1v2.8c0 1.1.4 1.6 1.6 1.6.6 0 1-.1 1.5-.3l.3 1.2c-.6.2-1.3.4-2.2.4-2.1.1-2.8-1.1-2.8-2.9zm6.6 1.9.7-1c.8.5 1.8.9 2.9.9 1 0 1.4-.4 1.4-.8 0-.5-.3-.7-1.9-1-1.8-.4-2.7-1-2.7-2.1 0-1.2 1.1-2.1 3-2.1 1.1 0 2.2.4 2.9.9l-.7 1c-.7-.4-1.5-.7-2.3-.7-.9 0-1.3.3-1.3.8s.5.7 1.8.9c2.2.5 2.8 1.1 2.8 2.2 0 1.2-1.1 2.1-3.2 2.1-1.3 0-2.6-.5-3.4-1.1zm10.1 2.9c1.2-.5 1.8-1.2 1.8-2.2l-.2-1.5.8 1.3c-.2.2-.5.3-.9.3-.7 0-1.3-.4-1.3-1.2s.6-1.3 1.4-1.3c1 0 1.5.8 1.5 2.1 0 1.7-1 2.9-2.7 3.5zm-228.4 16.1c0-1.5 1.4-2.3 4.8-2.5-.1-.8-.5-1.3-1.6-1.3-.8 0-1.5.3-2.2.7l-.6-1.1c.8-.5 2-1 3.1-1 1.9 0 3 1.1 3 3v4.1h-1.5l-.1-.9c-.7.6-1.6 1-2.6 1-1.3.1-2.3-.8-2.3-2zm4.7-.1v-1.4c-2.5.2-3.2.7-3.2 1.4 0 .6.5.9 1.2.9.8 0 1.4-.3 2-.9zm3.9-4.9h1.3l.1 1h.1c.7-.7 1.4-1.2 2.5-1.2 1.6 0 2.3 1 2.3 2.8v4.3h-1.6v-4c0-1.1-.4-1.6-1.3-1.6-.7 0-1.1.3-1.8 1v4.7h-1.6zm7.9 3.5c0-2.2 1.5-3.6 3-3.6.8 0 1.4.3 1.9.8l-.1-1.2v-2.5h1.6v9.9h-1.3l-.1-.8c-.5.5-1.3 1-2.1 1-1.7 0-2.9-1.4-2.9-3.6zm4.9 1.4v-3.1c-.5-.5-1-.6-1.5-.6-1 0-1.8.8-1.8 2.3s.6 2.3 1.7 2.3c.6-.1 1.2-.3 1.6-.9zm11.9-1.4c0-2.2 1.5-3.6 3-3.6.8 0 1.4.3 1.9.8l-.1-1.2v-2.5h1.6v9.9h-1.3l-.1-.8c-.5.5-1.3 1-2.1 1-1.7 0-2.9-1.4-2.9-3.6zm4.9 1.4v-3.1c-.5-.5-1-.6-1.5-.6-1 0-1.8.8-1.8 2.3s.6 2.3 1.7 2.3c.6-.1 1.2-.3 1.6-.9zm3.7-1.5c0-2.2 1.7-3.6 3.5-3.6 2.1 0 3.2 1.4 3.2 3.3 0 .3 0 .6-.1.8h-5.5v-1.1h4.5l-.3.4c0-1.4-.6-2-1.7-2s-2 .8-2 2.4 1 2.4 2.4 2.4c.7 0 1.3-.2 1.9-.6l.6 1c-.7.5-1.7.8-2.7.8-2.2-.1-3.8-1.5-3.8-3.8zm10.1 2.7-.2.8h-1.3v-9.9h1.6v2.6l-.1 1.2c.6-.6 1.4-.9 2.1-.9 1.8 0 2.8 1.4 2.8 3.5 0 2.4-1.5 3.7-3 3.7-.5 0-1.3-.4-1.9-1zm3.4-2.7c0-1.4-.5-2.2-1.6-2.2-.5 0-1.1.2-1.6.8v3.1c.5.5 1.1.6 1.5.6.9 0 1.7-.8 1.7-2.3zm3.4.9v-4.3h1.6v4c0 1.1.3 1.6 1.3 1.6.6 0 1.1-.3 1.7-1v-4.6h1.6v6.9h-1.3l-.1-1.1h-.1c-.7.8-1.4 1.3-2.4 1.3-1.6 0-2.3-1.1-2.3-2.8zm8.3 3.8c0-.6.4-1.1 1.1-1.5v-.1c-.4-.2-.7-.6-.7-1.2 0-.5.3-.9.8-1.3v-.1c-.5-.3-.9-1-.9-1.8 0-1.6 1.3-2.5 2.8-2.5.4 0 .8.1 1.1.2h2.8v1.2h-1.6c.2.3.4.7.4 1.1 0 1.5-1.2 2.3-2.8 2.3-.3 0-.7-.1-1.1-.2-.3.2-.4.4-.4.6 0 .5.4.7 1.3.7h1.4c1.8 0 2.7.5 2.7 1.7 0 1.4-1.5 2.4-4 2.4-1.7.3-2.9-.3-2.9-1.5zm5.5-.3c0-.5-.5-.7-1.4-.7h-1.1c-.4 0-.8 0-1-.1-.5.3-.7.6-.7.9 0 .6.7 1 2 1s2.2-.6 2.2-1.1zm-1.1-5.5c0-.8-.6-1.4-1.3-1.4s-1.3.5-1.3 1.4.6 1.4 1.3 1.4c.8 0 1.3-.5 1.3-1.4zm4 5.8c0-.6.4-1.1 1.1-1.5v-.1c-.4-.2-.7-.6-.7-1.2 0-.5.3-.9.8-1.3v-.1c-.5-.3-.9-1-.9-1.8 0-1.6 1.3-2.5 2.8-2.5.4 0 .8.1 1.1.2h2.8v1.2h-1.5c.2.3.4.7.4 1.1 0 1.5-1.2 2.3-2.8 2.3-.3 0-.7-.1-1.1-.2-.3.2-.4.4-.4.6 0 .5.4.7 1.3.7h1.4c1.8 0 2.7.5 2.7 1.7 0 1.4-1.5 2.4-4 2.4-1.8.3-3-.3-3-1.5zm5.5-.3c0-.5-.5-.7-1.4-.7h-1.1c-.4 0-.8 0-1-.1-.5.3-.7.6-.7.9 0 .6.7 1 2 1s2.2-.6 2.2-1.1zm-1.1-5.5c0-.8-.6-1.4-1.3-1.4s-1.3.5-1.3 1.4.6 1.4 1.3 1.4c.8 0 1.3-.5 1.3-1.4zm7.3-1h-3v-1.3h4.6v6.9h-1.6zm-.5-3.6c0-.6.5-1.1 1.2-1.1s1.2.4 1.2 1.1-.5 1.1-1.2 1.1-1.2-.5-1.2-1.1zm5.9 2.3h1.3l.1 1h.1c.7-.7 1.4-1.2 2.5-1.2 1.6 0 2.3 1 2.3 2.8v4.3h-1.6v-4c0-1.1-.4-1.6-1.3-1.6-.7 0-1.1.3-1.8 1v4.7h-1.6zm8.1 8.1c0-.6.4-1.1 1.1-1.5v-.1c-.4-.2-.7-.6-.7-1.2 0-.5.3-.9.8-1.3v-.1c-.5-.3-.9-1-.9-1.8 0-1.6 1.3-2.5 2.8-2.5.4 0 .8.1 1.1.2h2.8v1.2h-1.6c.2.3.4.7.4 1.1 0 1.5-1.2 2.3-2.8 2.3-.3 0-.7-.1-1.1-.2-.3.2-.4.4-.4.6 0 .5.4.7 1.3.7h1.4c1.8 0 2.7.5 2.7 1.7 0 1.4-1.5 2.4-4 2.4-1.7.3-2.9-.3-2.9-1.5zm5.5-.3c0-.5-.5-.7-1.4-.7h-1.1c-.4 0-.8 0-1-.1-.5.3-.7.6-.7.9 0 .6.7 1 2 1s2.2-.6 2.2-1.1zm-1.1-5.5c0-.8-.6-1.4-1.3-1.4s-1.3.5-1.3 1.4.6 1.4 1.3 1.4c.8 0 1.3-.5 1.3-1.4zm15.7-1h-3v-1.3h4.6v6.9h-1.6zm-.5-3.6c0-.6.5-1.1 1.2-1.1s1.2.4 1.2 1.1-.5 1.1-1.2 1.1-1.2-.5-1.2-1.1zm5.9 2.3h1.3l.1 1h.1c.7-.7 1.4-1.2 2.5-1.2 1.6 0 2.3 1 2.3 2.8v4.3h-1.6v-4c0-1.1-.4-1.6-1.3-1.6-.7 0-1.1.3-1.8 1v4.7h-1.6zm8.5.1 1.9-.1h4.2v1.3h-6.1zm1.9-.5c0-1.6.9-2.8 2.9-2.8.7 0 1.4.2 2 .4l-.3 1.2c-.5-.2-1-.3-1.5-.3-1 0-1.5.5-1.5 1.5v7.3h-1.6zm5.9 3.9c0-2.3 1.6-3.6 3.5-3.6 1.8 0 3.5 1.3 3.5 3.6s-1.6 3.6-3.5 3.6c-1.8 0-3.5-1.4-3.5-3.6zm5.3 0c0-1.4-.7-2.3-1.8-2.3s-1.8.9-1.8 2.3.7 2.3 1.8 2.3c1.1-.1 1.8-1 1.8-2.3zm4.2-3.5h1.3l.1 1.6c.7-1.1 1.7-1.7 2.9-1.7.6 0 .9.1 1.3.3l-.3 1.4c-.5-.1-.7-.2-1.2-.2-.9 0-1.9.5-2.6 1.8v3.8h-1.5zm7.2 0h1.2l.1.9c.3-.6.7-1 1.5-1 .6 0 1.1.4 1.2 1.2.3-.7.8-1.2 1.6-1.2 1 0 1.5.8 1.5 2.2v4.9h-1.3v-4.8c0-.6-.2-.9-.5-.9-.4 0-.6.3-.9.9v4.8h-1.3v-4.8c0-.6-.2-.9-.5-.9-.4 0-.6.3-.9.9v4.8h-1.6v-7zm8.8 5c0-1.5 1.4-2.3 4.8-2.5-.1-.8-.5-1.3-1.6-1.3-.8 0-1.5.3-2.2.7l-.6-1.1c.8-.5 2-1 3.1-1 1.9 0 3 1.1 3 3v4.1h-1.5l-.1-.9c-.7.6-1.6 1-2.6 1-1.3.1-2.3-.8-2.3-2zm4.7-.1v-1.4c-2.5.2-3.2.7-3.2 1.4 0 .6.5.9 1.2.9.8 0 1.4-.3 2-.9zm5.4-.8v-2.8h-1.8v-1.2l1.9-.1.2-2.2h1.3v2.2h3.1v1.3h-3.1v2.8c0 1.1.4 1.6 1.6 1.6.6 0 1-.1 1.5-.3l.3 1.2c-.6.2-1.3.4-2.2.4-2.1.1-2.8-1.1-2.8-2.9zm9.8-2.8h-3v-1.3h4.6v6.9h-1.6zm-.4-3.6c0-.6.5-1.1 1.2-1.1s1.2.4 1.2 1.1-.5 1.1-1.2 1.1-1.2-.5-1.2-1.1zm5.4 5.8c0-2.3 1.6-3.6 3.5-3.6 1.8 0 3.5 1.3 3.5 3.6s-1.6 3.6-3.5 3.6c-1.8 0-3.5-1.4-3.5-3.6zm5.3 0c0-1.4-.7-2.3-1.8-2.3s-1.8.9-1.8 2.3.7 2.3 1.8 2.3c1.1-.1 1.8-1 1.8-2.3zm3.6-3.5h1.3l.1 1h.1c.7-.7 1.4-1.2 2.5-1.2 1.6 0 2.3 1 2.3 2.8v4.3h-1.6v-4c0-1.1-.4-1.6-1.3-1.6-.7 0-1.1.3-1.8 1v4.7h-1.6z" fill="#fff"/><path clip-rule="evenodd" d="m348 132.6 3.8-10.2 10.2-3.7-10.2-3.8-3.8-10.2-3.7 10.2-10.2 3.7 10.2 3.7z" fill="#80718e" opacity=".5"/><path clip-rule="evenodd" d="m970.4 287.7 3.8-10.2 10.2-3.7-10.2-3.8-3.8-10.2-3.7 10.2-10.2 3.7 10.2 3.7z" fill="#80718e" opacity=".5"/><path clip-rule="evenodd" d="m1057.1 46.8 3.9-10.5 10.5-3.9-10.5-3.9-3.9-10.5-3.9 10.5-10.5 3.9 10.5 3.9z" fill="#dae8f1" opacity=".5"/><path clip-rule="evenodd" d="m86.1 366 1.9-5.3 5.3-1.9-5.3-1.9-1.9-5.3-1.9 5.3-5.3 1.9 5.3 1.9z" fill="#c9dae5" opacity=".5"/><path clip-rule="evenodd" d="m1089.5 122 2.2-5.9 5.9-2.2-5.9-2.2-2.2-5.9-2.2 5.9-5.9 2.2 5.9 2.2zm-851.8 245.8 3.4-9.4 9.4-3.4-9.4-3.4-3.4-9.4-3.4 9.4-9.4 3.4 9.4 3.4z" fill="#f69471"/><path clip-rule="evenodd" d="m253.9 113.9 2.2-5.9 5.9-2.2-5.9-2.2-2.2-5.9-2.2 5.9-5.9 2.2 5.9 2.2z" fill="#dae7f0" opacity=".5"/><path clip-rule="evenodd" d="m1000.5 134.7 2.2-5.9 5.9-2.2-5.9-2.2-2.2-5.9-2.2 5.9-5.9 2.2 5.9 2.2z" fill="#fbb315" opacity=".5"/><path clip-rule="evenodd" d="m1089.5 283.2 3.4-9.4 9.4-3.4-9.4-3.4-3.4-9.4-3.4 9.4-9.4 3.4 9.4 3.4z" fill="#dae7f0" opacity=".5"/><path clip-rule="evenodd" d="m170 28 2.2-5.9 5.9-2.2-5.9-2.2-2.2-5.9-2.2 5.9-5.9 2.2 5.9 2.2z" fill="#dae7f0" opacity=".5"/><path clip-rule="evenodd" d="m889.5 193.7 3.2-8.9 8.9-3.2-8.9-3.2-3.2-8.9-3.2 8.9-8.9 3.2 8.9 3.2zm-492.5 28.2 3.8-10.3 10.3-3.8-10.3-3.8-3.8-10.3-3.8 10.3-10.3 3.8 10.3 3.8z" fill="#f69471"/><path d="m419.2 10h517.6v133.2h-517.6z" fill="#231f20"/><path d="m409.2 0h517.6v133.2h-517.6z" fill="#eaeae9"/><path d="m429.2 36.2h152.5v77h-152.5z" fill="#fff"/><path d="m591.7 36.2h152.5v77h-152.5z" fill="#fff"/><path d="m754.3 36.2h152.5v77h-152.5z" fill="#fff"/><path d="m429.2 34.4h152.5v3.5h-152.5z" fill="#f26c3d"/><path d="m591.7 34.4h152.5v3.5h-152.5z" fill="#f26c3d"/><path d="m754.3 34.4h152.5v3.5h-152.5z" fill="#f26c3d"/><path d="m596.1 22.7h-7.6v-1.3l3.8-4.1c.5-.6.9-1.1 1.2-1.5.2-.4.3-.8.3-1.2 0-.5-.2-1-.5-1.3s-.7-.5-1.2-.5c-.6 0-1.1.2-1.4.6s-.5.9-.5 1.5h-1.9c0-.7.2-1.3.5-1.9s.8-1 1.4-1.3 1.3-.5 2-.5c1.1 0 2 .3 2.6.8s1 1.3 1 2.3c0 .6-.2 1.2-.5 1.8s-.8 1.3-1.6 2.1l-2.8 3h5.3v1.5zm2.7-2c.4 0 .6.1.8.3s.3.5.3.8-.1.5-.3.7-.5.3-.8.3-.6-.1-.8-.3-.3-.4-.3-.7.1-.6.3-.8.5-.3.8-.3zm7.5 2v-11.4h3.4c1 0 1.9.2 2.7.7.8.4 1.4 1.1 1.8 1.9s.6 1.8.6 2.8v.6c0 1.1-.2 2-.6 2.8s-1 1.4-1.8 1.9c-.8.4-1.7.7-2.7.7zm2-9.8v8.2h1.3c1 0 1.8-.3 2.4-1s.8-1.6.8-2.8v-.6c0-1.2-.3-2.2-.8-2.8-.5-.7-1.3-1-2.3-1zm12 9.9c-1.2 0-2.2-.4-2.9-1.1s-1.1-1.8-1.1-3v-.2c0-.8.2-1.6.5-2.3s.8-1.2 1.4-1.6 1.2-.6 2-.6c1.2 0 2 .4 2.7 1.1s.9 1.8.9 3.1v.8h-5.5c.1.7.3 1.2.7 1.7s.9.6 1.5.6c.9 0 1.6-.4 2.1-1.1l1 1c-.3.5-.8.9-1.4 1.2s-1.2.4-1.9.4zm-.3-7.2c-.5 0-.9.2-1.3.5-.3.4-.5.9-.6 1.5h3.6v-.1c0-.6-.2-1.1-.5-1.4-.2-.3-.6-.5-1.2-.5zm8 4.7 1.8-6h2l-2.9 8.5h-1.6l-3-8.5h2zm8.6 2.5c-1.2 0-2.2-.4-2.9-1.1s-1.1-1.8-1.1-3v-.2c0-.8.2-1.6.5-2.3s.8-1.2 1.4-1.6 1.2-.6 2-.6c1.2 0 2 .4 2.7 1.1s.9 1.8.9 3.1v.8h-5.5c.1.7.3 1.2.7 1.7s.9.6 1.5.6c.9 0 1.6-.4 2.1-1.1l1 1c-.3.5-.8.9-1.4 1.2s-1.2.4-1.9.4zm-.3-7.2c-.5 0-.9.2-1.3.5-.3.4-.5.9-.6 1.5h3.6v-.1c0-.6-.2-1.1-.5-1.4-.2-.3-.6-.5-1.2-.5zm7.1 7.1h-1.9v-12h1.9zm1.8-4.3c0-.8.2-1.6.5-2.2s.8-1.2 1.4-1.5c.6-.4 1.3-.5 2-.5 1.1 0 2.1.4 2.8 1.1s1.1 1.7 1.2 2.9v.4c0 .8-.2 1.6-.5 2.2s-.8 1.2-1.4 1.5-1.3.5-2.1.5c-1.2 0-2.1-.4-2.9-1.2-.7-.7-1-1.8-1-3.2zm1.9.2c0 .9.2 1.6.5 2s.9.7 1.5.7 1.1-.2 1.5-.8.5-1.2.5-2.2c0-.9-.2-1.5-.6-2s-.9-.8-1.5-.8-1.1.2-1.5.7-.4 1.4-.4 2.4zm14.9 0c0 1.3-.3 2.4-.9 3.1-.6.8-1.4 1.2-2.4 1.2-.9 0-1.7-.3-2.2-.9v4h-1.9v-11.8h1.8l.1.9c.6-.7 1.3-1 2.3-1s1.8.4 2.4 1.2.9 1.8.9 3.2v.1zm-1.9-.2c0-.8-.2-1.5-.5-2s-.8-.7-1.4-.7c-.8 0-1.3.3-1.7 1v3.8c.3.7.9 1 1.7 1 .6 0 1.1-.2 1.4-.7.4-.7.5-1.4.5-2.4zm5.3-4.2.1.9c.6-.7 1.4-1 2.4-1 1.1 0 1.9.4 2.3 1.3.6-.9 1.5-1.3 2.6-1.3.9 0 1.6.3 2.1.8s.7 1.3.7 2.3v5.6h-1.9v-5.5c0-.5-.1-.9-.4-1.2s-.6-.4-1.2-.4c-.4 0-.8.1-1.1.3s-.5.5-.6.9v5.8h-1.9v-5.6c0-1-.5-1.5-1.5-1.5-.8 0-1.3.3-1.6.9v6.1h-1.9v-8.5h1.9zm15.9 8.6c-1.2 0-2.2-.4-2.9-1.1-.7-.8-1.1-1.8-1.1-3v-.2c0-.8.2-1.6.5-2.3s.8-1.2 1.4-1.6 1.2-.6 2-.6c1.2 0 2 .4 2.7 1.1.6.7.9 1.8.9 3.1v.8h-5.5c.1.7.3 1.2.7 1.7.4.4.9.6 1.5.6.9 0 1.6-.4 2.1-1.1l1 1c-.3.5-.8.9-1.4 1.2s-1.2.4-1.9.4zm-.2-7.2c-.5 0-.9.2-1.3.5-.3.4-.5.9-.6 1.5h3.6v-.1c0-.6-.2-1.1-.5-1.4s-.7-.5-1.2-.5zm6.8-1.4.1 1c.6-.8 1.4-1.1 2.5-1.1 1.8 0 2.7 1 2.7 3v5.6h-1.9v-5.5c0-.5-.1-.9-.3-1.2s-.6-.4-1.1-.4c-.8 0-1.3.3-1.7 1v6h-1.9v-8.5h1.6zm9.5-2v2.1h1.5v1.4h-1.5v4.7c0 .3.1.6.2.7s.4.2.7.2c.2 0 .4 0 .7-.1v1.5c-.4.1-.8.2-1.2.2-1.5 0-2.2-.8-2.2-2.4v-4.8h-1.4v-1.4h1.4v-2.1zm9.1 6.3v4.2h-2v-11.4h4.4c1.3 0 2.3.3 3 1s1.1 1.5 1.1 2.6-.4 2-1.1 2.6-1.8.9-3.1.9h-2.3zm0-1.6h2.4c.7 0 1.2-.2 1.6-.5s.6-.8.6-1.4-.2-1.1-.6-1.5-.9-.6-1.5-.6h-2.4v4zm9.9-1.7c.6-.7 1.4-1.1 2.4-1.1 1.8 0 2.7 1 2.7 3.1v5.5h-1.9v-5.5c0-.6-.1-1-.4-1.2s-.6-.4-1.1-.4c-.8 0-1.3.3-1.7 1v6h-1.9v-12h1.9zm12.1 7.5c-.1-.2-.2-.4-.2-.8-.6.6-1.3.9-2.2.9-.8 0-1.5-.2-2.1-.7-.5-.5-.8-1.1-.8-1.8 0-.9.3-1.6 1-2.1s1.6-.7 2.9-.7h1.2v-.5c0-.4-.1-.8-.4-1.1-.2-.3-.6-.4-1.1-.4-.4 0-.8.1-1.1.3s-.4.5-.4.8h-1.9c0-.5.2-.9.5-1.3s.7-.7 1.3-.9c.5-.2 1.1-.3 1.8-.3 1 0 1.8.2 2.4.7s.9 1.2.9 2.1v3.8c0 .8.1 1.4.3 1.8v.1h-2.1zm-2.1-1.4c.4 0 .7-.1 1.1-.3.3-.2.6-.4.7-.7v-1.6h-1c-.7 0-1.2.1-1.6.4-.4.2-.5.6-.5 1s.1.7.4.9c.2.2.5.3.9.3zm10.4-.9c0-.3-.1-.6-.4-.8s-.7-.3-1.4-.5c-.6-.1-1.2-.3-1.6-.5-.9-.5-1.4-1.1-1.4-2 0-.7.3-1.3.9-1.8s1.4-.7 2.3-.7c1 0 1.8.2 2.4.8.6.5.9 1.1.9 1.9h-1.9c0-.4-.1-.7-.4-.9s-.6-.4-1.1-.4c-.4 0-.8.1-1 .3-.3.2-.4.5-.4.8s.1.5.4.7c.2.2.7.3 1.5.5.7.2 1.3.4 1.8.6.4.2.7.5.9.8s.3.7.3 1.2c0 .8-.3 1.4-.9 1.8-.6.5-1.5.7-2.5.7-.7 0-1.3-.1-1.9-.4-.5-.2-1-.6-1.3-1s-.5-.9-.5-1.4h1.8c0 .4.2.8.5 1s.7.4 1.2.4.9-.1 1.1-.3c.6-.2.7-.5.7-.8zm7.3 2.4c-1.2 0-2.2-.4-2.9-1.1-.7-.8-1.1-1.8-1.1-3v-.2c0-.8.2-1.6.5-2.3s.8-1.2 1.4-1.6 1.2-.6 2-.6c1.2 0 2 .4 2.7 1.1.6.7.9 1.8.9 3.1v.8h-5.6c.1.7.3 1.2.7 1.7.4.4.9.6 1.5.6.9 0 1.6-.4 2.1-1.1l1 1c-.3.5-.8.9-1.4 1.2-.5.3-1.1.4-1.8.4zm-.2-7.2c-.5 0-.9.2-1.3.5-.3.4-.5.9-.6 1.5h3.6v-.1c0-.6-.2-1.1-.5-1.4s-.7-.5-1.2-.5z" fill="#1c272b"/><path d="m472.7 65c0-3 1.8-4.8 4.2-4.8 1.1 0 2 .5 2.6 1.1l-.9 1c-.5-.5-1-.7-1.7-.7-1.5 0-2.6 1.3-2.6 3.3 0 2.1 1 3.4 2.6 3.4.7 0 1.3-.3 1.8-.9l.9 1c-.7.9-1.7 1.3-2.9 1.3-2.2 0-4-1.7-4-4.7zm9.4-2.4h1.3l.1 1.6c.7-1.1 1.7-1.7 2.9-1.7.6 0 .9.1 1.3.3l-.3 1.4c-.5-.1-.7-.2-1.2-.2-.9 0-1.9.5-2.6 1.8v3.8h-1.6v-7zm7.4 3.5c0-2.2 1.7-3.6 3.5-3.6 2.1 0 3.2 1.4 3.2 3.3 0 .3 0 .6-.1.8h-5.5v-1.1h4.5l-.3.4c0-1.4-.6-2-1.7-2s-2 .8-2 2.4 1 2.4 2.4 2.4c.7 0 1.3-.2 1.9-.6l.6 1c-.7.5-1.7.8-2.7.8-2.1-.2-3.8-1.5-3.8-3.8zm8.5 1.6c0-1.5 1.4-2.3 4.8-2.5-.1-.8-.5-1.3-1.6-1.3-.8 0-1.5.3-2.2.7l-.6-1.1c.8-.5 2-1 3.1-1 1.9 0 3 1.1 3 3v4.1h-1.3l-.1-.9c-.7.6-1.6 1-2.6 1-1.5 0-2.5-.8-2.5-2zm4.8-.1v-1.4c-2.5.2-3.2.7-3.2 1.4 0 .6.5.9 1.2.9.7-.1 1.4-.4 2-.9zm5.3-.9v-2.8h-1.8v-1.2l1.9-.1.2-2.2h1.3v2.2h3.1v1.3h-3.1v2.8c0 1.1.4 1.6 1.6 1.6.6 0 1-.1 1.5-.3l.3 1.2c-.6.2-1.3.4-2.2.4-2.1.1-2.8-1.1-2.8-2.9zm6.6-.6c0-2.2 1.7-3.6 3.5-3.6 2.1 0 3.2 1.4 3.2 3.3 0 .3 0 .6-.1.8h-5.5v-1.1h4.5l-.3.4c0-1.4-.6-2-1.7-2s-2 .8-2 2.4 1 2.4 2.4 2.4c.7 0 1.3-.2 1.9-.6l.6 1c-.7.5-1.7.8-2.7.8-2.1-.2-3.8-1.5-3.8-3.8zm16.9 1.6c0-1.5 1.4-2.3 4.8-2.5-.1-.8-.5-1.3-1.6-1.3-.8 0-1.5.3-2.2.7l-.6-1.1c.8-.5 2-1 3.1-1 1.9 0 3 1.1 3 3v4.1h-1.3l-.1-.9c-.7.6-1.6 1-2.6 1-1.5 0-2.5-.8-2.5-2zm4.8-.1v-1.4c-2.5.2-3.2.7-3.2 1.4 0 .6.5.9 1.2.9.7-.1 1.4-.4 2-.9zm-76.5 11.8h1.2l.1.9c.3-.6.7-1 1.5-1 .6 0 1.1.4 1.2 1.2.3-.7.8-1.2 1.6-1.2 1 0 1.5.8 1.5 2.2v4.9h-1.6v-4.8c0-.6-.2-.9-.5-.9-.4 0-.6.3-.9.9v4.8h-1.3v-4.8c0-.6-.2-.9-.5-.9-.4 0-.6.3-.9.9v4.8h-1.6v-7zm8.5 3.5c0-2.3 1.6-3.6 3.5-3.6 1.8 0 3.5 1.3 3.5 3.6s-1.6 3.6-3.5 3.6-3.5-1.3-3.5-3.6zm5.2 0c0-1.4-.7-2.3-1.8-2.3s-1.8.9-1.8 2.3.7 2.3 1.8 2.3 1.8-.9 1.8-2.3zm3.5 0c0-2.3 1.8-3.6 3.9-3.6 1.1 0 2 .4 2.5 1l-.8 1c-.5-.4-1.1-.7-1.7-.7-1.4 0-2.3.9-2.3 2.3s.9 2.3 2.3 2.3c.8 0 1.4-.3 2-.8l.7 1c-.8.7-1.8 1-2.8 1-2.2.1-3.8-1.2-3.8-3.5zm8.6-6.5h1.6v6.2h.1l3.1-3.2h1.8l-5 5.1v1.8h-1.6zm2.8 6.5.9-1 3.2 4.4h-1.8zm13.6 2.5.7-1c.8.5 1.8.9 2.9.9 1 0 1.4-.4 1.4-.8 0-.5-.3-.7-1.9-1-1.8-.4-2.7-1-2.7-2.1 0-1.2 1.1-2.1 3-2.1 1.1 0 2.2.4 2.9.9l-.7 1c-.7-.4-1.5-.7-2.3-.7-.9 0-1.3.3-1.3.8s.5.7 1.8.9c2.2.5 2.8 1.1 2.8 2.2 0 1.2-1.1 2.1-3.2 2.1-1.3 0-2.5-.5-3.4-1.1zm8.4-2.5c0-2.2 1.7-3.6 3.5-3.6 2.1 0 3.2 1.4 3.2 3.3 0 .3 0 .6-.1.8h-5.5v-1.1h4.5l-.3.4c0-1.4-.6-2-1.7-2s-2 .8-2 2.4 1 2.4 2.4 2.4c.7 0 1.3-.2 1.9-.6l.6 1c-.7.5-1.7.8-2.7.8-2.1-.2-3.8-1.5-3.8-3.8zm9.4-3.5h1.3l.1 1.6c.7-1.1 1.7-1.7 2.9-1.7.6 0 .9.1 1.3.3l-.3 1.4c-.5-.1-.7-.2-1.2-.2-.9 0-1.9.5-2.6 1.8v3.8h-1.6v-7zm7.1 0h1.6l1.4 3.6c.2.7.5 1.4.7 2.1h.1c.2-.7.4-1.4.7-2.1l1.3-3.6h1.6l-2.7 6.9h-1.8zm8.7 3.5c0-2.2 1.7-3.6 3.5-3.6 2.1 0 3.2 1.4 3.2 3.3 0 .3 0 .6-.1.8h-5.5v-1.1h4.5l-.3.4c0-1.4-.6-2-1.7-2s-2 .8-2 2.4 1 2.4 2.4 2.4c.7 0 1.3-.2 1.9-.6l.6 1c-.7.5-1.7.8-2.7.8-2.1-.2-3.8-1.5-3.8-3.8zm9.4-3.5h1.3l.1 1.6c.7-1.1 1.7-1.7 2.9-1.7.6 0 .9.1 1.3.3l-.3 1.4c-.5-.1-.7-.2-1.2-.2-.9 0-1.9.5-2.6 1.8v3.8h-1.6v-7z" fill="#1c272b"/><path d="m643.6 65c0-3 1.8-4.8 4.2-4.8 1.1 0 2 .5 2.6 1.1l-.9 1c-.5-.5-1-.7-1.7-.7-1.5 0-2.6 1.3-2.6 3.3 0 2.1 1 3.4 2.6 3.4.7 0 1.3-.3 1.8-.9l.9 1c-.7.9-1.7 1.3-2.9 1.3-2.1 0-4-1.7-4-4.7zm9.4-2.4h1.3l.1 1.6c.7-1.1 1.7-1.7 2.9-1.7.6 0 .9.1 1.3.3l-.3 1.4c-.5-.1-.7-.2-1.2-.2-.9 0-1.9.5-2.6 1.8v3.8h-1.5zm7.5 3.5c0-2.2 1.7-3.6 3.5-3.6 2.1 0 3.2 1.4 3.2 3.3 0 .3 0 .6-.1.8h-5.5v-1.1h4.5l-.3.4c0-1.4-.6-2-1.7-2s-2 .8-2 2.4 1 2.4 2.4 2.4c.7 0 1.3-.2 1.9-.6l.6 1c-.7.5-1.7.8-2.7.8-2.2-.2-3.8-1.5-3.8-3.8zm8.5 1.6c0-1.5 1.4-2.3 4.8-2.5-.1-.8-.5-1.3-1.6-1.3-.8 0-1.5.3-2.2.7l-.6-1.1c.8-.5 2-1 3.1-1 1.9 0 3 1.1 3 3v4.1h-1.5l-.1-.9c-.7.6-1.6 1-2.6 1-1.3 0-2.3-.8-2.3-2zm4.7-.1v-1.4c-2.5.2-3.2.7-3.2 1.4 0 .6.5.9 1.2.9.8-.1 1.4-.4 2-.9zm5.4-.9v-2.8h-1.8v-1.2l1.9-.1.2-2.2h1.3v2.2h3.1v1.3h-3.1v2.8c0 1.1.4 1.6 1.6 1.6.6 0 1-.1 1.5-.3l.3 1.2c-.6.2-1.3.4-2.2.4-2.1.1-2.8-1.1-2.8-2.9zm6.6-.6c0-2.2 1.7-3.6 3.5-3.6 2.1 0 3.2 1.4 3.2 3.3 0 .3 0 .6-.1.8h-5.5v-1.1h4.5l-.3.4c0-1.4-.6-2-1.7-2s-2 .8-2 2.4 1 2.4 2.4 2.4c.7 0 1.3-.2 1.9-.6l.6 1c-.7.5-1.7.8-2.7.8-2.2-.2-3.8-1.5-3.8-3.8zm-71.6 16.8c0-2.2 1.5-3.6 3-3.6.8 0 1.4.3 1.9.8l-.1-1.2v-2.5h1.6v9.9h-1.3l-.1-.8c-.5.5-1.3 1-2.1 1-1.7 0-2.9-1.3-2.9-3.6zm4.9 1.4v-3.1c-.5-.5-1-.6-1.5-.6-1 0-1.8.8-1.8 2.3s.6 2.3 1.7 2.3c.6-.1 1.2-.3 1.6-.9zm3.5-1.4c0-2.3 1.6-3.6 3.5-3.6s3.5 1.3 3.5 3.6-1.6 3.6-3.5 3.6-3.5-1.3-3.5-3.6zm5.3 0c0-1.4-.7-2.3-1.8-2.3s-1.8.9-1.8 2.3.7 2.3 1.8 2.3 1.8-.9 1.8-2.3zm3.4 0c0-2.3 1.8-3.6 3.9-3.6 1.1 0 2 .4 2.5 1l-.8 1c-.5-.4-1.1-.7-1.7-.7-1.4 0-2.3.9-2.3 2.3s.9 2.3 2.3 2.3c.8 0 1.4-.3 2-.8l.7 1c-.8.7-1.8 1-2.8 1-2.1.1-3.8-1.2-3.8-3.5zm8.4.8v-4.3h1.6v4.1c0 1.1.3 1.6 1.3 1.6.6 0 1.1-.3 1.7-1v-4.6h1.6v6.9h-1.3l-.1-1.1h-.1c-.7.8-1.4 1.3-2.4 1.3-1.6-.1-2.3-1.1-2.3-2.9zm8-4.3h1.2l.1.9c.3-.6.7-1 1.5-1 .6 0 1.1.4 1.2 1.2.3-.7.8-1.2 1.6-1.2 1 0 1.5.8 1.5 2.2v4.9h-1.6v-4.8c0-.6-.2-.9-.5-.9-.4 0-.6.3-.9.9v4.8h-1.3v-4.8c0-.6-.2-.9-.5-.9-.4 0-.6.3-.9.9v4.8h-1.6v-7zm8.7 3.5c0-2.2 1.7-3.6 3.5-3.6 2.1 0 3.2 1.4 3.2 3.3 0 .3 0 .6-.1.8h-5.5v-1.1h4.5l-.3.4c0-1.4-.6-2-1.7-2s-2 .8-2 2.4 1 2.4 2.4 2.4c.7 0 1.3-.2 1.9-.6l.6 1c-.7.5-1.7.8-2.7.8-2.2-.2-3.8-1.5-3.8-3.8zm8.7-3.5h1.3l.1 1h.1c.7-.7 1.4-1.2 2.5-1.2 1.6 0 2.3 1 2.3 2.8v4.3h-1.6v-4.1c0-1.1-.4-1.6-1.3-1.6-.7 0-1.1.3-1.8 1v4.7h-1.6zm9.9 4.1v-2.8h-1.9v-1.2l1.9-.1.2-2.2h1.3v2.2h3.1v1.3h-3.1v2.8c0 1.1.4 1.6 1.6 1.6.6 0 1-.1 1.5-.3l.3 1.2c-.6.2-1.3.4-2.2.4-2 .1-2.7-1.1-2.7-2.9zm6.7 1c0-1.5 1.4-2.3 4.8-2.5-.1-.8-.5-1.3-1.6-1.3-.8 0-1.5.3-2.2.7l-.6-1.1c.8-.5 2-1 3.1-1 1.9 0 3 1.1 3 3v4.1h-1.3l-.1-.9c-.7.6-1.6 1-2.6 1-1.5 0-2.5-.8-2.5-2zm4.7-.1v-1.4c-2.5.2-3.2.7-3.2 1.4 0 .6.5.9 1.2.9.8-.1 1.4-.4 2-.9zm5.4-.9v-2.8h-1.8v-1.2l1.9-.1.2-2.2h1.3v2.2h3.1v1.3h-3.1v2.8c0 1.1.4 1.6 1.6 1.6.6 0 1-.1 1.5-.3l.3 1.2c-.6.2-1.3.4-2.2.4-2.1.1-2.8-1.1-2.8-2.9zm9.8-2.8h-3v-1.3h4.6v6.9h-1.6zm-.4-3.6c0-.6.5-1.1 1.2-1.1s1.2.4 1.2 1.1-.5 1.1-1.2 1.1-1.2-.4-1.2-1.1zm5.4 5.8c0-2.3 1.6-3.6 3.5-3.6s3.5 1.3 3.5 3.6-1.6 3.6-3.5 3.6-3.5-1.3-3.5-3.6zm5.3 0c0-1.4-.7-2.3-1.8-2.3s-1.8.9-1.8 2.3.7 2.3 1.8 2.3 1.8-.9 1.8-2.3zm3.6-3.5h1.3l.1 1h.1c.7-.7 1.4-1.2 2.5-1.2 1.6 0 2.3 1 2.3 2.8v4.3h-1.7v-4.1c0-1.1-.4-1.6-1.3-1.6-.7 0-1.1.3-1.8 1v4.7h-1.6v-6.9z" fill="#1c272b"/><path d="m810.6 60.4h2.4c2.7 0 4.3 1.5 4.3 4.5s-1.6 4.6-4.2 4.6h-2.5zm2.3 7.8c1.7 0 2.7-1 2.7-3.3 0-2.2-1-3.2-2.7-3.2h-.7v6.5zm5.9-2.1c0-2.2 1.7-3.6 3.5-3.6 2.1 0 3.2 1.4 3.2 3.3 0 .3 0 .6-.1.8h-5.4v-1.1h4.5l-.3.4c0-1.4-.6-2-1.7-2s-2 .8-2 2.4 1 2.4 2.4 2.4c.7 0 1.3-.2 1.9-.6l.6 1c-.7.5-1.7.8-2.7.8-2.2-.2-3.9-1.5-3.9-3.8zm10.2 2.7-.2.8h-1.3v-9.9h1.6v2.6l-.1 1.2c.6-.6 1.4-.9 2.1-.9 1.8 0 2.8 1.4 2.8 3.5 0 2.4-1.5 3.7-3 3.7-.6-.1-1.3-.5-1.9-1zm3.3-2.8c0-1.4-.5-2.2-1.6-2.2-.5 0-1.1.2-1.6.8v3.1c.5.5 1.1.6 1.5.6 1 0 1.7-.8 1.7-2.3zm3.4.9v-4.3h1.6v4.1c0 1.1.3 1.6 1.3 1.6.6 0 1.1-.3 1.7-1v-4.6h1.6v6.9h-1.3l-.1-1.1h-.1c-.7.8-1.4 1.3-2.4 1.3-1.6-.1-2.3-1.1-2.3-2.9zm8.3 3.8c0-.6.4-1.1 1.1-1.5v-.1c-.4-.2-.7-.6-.7-1.2 0-.4.3-.9.8-1.3v-.1c-.5-.3-.9-1-.9-1.8 0-1.6 1.3-2.5 2.8-2.5.4 0 .8.1 1.1.2h2.8v1.2h-1.6c.2.3.4.7.4 1.1 0 1.5-1.2 2.3-2.8 2.3-.3 0-.7-.1-1.1-.2-.3.2-.4.4-.4.6 0 .4.4.7 1.3.7h1.4c1.8 0 2.7.5 2.7 1.7 0 1.4-1.5 2.4-4 2.4-1.6.4-2.9-.3-2.9-1.5zm5.6-.3c0-.5-.5-.7-1.4-.7h-1.1c-.4 0-.8 0-1-.1-.5.3-.7.6-.7.9 0 .6.7 1 2 1s2.2-.5 2.2-1.1zm-1.1-5.5c0-.8-.6-1.4-1.3-1.4s-1.3.5-1.3 1.4.6 1.4 1.3 1.4 1.3-.5 1.3-1.4zm-27.3 12.3h1.9l3 9.2h-1.7l-1.4-4.9c-.3-1-.6-2-.8-3h-.1c-.3 1-.5 2.1-.8 3l-1.4 4.9h-1.7zm-1.2 5.4h4.3v1.3h-4.3zm7.6-5.4h3c2 0 3.5.7 3.5 2.8s-1.5 3-3.5 3h-1.4v3.4h-1.6zm2.9 4.4c1.4 0 2-.5 2-1.7 0-1.1-.7-1.5-2-1.5h-1.3v3.2zm5.4 3.3h2.2v-6.4h-2.2v-1.4h6v1.4h-2.2v6.4h2.2v1.4h-6z" fill="#1c272b"/><path d="m1143.5 38.6h192.5v340.8h-192.5z" fill="#231f20"/><path d="m1133.5 28.6h192.5v340.8h-192.5z" fill="#eaeae9"/><path d="m1153.5 172.3h152.5v77h-152.5z" fill="#fff"/><path d="m1153.5 259.3h152.5v90.1h-152.5z" fill="#fff"/><path d="m1153.5 85.3h152.5v77h-152.5z" fill="#fff"/><path d="m1193 179.9h2.4c2.7 0 4.3 1.5 4.3 4.5s-1.6 4.6-4.2 4.6h-2.5zm2.3 7.8c1.7 0 2.7-1 2.7-3.3 0-2.2-1-3.2-2.7-3.2h-.7v6.5zm5.9-2.1c0-2.2 1.7-3.6 3.5-3.6 2.1 0 3.2 1.4 3.2 3.3 0 .3 0 .6-.1.8h-5.5v-1.1h4.5l-.3.4c0-1.4-.6-2-1.7-2s-2 .8-2 2.4 1 2.4 2.4 2.4c.7 0 1.3-.2 1.9-.6l.6 1c-.7.5-1.7.8-2.7.8-2.2-.2-3.8-1.5-3.8-3.8zm8.7-3.4h1.3l.1.8c.6-.6 1.4-1 2.2-1 1.8 0 2.8 1.4 2.8 3.5 0 2.3-1.5 3.7-3.1 3.7-.6 0-1.3-.3-1.9-.8l.1 1.2v2.2h-1.6v-9.6zm4.8 3.3c0-1.4-.5-2.2-1.6-2.2-.5 0-1.1.2-1.6.8v3.1c.5.5 1.1.6 1.5.6 1 .1 1.7-.7 1.7-2.3zm5.6 1v-6.1h-2.3v-1.3h3.9v7.5c0 .9.5 1.3 1.2 1.3.4 0 .7-.1 1.2-.3l.4 1.2c-.7.3-1.1.4-1.9.4-1.7 0-2.5-1-2.5-2.7zm6-.9c0-2.3 1.6-3.6 3.5-3.6 1.8 0 3.5 1.3 3.5 3.6s-1.6 3.6-3.5 3.6-3.5-1.3-3.5-3.6zm5.2 0c0-1.4-.7-2.3-1.8-2.3s-1.8.9-1.8 2.3.7 2.3 1.8 2.3c1.2 0 1.8-.9 1.8-2.3zm3.4 6.1.3-1.3c.2.1.4.1.6.1.9 0 1.4-.5 1.7-1.2l.2-.4-3.1-6.8h1.6l1.4 3.4c.3.6.5 1.3.8 2h.1c.2-.7.5-1.4.7-2l1.2-3.4h1.5l-2.9 7.2c-.6 1.5-1.4 2.5-3.1 2.5-.4.1-.8 0-1-.1zm18.5-5.4v-2.8h-1.8v-1.2l1.9-.1.2-2.2h1.3v2.2h3.1v1.3h-3.1v2.8c0 1.1.4 1.6 1.6 1.6.6 0 1-.1 1.5-.3l.3 1.2c-.6.2-1.3.4-2.2.4-2.1 0-2.8-1.2-2.8-2.9zm6.5-.7c0-2.3 1.6-3.6 3.5-3.6 1.8 0 3.5 1.3 3.5 3.6s-1.6 3.6-3.5 3.6-3.5-1.3-3.5-3.6zm5.2 0c0-1.4-.7-2.3-1.8-2.3s-1.8.9-1.8 2.3.7 2.3 1.8 2.3c1.2 0 1.8-.9 1.8-2.3zm-76.2 13.4h1.3l.1.8c.6-.6 1.4-1 2.2-1 1.8 0 2.8 1.4 2.8 3.5 0 2.3-1.5 3.7-3.1 3.7-.6 0-1.3-.3-1.9-.8l.1 1.2v2.2h-1.6v-9.6zm4.8 3.3c0-1.4-.5-2.2-1.6-2.2-.5 0-1.1.2-1.6.8v3.1c.5.5 1.1.6 1.5.6 1 .1 1.7-.7 1.7-2.3zm4.2-3.3h1.3l.1 1.6c.7-1.1 1.7-1.7 2.9-1.7.6 0 .9.1 1.3.3l-.3 1.4c-.5-.1-.7-.2-1.2-.2-.9 0-1.9.5-2.6 1.8v3.8h-1.6v-7zm7.4 3.4c0-2.3 1.6-3.6 3.5-3.6s3.5 1.3 3.5 3.6-1.6 3.6-3.5 3.6-3.5-1.3-3.5-3.6zm5.2 0c0-1.4-.7-2.3-1.8-2.3s-1.8.9-1.8 2.3.7 2.3 1.8 2.3 1.8-.9 1.8-2.3zm3.2 0c0-2.2 1.5-3.6 3-3.6.8 0 1.4.3 1.9.8l-.1-1.2v-2.5h1.6v9.9h-1.3l-.1-.8c-.5.5-1.3 1-2.1 1-1.8 0-2.9-1.3-2.9-3.6zm4.9 1.4v-3.1c-.5-.5-1-.6-1.5-.6-1 0-1.8.8-1.8 2.3s.6 2.3 1.7 2.3c.6 0 1.1-.3 1.6-.9zm3.7-.6v-4.2h1.6v4c0 1.1.3 1.6 1.3 1.6.6 0 1.1-.3 1.7-1v-4.6h1.6v6.9h-1.3l-.1-1.1h-.1c-.7.8-1.4 1.3-2.4 1.3-1.6-.1-2.3-1.1-2.3-2.9zm8.5-.8c0-2.3 1.8-3.6 3.9-3.6 1.1 0 2 .4 2.5 1l-.8 1c-.5-.4-1.1-.7-1.7-.7-1.4 0-2.3.9-2.3 2.3s.9 2.3 2.3 2.3c.8 0 1.4-.3 2-.8l.7 1c-.8.7-1.8 1-2.8 1-2.2.1-3.8-1.2-3.8-3.5zm10 .7v-2.8h-1.8v-1.3l1.9-.1.2-2.2h1.3v2.2h3.1v1.3h-3.1v2.8c0 1.1.4 1.6 1.6 1.6.6 0 1-.1 1.5-.3l.3 1.2c-.6.2-1.3.4-2.2.4-2.1.1-2.8-1.1-2.8-2.8zm9.9-2.9h-3v-1.2h4.6v6.9h-1.6zm-.5-3.6c0-.6.5-1.1 1.2-1.1s1.2.4 1.2 1.1-.5 1.1-1.2 1.1-1.2-.4-1.2-1.1zm5.5 5.8c0-2.3 1.6-3.6 3.5-3.6s3.5 1.3 3.5 3.6-1.6 3.6-3.5 3.6-3.5-1.3-3.5-3.6zm5.2 0c0-1.4-.7-2.3-1.8-2.3s-1.8.9-1.8 2.3.7 2.3 1.8 2.3 1.8-.9 1.8-2.3zm3.6-3.4h1.3l.1 1h.1c.7-.7 1.4-1.2 2.5-1.2 1.6 0 2.3 1 2.3 2.8v4.3h-1.6v-4.1c0-1.1-.4-1.6-1.3-1.6-.7 0-1.1.3-1.8 1v4.7h-1.6zm-82.5 20.9v-2.9h-1.8v-1.2l1.9-.1.2-2.2h1.3v2.2h3.1v1.3h-3.1v2.8c0 1.1.4 1.6 1.6 1.6.6 0 1-.1 1.5-.3l.3 1.2c-.6.2-1.3.4-2.2.4-2.1.1-2.8-1.1-2.8-2.8zm6.9-7.2h1.6v2.6l-.1 1.5c.6-.6 1.4-1.2 2.4-1.2 1.6 0 2.3 1 2.3 2.8v4.3h-1.6v-4.1c0-1.1-.4-1.6-1.3-1.6-.7 0-1.1.3-1.8 1v4.7h-1.6v-10zm9 3.1h1.3l.1 1.6c.7-1.1 1.7-1.7 2.9-1.7.6 0 .9.1 1.3.3l-.3 1.4c-.5-.1-.7-.2-1.2-.2-.9 0-1.9.5-2.6 1.8v3.8h-1.6v-7zm7.4 3.4c0-2.3 1.6-3.6 3.5-3.6s3.5 1.3 3.5 3.6-1.6 3.6-3.5 3.6-3.5-1.3-3.5-3.6zm5.2 0c0-1.4-.7-2.3-1.8-2.3s-1.8.9-1.8 2.3.7 2.3 1.8 2.3 1.8-.9 1.8-2.3zm3.4.8v-4.3h1.6v4.1c0 1.1.3 1.6 1.3 1.6.6 0 1.1-.3 1.7-1v-4.6h1.6v6.9h-1.3l-.1-1.1h-.1c-.7.8-1.4 1.3-2.4 1.3-1.6-.1-2.3-1.1-2.3-2.9zm8.3 3.8c0-.6.4-1.1 1.1-1.5v-.1c-.4-.2-.7-.6-.7-1.2 0-.4.3-.9.8-1.3v-.1c-.5-.3-.9-1-.9-1.8 0-1.6 1.3-2.5 2.8-2.5.4 0 .8.1 1.1.2h2.8v1.2h-1.6c.2.3.4.7.4 1.1 0 1.5-1.2 2.3-2.8 2.3-.3 0-.7-.1-1.1-.2-.3.2-.4.4-.4.6 0 .4.4.7 1.3.7h1.4c1.8 0 2.7.5 2.7 1.7 0 1.4-1.5 2.4-4 2.4-1.7.4-2.9-.2-2.9-1.5zm5.5-.3c0-.5-.5-.7-1.4-.7h-1.1c-.4 0-.8 0-1-.1-.5.3-.7.6-.7.9 0 .6.7 1 2 1 1.4 0 2.2-.5 2.2-1.1zm-1-5.4c0-.8-.6-1.4-1.3-1.4s-1.3.5-1.3 1.4.6 1.4 1.3 1.4c.7-.1 1.3-.6 1.3-1.4zm4.2-5.4h1.6v2.6l-.1 1.5c.6-.6 1.4-1.2 2.4-1.2 1.6 0 2.3 1 2.3 2.8v4.3h-1.6v-4.1c0-1.1-.4-1.6-1.3-1.6-.7 0-1.1.3-1.8 1v4.7h-1.6v-10zm16.6 12.6.3-1.3c.2.1.4.1.6.1.9 0 1.4-.5 1.7-1.2l.2-.4-3.1-6.8h1.6l1.4 3.4c.3.6.5 1.3.8 2h.1c.2-.7.5-1.4.7-2l1.2-3.4h1.5l-2.9 7.2c-.6 1.5-1.4 2.5-3.1 2.5-.4.1-.8 0-1-.1zm8.2-6.1c0-2.3 1.6-3.6 3.5-3.6s3.5 1.3 3.5 3.6-1.6 3.6-3.5 3.6-3.5-1.3-3.5-3.6zm5.2 0c0-1.4-.7-2.3-1.8-2.3s-1.8.9-1.8 2.3.7 2.3 1.8 2.3 1.8-.9 1.8-2.3zm3.4.8v-4.3h1.6v4.1c0 1.1.3 1.6 1.3 1.6.6 0 1.1-.3 1.7-1v-4.6h1.6v6.9h-1.3l-.1-1.1h-.1c-.7.8-1.4 1.3-2.4 1.3-1.6-.1-2.3-1.1-2.3-2.9zm9.2-4.2h1.3l.1 1.6c.7-1.1 1.7-1.7 2.9-1.7.6 0 .9.1 1.3.3l-.3 1.4c-.5-.1-.7-.2-1.2-.2-.9 0-1.9.5-2.6 1.8v3.8h-1.6v-7zm-101.7 19.1c0-3 1.8-4.8 4.2-4.8 1.1 0 2 .5 2.6 1.1l-.9 1c-.5-.5-1-.7-1.7-.7-1.5 0-2.6 1.3-2.6 3.3 0 2.1 1 3.4 2.6 3.4.7 0 1.3-.3 1.8-.9l.9 1c-.7.9-1.7 1.3-2.9 1.3-2.2 0-4-1.7-4-4.7zm8.7 3.2h2.2v-6.4h-2.2v-1.4h6v1.4h-2.2v6.4h2.2v1.4h-6zm13-8.6h1.4l-4.6 12.2h-1.4zm3.5 5.4c0-3 1.8-4.8 4.2-4.8 1.1 0 2 .5 2.6 1.1l-.9 1c-.5-.5-1-.7-1.7-.7-1.5 0-2.6 1.3-2.6 3.3 0 2.1 1 3.4 2.6 3.4.7 0 1.3-.3 1.8-.9l.9 1c-.7.9-1.7 1.3-2.9 1.3-2.2 0-4-1.7-4-4.7zm8.6-4.6h2.4c2.7 0 4.3 1.5 4.3 4.5s-1.6 4.6-4.2 4.6h-2.5zm2.3 7.8c1.7 0 2.7-1 2.7-3.3 0-2.2-1-3.2-2.7-3.2h-.7v6.5zm14.6-5.5h1.3l.1.8c.6-.6 1.4-1 2.2-1 1.8 0 2.8 1.4 2.8 3.5 0 2.3-1.5 3.7-3.1 3.7-.6 0-1.3-.3-1.9-.8l.1 1.2v2.2h-1.6v-9.6zm4.8 3.3c0-1.4-.5-2.2-1.6-2.2-.5 0-1.1.2-1.6.8v3.1c.5.5 1.1.6 1.5.6 1 .1 1.7-.7 1.7-2.3zm6.6-2.1h-3v-1.3h4.6v6.9h-1.6zm-.5-3.6c0-.6.5-1.1 1.2-1.1s1.2.4 1.2 1.1-.5 1.1-1.2 1.1-1.2-.4-1.2-1.1zm5.9 2.4h1.3l.1.8c.6-.6 1.4-1 2.2-1 1.8 0 2.8 1.4 2.8 3.5 0 2.3-1.5 3.7-3.1 3.7-.6 0-1.3-.3-1.9-.8l.1 1.2v2.2h-1.6v-9.6zm4.8 3.3c0-1.4-.5-2.2-1.6-2.2-.5 0-1.1.2-1.6.8v3.1c.5.5 1.1.6 1.5.6 1 .1 1.7-.7 1.7-2.3zm3.3.1c0-2.2 1.7-3.6 3.5-3.6 2.1 0 3.2 1.4 3.2 3.3 0 .3 0 .6-.1.8h-5.5v-1.1h4.5l-.3.4c0-1.4-.6-2-1.7-2s-2 .8-2 2.4 1 2.4 2.4 2.4c.7 0 1.3-.2 1.9-.6l.6 1c-.7.5-1.7.8-2.7.8-2.2-.2-3.8-1.5-3.8-3.8zm10.7.9v-6.1h-2.3v-1.3h3.9v7.5c0 .9.5 1.3 1.2 1.3.4 0 .7-.1 1.2-.3l.4 1.2c-.7.3-1.1.4-1.9.4-1.7 0-2.5-1-2.5-2.7zm9.4-3.1h-3v-1.3h4.6v6.9h-1.6zm-.5-3.6c0-.6.5-1.1 1.2-1.1s1.2.4 1.2 1.1-.5 1.1-1.2 1.1-1.2-.4-1.2-1.1zm5.9 2.4h1.3l.1 1h.1c.7-.7 1.4-1.2 2.5-1.2 1.6 0 2.3 1 2.3 2.8v4.3h-1.6v-4.1c0-1.1-.4-1.6-1.3-1.6-.7 0-1.1.3-1.8 1v4.7h-1.6zm8.1 3.4c0-2.2 1.7-3.6 3.5-3.6 2.1 0 3.2 1.4 3.2 3.3 0 .3 0 .6-.1.8h-5.5v-1.1h4.5l-.3.4c0-1.4-.6-2-1.7-2s-2 .8-2 2.4 1 2.4 2.4 2.4c.7 0 1.3-.2 1.9-.6l.6 1c-.7.5-1.7.8-2.7.8-2.2-.2-3.8-1.5-3.8-3.8z" fill="#1c272b"/><path d="m1205.3 289.4.9-1.1c.7.6 1.6 1 2.6 1 1.1 0 1.6-.5 1.6-1.1 0-.8-.6-1-1.5-1.4l-1.3-.5c-1-.4-2-1.1-2-2.4 0-1.5 1.3-2.6 3.2-2.6 1.1 0 2.2.4 2.9 1.2l-.8 1c-.6-.5-1.3-.8-2.2-.8s-1.5.4-1.5 1.1.7 1 1.6 1.3l1.2.5c1.2.4 2 1.1 2 2.5 0 1.5-1.3 2.7-3.4 2.7-1.1-.1-2.4-.6-3.3-1.4zm8.5-2.3c0-2.2 1.7-3.6 3.5-3.6 2.1 0 3.2 1.4 3.2 3.3 0 .3 0 .6-.1.8h-5.5v-1.1h4.5l-.3.4c0-1.4-.6-2-1.7-2s-2 .8-2 2.4 1 2.4 2.4 2.4c.7 0 1.3-.2 1.9-.6l.6 1c-.7.5-1.7.8-2.7.8-2.2-.2-3.8-1.5-3.8-3.8zm10.2.7v-2.8h-1.8v-1.2l1.9-.1.2-2.2h1.3v2.2h3.1v1.3h-3.1v2.8c0 1.1.4 1.6 1.6 1.6.6 0 1-.1 1.5-.3l.3 1.2c-.6.2-1.3.4-2.2.4-2.1 0-2.8-1.2-2.8-2.9zm15.1.1v-4.3h1.6v4.1c0 1.1.3 1.6 1.3 1.6.6 0 1.1-.3 1.7-1v-4.6h1.6v6.9h-1.3l-.1-1.1h-.1c-.7.8-1.4 1.3-2.4 1.3-1.6-.1-2.3-1.1-2.3-2.9zm8.6-4.3h1.3l.1.8c.6-.6 1.4-1 2.2-1 1.8 0 2.8 1.4 2.8 3.5 0 2.3-1.5 3.7-3.1 3.7-.6 0-1.3-.3-1.9-.8l.1 1.2v2.2h-1.6v-9.6zm4.8 3.4c0-1.4-.5-2.2-1.6-2.2-.5 0-1.1.2-1.6.8v3.1c.5.5 1.1.6 1.5.6 1 .1 1.7-.7 1.7-2.3zm-68.1 11.2h1.8l1.1 3.6.4 1.4h.1l.4-1.4 1.1-3.6h1.8v9.2h-1.4v-3.7c0-1 .2-2.9.2-3.8l-.6 2.1-1 2.9h-.9l-1-2.9-.6-2.1c.1.9.2 2.8.2 3.8v3.7h-1.4v-9.2zm8.3 5.7c0-2.3 1.6-3.6 3.5-3.6 1.8 0 3.5 1.3 3.5 3.6s-1.6 3.6-3.5 3.6-3.5-1.3-3.5-3.6zm5.2 0c0-1.4-.7-2.3-1.8-2.3s-1.8.9-1.8 2.3.7 2.3 1.8 2.3c1.2 0 1.8-.9 1.8-2.3zm3.6-3.5h1.3l.1 1h.1c.7-.7 1.4-1.2 2.5-1.2 1.6 0 2.3 1 2.3 2.8v4.3h-1.6v-4.1c0-1.1-.4-1.6-1.3-1.6-.7 0-1.1.3-1.8 1v4.7h-1.6zm11.4 1.3h-3v-1.3h4.6v6.9h-1.6zm-.5-3.6c0-.6.5-1.1 1.2-1.1s1.2.4 1.2 1.1-.5 1.1-1.2 1.1-1.2-.4-1.2-1.1zm7.4 6.5v-2.8h-1.8v-1.2l1.9-.1.2-2.2h1.3v2.2h3.1v1.3h-3.1v2.8c0 1.1.4 1.6 1.6 1.6.6 0 1-.1 1.5-.3l.3 1.2c-.6.2-1.3.4-2.2.4-2.1 0-2.8-1.2-2.8-2.9zm6.5-.7c0-2.3 1.6-3.6 3.5-3.6 1.8 0 3.5 1.3 3.5 3.6s-1.6 3.6-3.5 3.6-3.5-1.3-3.5-3.6zm5.2 0c0-1.4-.7-2.3-1.8-2.3s-1.8.9-1.8 2.3.7 2.3 1.8 2.3c1.2 0 1.8-.9 1.8-2.3zm4.2-3.5h1.3l.1 1.6c.7-1.1 1.7-1.7 2.9-1.7.6 0 .9.1 1.3.3l-.3 1.4c-.5-.1-.7-.2-1.2-.2-.9 0-1.9.5-2.6 1.8v3.8h-1.6v-7zm7.5 6 .7-1c.8.5 1.8.9 2.9.9 1 0 1.4-.4 1.4-.8 0-.5-.3-.7-1.9-1-1.8-.4-2.7-1-2.7-2.1 0-1.2 1.1-2.1 3-2.1 1.1 0 2.2.4 2.9.9l-.7 1c-.7-.4-1.5-.7-2.3-.7-.9 0-1.3.3-1.3.8s.5.7 1.8.9c2.2.5 2.8 1.1 2.8 2.2 0 1.2-1.1 2.1-3.2 2.1-1.3 0-2.6-.5-3.4-1.1zm18.6-1.8v-2.8h-1.8v-1.2l1.9-.1.2-2.2h1.3v2.2h3.1v1.3h-3.1v2.8c0 1.1.4 1.6 1.6 1.6.6 0 1-.1 1.5-.3l.3 1.2c-.6.2-1.3.4-2.2.4-2.1 0-2.8-1.2-2.8-2.9zm6.5-.7c0-2.3 1.6-3.6 3.5-3.6s3.5 1.3 3.5 3.6-1.6 3.6-3.5 3.6-3.5-1.3-3.5-3.6zm5.2 0c0-1.4-.7-2.3-1.8-2.3s-1.8.9-1.8 2.3.7 2.3 1.8 2.3c1.2 0 1.8-.9 1.8-2.3zm-84.9 21.4c0-.6.4-1.1 1.1-1.5v-.1c-.4-.2-.7-.6-.7-1.2 0-.5.3-.9.8-1.3v-.1c-.5-.3-.9-1-.9-1.8 0-1.6 1.3-2.5 2.8-2.5.4 0 .8.1 1.1.2h2.8v1.2h-1.6c.2.3.4.7.4 1.1 0 1.5-1.2 2.3-2.8 2.3-.3 0-.7-.1-1.1-.2-.3.2-.4.4-.4.6 0 .5.4.7 1.3.7h1.4c1.8 0 2.7.5 2.7 1.7 0 1.4-1.5 2.4-4 2.4-1.7.4-2.9-.2-2.9-1.5zm5.5-.3c0-.5-.5-.7-1.4-.7h-1.1c-.4 0-.8 0-1-.1-.5.3-.7.6-.7.9 0 .6.7 1 2 1 1.4 0 2.2-.5 2.2-1.1zm-1-5.4c0-.8-.6-1.4-1.3-1.4s-1.3.5-1.3 1.4.6 1.4 1.3 1.4c.7-.1 1.3-.6 1.3-1.4zm3.9 1.1c0-2.2 1.7-3.6 3.5-3.6 2.1 0 3.2 1.4 3.2 3.3 0 .3 0 .6-.1.8h-5.5v-1.2h4.5l-.3.4c0-1.4-.6-2-1.7-2s-2 .8-2 2.4 1 2.4 2.4 2.4c.7 0 1.3-.2 1.9-.6l.6 1c-.7.5-1.7.8-2.7.8-2.2-.1-3.8-1.4-3.8-3.7zm10.2.7v-2.8h-1.8v-1.2l1.9-.1.2-2.2h1.3v2.2h3.1v1.3h-3.1v2.8c0 1.1.4 1.6 1.6 1.6.6 0 1-.1 1.5-.3l.3 1.2c-.6.2-1.3.4-2.2.4-2.1 0-2.8-1.2-2.8-2.9zm15.1.9c0-1.5 1.4-2.3 4.8-2.5-.1-.8-.5-1.3-1.6-1.3-.8 0-1.5.3-2.2.7l-.6-1.1c.8-.5 2-1 3.1-1 1.9 0 3 1.1 3 3v4.1h-1.3l-.1-.9c-.7.6-1.6 1-2.6 1-1.5 0-2.5-.8-2.5-2zm4.8-.1v-1.4c-2.5.2-3.2.7-3.2 1.4 0 .6.5.9 1.2.9.7-.1 1.3-.4 2-.9zm5.8-.6v-6.1h-2.3v-1.3h3.9v7.5c0 .9.5 1.3 1.2 1.3.4 0 .7-.1 1.2-.3l.4 1.2c-.7.3-1.1.4-1.9.4-1.7 0-2.5-1-2.5-2.7zm6.1-.9c0-2.2 1.7-3.6 3.5-3.6 2.1 0 3.2 1.4 3.2 3.3 0 .3 0 .6-.1.8h-5.5v-1.2h4.5l-.3.4c0-1.4-.6-2-1.7-2s-2 .8-2 2.4 1 2.4 2.4 2.4c.7 0 1.3-.2 1.9-.6l.6 1c-.7.5-1.7.8-2.7.8-2.2-.1-3.8-1.4-3.8-3.7zm9.3-3.5h1.3l.1 1.6c.7-1.1 1.7-1.7 2.9-1.7.6 0 .9.1 1.3.3l-.3 1.4c-.5-.1-.7-.2-1.2-.2-.9 0-1.9.5-2.6 1.8v3.8h-1.6v-7zm9.3 4.2v-2.8h-1.8v-1.2l1.9-.1.2-2.2h1.3v2.2h3.1v1.3h-3.1v2.8c0 1.1.4 1.6 1.6 1.6.6 0 1-.1 1.5-.3l.3 1.2c-.6.2-1.3.4-2.2.4-2.1 0-2.8-1.2-2.8-2.9zm6.6 1.8.7-1c.8.5 1.8.9 2.9.9 1 0 1.4-.4 1.4-.8 0-.5-.3-.7-1.9-1-1.8-.4-2.7-1-2.7-2.1 0-1.2 1.1-2.1 3-2.1 1.1 0 2.2.4 2.9.9l-.7 1c-.7-.4-1.5-.7-2.3-.7-.9 0-1.3.3-1.3.8s.5.7 1.8.9c2.2.5 2.8 1.1 2.8 2.2 0 1.2-1.1 2.1-3.2 2.1-1.3 0-2.6-.5-3.4-1.1z" fill="#1c272b"/><path d="m1167.9 109.3h2.2v-6.4h-2.2v-1.4h6v1.4h-2.2v6.4h2.2v1.4h-6zm8.4-5.5h1.3l.1 1h.1c.7-.7 1.4-1.2 2.5-1.2 1.6 0 2.3 1 2.3 2.8v4.3h-1.6v-4.1c0-1.1-.4-1.6-1.3-1.6-.7 0-1.1.3-1.8 1v4.7h-1.6zm9.9 4.1v-2.8h-1.8v-1.2l1.9-.1.2-2.2h1.3v2.2h3.1v1.3h-3.1v2.8c0 1.1.4 1.6 1.6 1.6.6 0 1-.1 1.5-.3l.3 1.2c-.6.2-1.3.4-2.2.4-2.1 0-2.8-1.1-2.8-2.9zm6.6-.7c0-2.2 1.7-3.6 3.5-3.6 2.1 0 3.2 1.4 3.2 3.3 0 .3 0 .6-.1.8h-5.5v-1.1h4.5l-.3.4c0-1.4-.6-2-1.7-2s-2 .8-2 2.4 1 2.4 2.4 2.4c.7 0 1.3-.2 1.9-.6l.6 1c-.7.5-1.7.8-2.7.8-2.2-.2-3.8-1.5-3.8-3.8zm8.4 4.7c0-.6.4-1.1 1.1-1.5v-.1c-.4-.2-.7-.6-.7-1.2 0-.5.3-.9.8-1.3v-.1c-.5-.3-.9-1-.9-1.8 0-1.6 1.3-2.5 2.8-2.5.4 0 .8.1 1.1.2h2.8v1.2h-1.6c.2.3.4.7.4 1.1 0 1.5-1.2 2.3-2.8 2.3-.3 0-.7-.1-1.1-.2-.3.2-.4.4-.4.6 0 .5.4.7 1.3.7h1.4c1.8 0 2.7.5 2.7 1.7 0 1.4-1.5 2.4-4 2.4-1.7.3-2.9-.3-2.9-1.5zm5.5-.4c0-.5-.5-.7-1.4-.7h-1.1c-.4 0-.8 0-1-.1-.5.3-.7.6-.7.9 0 .6.7 1 2 1 1.4 0 2.2-.5 2.2-1.1zm-1-5.4c0-.8-.6-1.4-1.3-1.4s-1.3.5-1.3 1.4.6 1.4 1.3 1.4 1.3-.5 1.3-1.4zm4.8-2.3h1.3l.1 1.6c.7-1.1 1.7-1.7 2.9-1.7.6 0 .9.1 1.3.3l-.3 1.4c-.5-.1-.7-.2-1.2-.2-.9 0-1.9.5-2.6 1.8v3.8h-1.6v-7zm7.6 5c0-1.5 1.4-2.3 4.8-2.5-.1-.8-.5-1.3-1.6-1.3-.8 0-1.5.3-2.2.7l-.6-1.1c.8-.5 2-1 3.1-1 1.9 0 3 1.1 3 3v4.1h-1.3l-.1-.9c-.7.6-1.6 1-2.6 1-1.5 0-2.5-.8-2.5-2zm4.8-.1v-1.4c-2.5.2-3.2.7-3.2 1.4 0 .6.5.9 1.2.9s1.3-.4 2-.9zm5.3-.8v-2.8h-1.8v-1.2l1.9-.1.2-2.2h1.3v2.2h3.1v1.3h-3.1v2.8c0 1.1.4 1.6 1.6 1.6.6 0 1-.1 1.5-.3l.3 1.2c-.6.2-1.3.4-2.2.4-2.1 0-2.8-1.1-2.8-2.9zm6.6-.7c0-2.2 1.7-3.6 3.5-3.6 2.1 0 3.2 1.4 3.2 3.3 0 .3 0 .6-.1.8h-5.5v-1.1h4.5l-.3.4c0-1.4-.6-2-1.7-2s-2 .8-2 2.4 1 2.4 2.4 2.4c.7 0 1.3-.2 1.9-.6l.6 1c-.7.5-1.7.8-2.7.8-2.2-.2-3.8-1.5-3.8-3.8zm18.6.7v-2.8h-1.8v-1.2l1.9-.1.2-2.2h1.3v2.2h3.1v1.3h-3.1v2.8c0 1.1.4 1.6 1.6 1.6.6 0 1-.1 1.5-.3l.3 1.2c-.6.2-1.3.4-2.2.4-2.1 0-2.8-1.1-2.8-2.9zm6.6-.7c0-2.2 1.7-3.6 3.5-3.6 2.1 0 3.2 1.4 3.2 3.3 0 .3 0 .6-.1.8h-5.5v-1.1h4.5l-.3.4c0-1.4-.6-2-1.7-2s-2 .8-2 2.4 1 2.4 2.4 2.4c.7 0 1.3-.2 1.9-.6l.6 1c-.7.5-1.7.8-2.7.8-2.2-.2-3.8-1.5-3.8-3.8zm8.4 2.6.7-1c.8.5 1.8.9 2.9.9 1 0 1.4-.4 1.4-.8 0-.5-.3-.7-1.9-1-1.8-.4-2.7-1-2.7-2.1 0-1.2 1.1-2.1 3-2.1 1.1 0 2.2.4 2.9.9l-.7 1c-.7-.4-1.5-.7-2.3-.7-.9 0-1.3.3-1.3.8s.5.7 1.8.9c2.2.5 2.8 1.1 2.8 2.2 0 1.2-1.1 2.1-3.2 2.1-1.3-.1-2.6-.5-3.4-1.1zm10.2-1.9v-2.8h-1.8v-1.2l1.9-.1.2-2.2h1.3v2.2h3.1v1.3h-3.1v2.8c0 1.1.4 1.6 1.6 1.6.6 0 1-.1 1.5-.3l.3 1.2c-.6.2-1.3.4-2.2.4-2.1 0-2.8-1.1-2.8-2.9zm6.6 1.9.7-1c.8.5 1.8.9 2.9.9 1 0 1.4-.4 1.4-.8 0-.5-.3-.7-1.9-1-1.8-.4-2.7-1-2.7-2.1 0-1.2 1.1-2.1 3-2.1 1.1 0 2.2.4 2.9.9l-.7 1c-.7-.4-1.5-.7-2.3-.7-.9 0-1.3.3-1.3.8s.5.7 1.8.9c2.2.5 2.8 1.1 2.8 2.2 0 1.2-1.1 2.1-3.2 2.1-1.3-.1-2.6-.5-3.4-1.1zm-114.3 12.1h-3v-1.3h4.6v6.9h-1.6zm-.5-3.6c0-.6.5-1.1 1.2-1.1s1.2.4 1.2 1.1-.5 1.1-1.2 1.1-1.2-.5-1.2-1.1zm5.9 2.3h1.3l.1 1h.1c.7-.7 1.4-1.2 2.5-1.2 1.6 0 2.3 1 2.3 2.8v4.3h-1.6v-4.1c0-1.1-.4-1.6-1.3-1.6-.7 0-1.1.3-1.8 1v4.7h-1.6zm18.2 6.1-.2.8h-1.3v-9.9h1.6v2.6l-.1 1.2c.6-.6 1.4-.9 2.1-.9 1.8 0 2.8 1.4 2.8 3.5 0 2.4-1.5 3.7-3 3.7-.5-.1-1.3-.4-1.9-1zm3.4-2.8c0-1.4-.5-2.2-1.6-2.2-.5 0-1.1.2-1.6.8v3.1c.5.5 1.1.6 1.5.6 1 .1 1.7-.7 1.7-2.3zm3.4 1v-4.3h1.6v4.1c0 1.1.3 1.6 1.3 1.6.6 0 1.1-.3 1.7-1v-4.6h1.6v6.9h-1.3l-.1-1.1h-.1c-.7.8-1.4 1.3-2.4 1.3-1.6-.2-2.3-1.2-2.3-2.9zm11.6-3h-3v-1.3h4.6v6.9h-1.6zm-.5-3.6c0-.6.5-1.1 1.2-1.1s1.2.4 1.2 1.1-.5 1.1-1.2 1.1-1.2-.5-1.2-1.1zm7.9 6.7v-6.1h-2.3v-1.3h3.9v7.5c0 .9.5 1.3 1.2 1.3.4 0 .7-.1 1.2-.3l.4 1.2c-.7.3-1.1.4-1.9.4-1.7-.1-2.5-1-2.5-2.7zm6-1c0-2.2 1.5-3.6 3-3.6.8 0 1.4.3 1.9.8l-.1-1.2v-2.5h1.6v9.9h-1.3l-.1-.8c-.5.5-1.3 1-2.1 1-1.8 0-2.9-1.3-2.9-3.6zm4.9 1.5v-3.1c-.5-.5-1-.6-1.5-.6-1 0-1.8.8-1.8 2.3s.6 2.3 1.7 2.3c.6-.1 1.1-.4 1.6-.9zm12 1.1.7-1c.8.5 1.8.9 2.9.9 1 0 1.4-.4 1.4-.8 0-.5-.3-.7-1.9-1-1.8-.4-2.7-1-2.7-2.1 0-1.2 1.1-2.1 3-2.1 1.1 0 2.2.4 2.9.9l-.7 1c-.7-.4-1.5-.7-2.3-.7-.9 0-1.3.3-1.3.8s.5.7 1.8.9c2.2.5 2.8 1.1 2.8 2.2 0 1.2-1.1 2.1-3.2 2.1-1.3-.1-2.6-.5-3.4-1.1zm8.5 3.6.3-1.3c.2.1.4.1.6.1.9 0 1.4-.5 1.7-1.2l.2-.4-3.1-6.8h1.6l1.4 3.4c.3.6.5 1.3.8 2h.1c.2-.7.5-1.4.7-2l1.2-3.4h1.5l-2.9 7.2c-.6 1.5-1.4 2.5-3.1 2.5-.4 0-.8-.1-1-.1zm8.3-3.6.7-1c.8.5 1.8.9 2.9.9 1 0 1.4-.4 1.4-.8 0-.5-.3-.7-1.9-1-1.8-.4-2.7-1-2.7-2.1 0-1.2 1.1-2.1 3-2.1 1.1 0 2.2.4 2.9.9l-.7 1c-.7-.4-1.5-.7-2.3-.7-.9 0-1.3.3-1.3.8s.5.7 1.8.9c2.2.5 2.8 1.1 2.8 2.2 0 1.2-1.1 2.1-3.2 2.1-1.3-.1-2.6-.5-3.4-1.1zm10.2-1.9v-2.8h-1.8v-1.2l1.9-.1.2-2.2h1.3v2.2h3.1v1.3h-3.1v2.8c0 1.1.4 1.6 1.6 1.6.6 0 1-.1 1.5-.3l.3 1.2c-.6.2-1.3.4-2.2.4-2.1 0-2.8-1.1-2.8-2.9zm6.6-.7c0-2.2 1.7-3.6 3.5-3.6 2.1 0 3.2 1.4 3.2 3.3 0 .3 0 .6-.1.8h-5.5v-1.1h4.5l-.3.4c0-1.4-.6-2-1.7-2s-2 .8-2 2.4 1 2.4 2.4 2.4c.7 0 1.3-.2 1.9-.6l.6 1c-.7.5-1.7.8-2.7.8-2.2-.2-3.8-1.5-3.8-3.8zm8.2-3.4h1.2l.1.9c.3-.6.7-1 1.5-1 .6 0 1.1.4 1.2 1.2.3-.7.8-1.2 1.6-1.2 1 0 1.5.8 1.5 2.2v4.9h-1.6v-4.8c0-.6-.2-.9-.5-.9-.4 0-.6.3-.9.9v4.8h-1.3v-4.8c0-.6-.2-.9-.5-.9-.4 0-.6.3-.9.9v4.8h-1.6v-7zm-111.4 20.9v-2.8h-1.8v-1.2l1.9-.1.2-2.2h1.3v2.2h3.1v1.3h-3.1v2.8c0 1.1.4 1.6 1.6 1.6.6 0 1-.1 1.5-.3l.3 1.2c-.6.2-1.3.4-2.2.4-2.1 0-2.8-1.1-2.8-2.9zm6.9-7.1h1.6v2.6l-.1 1.5c.6-.6 1.4-1.2 2.4-1.2 1.6 0 2.3 1 2.3 2.8v4.3h-1.6v-4.1c0-1.1-.4-1.6-1.3-1.6-.7 0-1.1.3-1.8 1v4.7h-1.6v-10zm9 3h1.3l.1 1.6c.7-1.1 1.7-1.7 2.9-1.7.6 0 .9.1 1.3.3l-.3 1.4c-.5-.1-.7-.2-1.2-.2-.9 0-1.9.5-2.6 1.8v3.8h-1.6v-7zm7.4 3.4c0-2.3 1.6-3.6 3.5-3.6 1.8 0 3.5 1.3 3.5 3.6s-1.6 3.6-3.5 3.6-3.5-1.3-3.5-3.6zm5.2 0c0-1.4-.7-2.3-1.8-2.3s-1.8.9-1.8 2.3.7 2.3 1.8 2.3c1.2 0 1.8-.9 1.8-2.3zm3.4.9v-4.3h1.6v4.1c0 1.1.3 1.6 1.3 1.6.6 0 1.1-.3 1.7-1v-4.6h1.6v6.9h-1.3l-.1-1.1h-.1c-.7.8-1.4 1.3-2.4 1.3-1.6-.2-2.3-1.2-2.3-2.9zm8.3 3.8c0-.6.4-1.1 1.1-1.5-.4-.2-.7-.6-.7-1.2 0-.4.3-.9.8-1.3v-.1c-.5-.3-.9-1-.9-1.8 0-1.6 1.3-2.5 2.8-2.5.4 0 .8.1 1.1.2h2.8v1.2h-1.6c.2.3.4.7.4 1.1 0 1.5-1.2 2.3-2.8 2.3-.3 0-.7-.1-1.1-.2-.3.2-.4.4-.4.6 0 .5.4.7 1.3.7h1.4c1.8 0 2.7.5 2.7 1.7 0 1.4-1.5 2.4-4 2.4-1.7.2-2.9-.4-2.9-1.6zm5.5-.4c0-.5-.5-.7-1.4-.7h-1.1c-.4 0-.8 0-1-.1-.5.3-.7.6-.7.9 0 .6.7 1 2 1 1.4 0 2.2-.5 2.2-1.1zm-1-5.4c0-.8-.6-1.4-1.3-1.4s-1.3.5-1.3 1.4.6 1.4 1.3 1.4 1.3-.5 1.3-1.4zm4.2-5.3h1.6v2.6l-.1 1.5c.6-.6 1.4-1.2 2.4-1.2 1.6 0 2.3 1 2.3 2.8v4.3h-1.6v-4.1c0-1.1-.4-1.6-1.3-1.6-.7 0-1.1.3-1.8 1v4.7h-1.6v-10zm16.7.7h1.7l2.4 5.1.8 2c-.1-.9-.2-2.1-.2-3.1v-4h1.6v9.2h-1.7l-2.4-5.1-.8-2c.1 1 .2 2.1.2 3.1v4h-1.6zm8.2 5.7c0-2.2 1.7-3.6 3.5-3.6 2.1 0 3.2 1.4 3.2 3.3 0 .3 0 .6-.1.8h-5.5v-1.1h4.5l-.3.4c0-1.4-.6-2-1.7-2s-2 .8-2 2.4 1 2.4 2.4 2.4c.7 0 1.3-.2 1.9-.6l.6 1c-.7.5-1.7.8-2.7.8-2.2-.2-3.8-1.5-3.8-3.8zm7.6-3.4h1.6l.6 3.6c.1.7.2 1.3.3 2h.1c.1-.7.2-1.3.4-2l.6-2.9h1.3l.6 2.9c.1.7.3 1.3.4 2h.1c.1-.7.2-1.3.3-2l.6-3.6h1.5l-1.3 6.9h-2l-.6-2.7c-.1-.5-.2-1.2-.3-2h-.1c-.1.7-.2 1.4-.3 2l-.6 2.7h-1.9zm9 0h1.2l.1.9c.3-.6.7-1 1.5-1 .6 0 1.1.4 1.2 1.2.3-.7.8-1.2 1.6-1.2 1 0 1.5.8 1.5 2.2v4.9h-1.6v-4.8c0-.6-.2-.9-.5-.9-.4 0-.6.3-.9.9v4.8h-1.3v-4.8c0-.6-.2-.9-.5-.9-.4 0-.6.3-.9.9v4.8h-1.6v-7zm8.7 5c0-1.5 1.4-2.3 4.8-2.5-.1-.8-.5-1.3-1.6-1.3-.8 0-1.5.3-2.2.7l-.6-1.1c.8-.5 2-1 3.1-1 1.9 0 3 1.1 3 3v4.1h-1.3l-.1-.9c-.7.6-1.6 1-2.6 1-1.5 0-2.5-.8-2.5-2zm4.8-.1v-1.4c-2.5.2-3.2.7-3.2 1.4 0 .6.5.9 1.2.9s1.3-.4 2-.9zm3.8-4.9h1.3l.1 1h.1c.7-.7 1.4-1.2 2.5-1.2 1.6 0 2.3 1 2.3 2.8v4.3h-1.6v-4.1c0-1.1-.4-1.6-1.3-1.6-.7 0-1.1.3-1.8 1v4.7h-1.6z" fill="#1c272b"/><path d="m1184.8 48.5h1.4v1.5h-1.4v2.5h-1.9v-2.5h-4.9l-.1-1.2 4.9-7.7h2zm-4.8 0h3v-4.8l-.1.2zm8.8 2c.4 0 .6.1.8.3s.3.5.3.8-.1.5-.3.7-.5.3-.8.3-.6-.1-.8-.3-.3-.4-.3-.7.1-.6.3-.8.5-.3.8-.3zm7.5 2v-11.4h3.4c1 0 1.9.2 2.7.7.8.4 1.4 1.1 1.8 1.9s.6 1.8.6 2.8v.6c0 1.1-.2 2-.6 2.8s-1 1.4-1.8 1.9c-.8.4-1.7.7-2.7.7zm1.9-9.8v8.2h1.3c1 0 1.8-.3 2.4-1s.8-1.6.8-2.8v-.6c0-1.2-.3-2.2-.8-2.8-.5-.7-1.3-1-2.3-1zm12.1 10c-1.2 0-2.2-.4-2.9-1.1-.7-.8-1.1-1.8-1.1-3v-.2c0-.8.2-1.6.5-2.3s.8-1.2 1.4-1.6 1.2-.6 2-.6c1.2 0 2 .4 2.7 1.1.6.7.9 1.8.9 3.1v.8h-5.5c.1.7.3 1.2.7 1.7.4.4.9.6 1.5.6.9 0 1.6-.4 2.1-1.1l1 1c-.3.5-.8.9-1.4 1.2-.6.2-1.2.4-1.9.4zm-.3-7.3c-.5 0-.9.2-1.3.5-.3.4-.5.9-.6 1.5h3.6v-.1c0-.6-.2-1.1-.5-1.4-.2-.3-.6-.5-1.2-.5zm12.5 3c0 1.3-.3 2.4-.9 3.1-.6.8-1.4 1.2-2.4 1.2-.9 0-1.7-.3-2.2-.9v4h-1.9v-11.7h1.8l.1.9c.6-.7 1.3-1 2.3-1s1.8.4 2.4 1.2.9 1.8.9 3.2zm-1.9-.2c0-.8-.2-1.5-.5-2s-.8-.7-1.4-.7c-.8 0-1.3.3-1.7 1v3.8c.3.7.9 1 1.7 1 .6 0 1.1-.2 1.4-.7.4-.7.5-1.4.5-2.4zm5.5 4.3h-1.9v-12h1.9zm1.8-4.3c0-.8.2-1.6.5-2.2s.8-1.2 1.4-1.5c.6-.4 1.3-.5 2-.5 1.1 0 2.1.4 2.8 1.1s1.1 1.7 1.2 2.9v.4c0 .8-.2 1.6-.5 2.2s-.8 1.2-1.4 1.5c-.6.4-1.3.5-2.1.5-1.2 0-2.1-.4-2.9-1.2-.7-.7-1-1.8-1-3.2zm1.9.2c0 .9.2 1.6.5 2s.9.7 1.5.7 1.1-.2 1.5-.8c.4-.5.5-1.2.5-2.2 0-.9-.2-1.5-.6-2s-.9-.8-1.5-.8-1.1.2-1.5.7c-.3.7-.4 1.4-.4 2.4zm10.4 1.4 1.7-5.7h2l-3.4 9.7c-.5 1.4-1.4 2.1-2.6 2.1-.3 0-.6 0-.9-.1v-1.5h.4c.5 0 .8-.1 1.1-.3s.4-.5.6-.9l.3-.7-3-8.4h2zm6.6-5.7.1.9c.6-.7 1.4-1 2.4-1 1.1 0 1.9.4 2.3 1.3.6-.9 1.5-1.3 2.6-1.3.9 0 1.6.3 2.1.8s.7 1.3.7 2.3v5.6h-1.9v-5.7c0-.5-.1-.9-.4-1.2s-.6-.4-1.2-.4c-.4 0-.8.1-1.1.3s-.5.5-.6.9v5.8h-1.9v-5.4c0-1-.5-1.5-1.5-1.5-.8 0-1.3.3-1.6.9v6.1h-1.9v-8.5h1.9zm15.8 8.6c-1.2 0-2.2-.4-2.9-1.1-.7-.8-1.1-1.8-1.1-3v-.2c0-.8.2-1.6.5-2.3s.8-1.2 1.4-1.6 1.2-.6 2-.6c1.2 0 2 .4 2.7 1.1.6.7.9 1.8.9 3.1v.8h-5.5c.1.7.3 1.2.7 1.7.4.4.9.6 1.5.6.9 0 1.6-.4 2.1-1.1l1 1c-.3.5-.8.9-1.4 1.2-.5.2-1.2.4-1.9.4zm-.2-7.3c-.5 0-.9.2-1.3.5-.3.4-.5.9-.6 1.5h3.6v-.1c0-.6-.2-1.1-.5-1.4s-.7-.5-1.2-.5zm6.9-1.3.1 1c.6-.8 1.4-1.1 2.5-1.1 1.8 0 2.7 1 2.7 3v5.6h-1.9v-5.6c0-.5-.1-.9-.3-1.2s-.6-.4-1.1-.4c-.8 0-1.3.3-1.7 1v6h-1.9v-8.5h1.6zm9.5-2.1v2.1h1.5v1.4h-1.5v4.7c0 .3.1.6.2.7s.4.2.7.2c.2 0 .4 0 .7-.1v1.5c-.4.1-.8.2-1.2.2-1.5 0-2.2-.8-2.2-2.4v-4.8h-1.4v-1.4h1.4v-2.1zm-68.8 25.5v4.2h-2v-11.4h4.4c1.3 0 2.3.3 3 1s1.1 1.5 1.1 2.6-.4 2-1.1 2.6-1.8.9-3.1.9h-2.3zm0-1.6h2.4c.7 0 1.2-.2 1.6-.5s.6-.8.6-1.4-.2-1.1-.6-1.5-.9-.6-1.5-.6h-2.4v4zm9.9-1.7c.6-.7 1.4-1.1 2.4-1.1 1.8 0 2.7 1 2.7 3.1v5.5h-1.9v-5.5c0-.6-.1-1-.4-1.2s-.6-.4-1.1-.4c-.8 0-1.3.3-1.7 1v6h-1.9v-12h1.9zm12.1 7.5c-.1-.2-.2-.4-.2-.8-.6.6-1.3.9-2.2.9-.8 0-1.5-.2-2.1-.7-.5-.5-.8-1.1-.8-1.8 0-.9.3-1.6 1-2.1s1.6-.7 2.9-.7h1.2v-.5c0-.4-.1-.8-.4-1.1-.2-.3-.6-.4-1.1-.4-.4 0-.8.1-1.1.3s-.4.5-.4.8h-1.9c0-.5.2-.9.5-1.3s.7-.7 1.3-.9c.5-.2 1.1-.3 1.8-.3 1 0 1.8.2 2.4.7s.9 1.2.9 2.1v3.8c0 .8.1 1.4.3 1.8v.1h-2.1zm-2.1-1.3c.4 0 .7-.1 1.1-.3.3-.2.6-.4.7-.7v-1.6h-1c-.7 0-1.2.1-1.6.4-.4.2-.5.6-.5 1s.1.7.4.9c.2.1.5.3.9.3zm10.4-1c0-.3-.1-.6-.4-.8s-.7-.3-1.4-.5c-.6-.1-1.2-.3-1.6-.5-.9-.5-1.4-1.1-1.4-2 0-.7.3-1.3.9-1.8s1.4-.7 2.3-.7c1 0 1.8.2 2.4.8.6.5.9 1.1.9 1.9h-1.9c0-.4-.1-.7-.4-.9s-.6-.4-1.1-.4c-.4 0-.8.1-1 .3-.3.2-.4.5-.4.8s.1.5.4.7c.2.2.7.3 1.5.5.7.2 1.3.4 1.8.6.4.2.7.5.9.8s.3.7.3 1.2c0 .8-.3 1.4-.9 1.8-.6.5-1.5.7-2.5.7-.7 0-1.3-.1-1.9-.4-.5-.2-1-.6-1.3-1s-.5-.9-.5-1.4h1.8c0 .4.2.8.5 1s.7.4 1.2.4.9-.1 1.1-.3c.6-.2.7-.5.7-.8zm7.3 2.5c-1.2 0-2.2-.4-2.9-1.1-.7-.8-1.1-1.8-1.1-3v-.2c0-.8.2-1.6.5-2.3s.8-1.2 1.4-1.6 1.2-.6 2-.6c1.2 0 2 .4 2.7 1.1.6.7.9 1.8.9 3.1v.8h-5.5c.1.7.3 1.2.7 1.7.4.4.9.6 1.5.6.9 0 1.6-.4 2.1-1.1l1 1c-.3.5-.8.9-1.4 1.2-.6.2-1.2.4-1.9.4zm-.3-7.3c-.5 0-.9.2-1.3.5-.3.4-.5.9-.6 1.5h3.6v-.1c0-.6-.2-1.1-.5-1.4-.2-.3-.6-.5-1.2-.5z" fill="#1c272b"/><path d="m1153.5 83.5h152.5v3.5h-152.5z" fill="#f26c3d"/><path d="m1153.5 170.5h152.5v3.5h-152.5z" fill="#f26c3d"/><path d="m1153.5 257.6h152.5v3.5h-152.5z" fill="#f26c3d"/></svg>