<svg id="Layer_1" data-name="Layer 1" xmlns="http://www.w3.org/2000/svg" xmlns:xlink="http://www.w3.org/1999/xlink" viewBox="0 0 560 420"><defs><style>.cls-1,.cls-20,.cls-7{fill:none;}.cls-11,.cls-13,.cls-17,.cls-2{fill:#fff;}.cls-3{fill:#a2ecc2;}.cls-4{fill:#e5e5e5;}.cls-5{fill:#ffde83;}.cls-6{fill:#e4e4e4;}.cls-11,.cls-12,.cls-13,.cls-16,.cls-17,.cls-20,.cls-7,.cls-8,.cls-9{stroke:#3a3836;stroke-width:2px;}.cls-11,.cls-12,.cls-7,.cls-8,.cls-9{stroke-linecap:round;stroke-linejoin:round;}.cls-16,.cls-8{fill:#fd8753;}.cls-9{fill:url(#linear-gradient);}.cls-10{fill:#3a3836;}.cls-12{fill:#d1dafa;}.cls-14,.cls-15{opacity:0.7;}.cls-15{fill:#ff6c37;isolation:isolate;}.cls-16,.cls-17{stroke-miterlimit:10;}.cls-18{fill:#75716f;}.cls-19{clip-path:url(#clip-path);}</style><linearGradient id="linear-gradient" x1="262.31" y1="189.32" x2="255.86" y2="225.88" gradientUnits="userSpaceOnUse"><stop offset="0" stop-color="#ff6d37"/><stop offset="0.54" stop-color="#fa9139"/><stop offset="1" stop-color="#f7ac3b"/></linearGradient><clipPath id="clip-path"><rect class="cls-1" x="36.3" y="31.61" width="131.14" height="51.24" transform="translate(-3.04 5.78) rotate(-3.2)"/></clipPath></defs><path class="cls-2" d="M107.48,267.94l-.87,91.76s-.94,20.81,6.78,22c0,0,4.56,10.4,23.26,1.81,0,0,10.63-3.18,9.55-30.35L148,315.57l3.81-1.63h6.69l1.91,5.39,4.5,46.79s3,19.45,22,17.77c0,0,15.58,1.65,16.27-27.55l-5.17-78.44s17.15-.72,16.34-20.86c0,0-3.12-12.14-19.92-12l1.05-6.72s36.4,3.88,66.47-15.74l-24.22.71-.85-22.07s-16.24,8.56-38.3-1.21c0,0,32.79-22.88,16.15-61.82,0,0-11-35.52-58.47-28,0,0-42.33,7.45-37.09,59.2l5.58,14.47-18.23-1.17s-6.09-.38-9.82,21-6,48.73-6,48.73S84.54,266.78,107.48,267.94Z"/><path class="cls-2" d="M234.93,367.32v-53l53.3-10.17-30.92-6.54V272.37L312.5,261,284,255.38v-19l52.86-8.63V213.3h13.49l6.44-11.8,33.88,2.3,2.21.23,3-9.94,61.4,6.06,4.14,13.15,16.75,1.78,17,14.47,3.33,7.7v8.11L459.5,330.92s-2.27,11.76-18.83,11.25l-8.48-.73-2.42,23.12-4.14,1.75.21,10.09,6.43-2.93-1.56,9-35.44,16.76s-6.16,3.22-7.76-5.71l.9-12.54-35.66,16.1Z"/><path class="cls-3" d="M49.58,361.63s-9.7-39.42,8.64-41.15c13.34-1.26,8.26,41.15,8.26,41.15Z"/><path class="cls-3" d="M63,361.63S56.79,306.31,74.65,291s9.83,70.81,9.83,70.81Z"/><path class="cls-3" d="M84,361.63s-6.25-41.46,11.62-53.09,9.82,52.69,9.82,52.69Z"/><path class="cls-4" d="M108.72,264.54s13.68,5.54,22.18-3.55l-4.7-1.47L108.72,258Z"/><path class="cls-4" d="M152.79,207.15s20.82,13.82,42.74,6.59l-1.64-10.12S173.43,214.39,152.79,207.15Z"/><path class="cls-5" d="M497.18,248.22,478.13,290,549,291.12a31.85,31.85,0,0,0-3.5-12.9,25.74,25.74,0,0,0-8.17-9.39,19.82,19.82,0,0,0-10.8-3.58,19.1,19.1,0,0,0-10.79,3.12,39,39,0,0,0-12.21-17.21,31.2,31.2,0,0,0-4.74-3.08Z"/><path class="cls-6" d="M236.24,377.69c0,7.68-34.42,13.9-76.84,13.9s-76.84-6.22-76.84-13.9c0-3.83,10.37-7.28,24.21-10.05,0,0,2.57,10.78,6.62,14.1,13.94,11.44,18.44,3.21,26.91-1.44,4-2.21,4.92-16.14,6.82-16.25a112.72,112.72,0,0,1,12.33-.25c4,0,1.11.24,4.89.12,1.76,0,3,11.86,6.26,14.5,2.32,1.88,9.78,5.87,15.86,5.52,5.1-.3,8.12-3.89,10.66-5.61,1.78-1.18,4.45-12.44,6.42-12.22C225.17,368.57,236.24,372.71,236.24,377.69Z"/><path class="cls-4" d="M346,269.18l10.58,11.05a23.64,23.64,0,0,1,24.15,4.84l52.16-13.7-51.16-4-17.13,4Z"/><path class="cls-4" d="M330.62,336.59V313.48L354,318.05,387,308.9l34.14,6.69,12.53,2.46-9.12,2.63-3.41-5.09L386,325.33s-7-2.13-6.12,8.27l-5.14,1.49-5.3-7.89H343.52L336.84,338Z"/><polygon class="cls-4" points="301.73 280.96 257.31 272.37 314.31 260.99 341.85 266.86 302.39 274.37 306.8 281.23 301.73 280.96"/><polygon class="cls-4" points="235.58 315.71 285.84 304.65 295.92 305.77 283 314.31 283 325.33 235.58 315.71"/><polygon class="cls-7" points="398.91 388.66 432.27 373.47 430.94 381.95 397.27 397.68 398.91 388.66"/><circle class="cls-7" cx="168.77" cy="159.16" r="50.57"/><path class="cls-7" d="M125.72,185.7c-18.1,21.74-18.76,108-18.76,108v73.58a19.34,19.34,0,0,0,38.68,0l2-50.26c.07-4,6.47-3.75,8.58-3.75a4,4,0,0,1,4,3.79l4.28,46.42c1.5,12.44,9.07,20.44,20.35,20.58,11.45.13,18.38-11.58,18.4-23l-5.17-83.11"/><path class="cls-7" d="M198.63,200a21.75,21.75,0,0,0,4.94,2.33c7,2.47,21.64,5,44.38-3.42a14,14,0,0,1,18,8.1h0a14,14,0,0,1-6.46,17.3c-10.39,5.54-32.28,16.77-62.43,14"/><path class="cls-7" d="M194.48,203.29s4.09,16.71.84,40.57"/><path class="cls-7" d="M197,238.28s11.28-18.17,6.55-36"/><path class="cls-7" d="M121.39,192.75s21.2,14.54,19.77,33.2c0,0,13.44,17.33,57.67,19.3a16.32,16.32,0,0,1,15.57,16.31h0a16.34,16.34,0,0,1-16.34,16.34c-18.25,0-47.33-2.21-63.43-14.83,0,0-11.26-5.28-24.66-19.21"/><path class="cls-7" d="M146.94,204.79s6.1,10.88.42,26.48"/><path class="cls-7" d="M108.72,257s2.32,4,19.57,2.29"/><path class="cls-7" d="M124.8,183.8l-8.51-1.34c-6.8-1.1-11.78-2.34-16.05,9C95.51,204,92.38,226.24,89.8,253.62c-1.18,12.59,6.39,13.62,13.94,14.05l3.74.27"/><polygon class="cls-7" points="234.93 367.32 352.75 397.12 352.75 341.44 234.93 315.57 234.93 367.32"/><line class="cls-7" x1="388.41" y1="382.04" x2="352.75" y2="397.12"/><polyline class="cls-7" points="424.59 320.68 433.71 318.05 430.71 364.16 425.63 366.31"/><line class="cls-7" x1="288.23" y1="304.14" x2="234.93" y2="315.57"/><polygon class="cls-7" points="257.31 272.37 353.98 291.07 353.98 318.05 257.31 297.6 257.31 272.37"/><polyline class="cls-7" points="353.98 291.07 434.71 272.37 430.71 295.89 353.98 318.05"/><polygon class="cls-7" points="283.98 236.36 283.98 255.38 364.58 271.37 364.58 250.32 283.98 236.36"/><polyline class="cls-7" points="364.58 250.32 440.83 235 437.83 253.87 364.58 271.37"/><line class="cls-7" x1="257.31" y1="272.37" x2="311.62" y2="261.86"/><line class="cls-7" x1="434.71" y1="272.37" x2="381.71" y2="267.33"/><polyline class="cls-7" points="283 325.33 283 314.31 315.61 321.15 315.61 333.29"/><polyline class="cls-7" points="315.61 321.15 330.62 313.48 330.62 336.59"/><line class="cls-7" x1="283" y1="314.31" x2="295.92" y2="305.77"/><rect class="cls-7" x="336.84" y="213.3" width="34.27" height="28.85"/><circle class="cls-7" cx="394.99" cy="225.54" r="16.62"/><line class="cls-7" x1="410.96" y1="232.17" x2="440.83" y2="235"/><path class="cls-7" d="M385,325l36-9.46s8.37,0,3.91,61"/><path class="cls-7" d="M395.54,398.48,430.94,382l1.89-8.74-33.92,15.45-.91,6.1a5.28,5.28,0,0,1-5.22,4.51h0a5.28,5.28,0,0,1-5.27-5.71c2.44-29.95,5.05-68.75-2.66-68.53,0,0-4.35-.32-5,8.57"/><polyline class="cls-8" points="388.78 331.03 352.75 341.44 336.84 337.95 344.9 326.38 369.34 326.38 376.18 334.67"/><rect class="cls-9" x="236.93" y="192.65" width="44.32" height="29.88"/><path class="cls-10" d="M312.5,146.8v15.91a5.8,5.8,0,0,0,5.8,5.8h30.32l3.23,10.5h4V146.8a5.8,5.8,0,0,0-5.8-5.8H318.3A5.8,5.8,0,0,0,312.5,146.8Z"/><path class="cls-11" d="M308.5,147.77v15.9a5.8,5.8,0,0,0,5.8,5.8h30.32l7.23,8.54V147.77a5.8,5.8,0,0,0-5.8-5.8H314.3A5.79,5.79,0,0,0,308.5,147.77Z"/><line class="cls-11" x1="317.32" y1="151.28" x2="341.31" y2="151.28"/><line class="cls-11" x1="317.32" y1="158.28" x2="331.31" y2="158.28"/><line class="cls-7" x1="283.98" y1="236.36" x2="336.84" y2="227.73"/><line class="cls-7" x1="371.11" y1="225.54" x2="378.37" y2="225.54"/><polyline class="cls-7" points="348.45 223.01 343.52 227.94 348.1 232.52"/><polyline class="cls-7" points="358.4 232.52 363.33 227.59 358.75 223.01"/><line class="cls-7" x1="354.35" y1="223.25" x2="352.5" y2="232.28"/><polygon class="cls-12" points="364.58 288.62 344.22 267.33 302.79 274.05 309.63 282.49 353.98 291.07 364.58 288.62"/><line class="cls-7" x1="302.79" y1="274.05" x2="302.79" y2="280.23"/><path class="cls-7" d="M379.88,285.07c-9.72-10.35-23.65-5.18-23.65-5.18l8.35,7.66Z"/><line class="cls-7" x1="397.27" y1="338.9" x2="418.26" y2="333.29"/><line class="cls-7" x1="405.65" y1="345.93" x2="418.26" y2="342.29"/><line class="cls-7" x1="406.65" y1="353.93" x2="419.26" y2="350.29"/><line class="cls-7" x1="406.65" y1="362.93" x2="419.26" y2="359.29"/><circle class="cls-13" cx="273.65" cy="200.29" r="3"/><line class="cls-7" x1="249.25" y1="210.34" x2="249.25" y2="222.54"/><line class="cls-7" x1="255.38" y1="210.34" x2="255.38" y2="222.54"/><line class="cls-7" x1="243.12" y1="210.34" x2="243.12" y2="222.54"/><circle class="cls-10" cx="392.25" cy="217.66" r="2.58"/><circle class="cls-10" cx="392.25" cy="234.66" r="2.58"/><circle class="cls-10" cx="401.13" cy="217.66" r="2.58"/><line class="cls-7" x1="392.25" y1="218.38" x2="392.25" y2="234.23"/><path class="cls-7" d="M392.25,227.54h3.48a5.4,5.4,0,0,0,5.4-5.4v-2.75"/><path class="cls-7" d="M350.33,213.3l4.2-9.28a5.73,5.73,0,0,1,5.8-3.33l114.83,11.79a5.72,5.72,0,0,1,4.59,8.14l-46,97.43L387,308.9"/><path class="cls-7" d="M432.87,342l7.8.14a18.84,18.84,0,0,0,18.83-11.25l37.68-82.7a18.31,18.31,0,0,0-4.59-21l-14.46-13.52"/><path class="cls-7" d="M216.58,149.64a98.87,98.87,0,0,0-24.38-2.2c-19.91.61-28.42,8.1-31.9,13.15-1.68,2.43-2.06,7.41-1.79,10.35.87,9.24,1.51,31.33,42.33,31"/><g class="cls-14"><path class="cls-15" d="M178.38,101.49a7.18,7.18,0,1,0,0-10.15A7.17,7.17,0,0,0,178.38,101.49Z"/></g><path class="cls-16" d="M178.38,101.49a7.18,7.18,0,1,0,0-10.15A7.17,7.17,0,0,0,178.38,101.49Z"/><path class="cls-7" d="M182.06,103.5l-1.58,6.29"/><path class="cls-7" d="M137.4,166.82a7.58,7.58,0,1,0-7.58-7.58A7.58,7.58,0,0,0,137.4,166.82Z"/><line class="cls-11" x1="267.51" y1="261.86" x2="275.53" y2="259.35"/><line class="cls-11" x1="271.52" y1="260.99" x2="276.92" y2="275.94"/><rect class="cls-7" x="178.8" y="217.94" width="10.32" height="10.61" rx="0.9"/><polyline class="cls-7" points="392.86 202.91 395.84 194.09 457.24 200.16 454.08 208.91"/><path class="cls-10" d="M379.88,333.6l8.53-3.15s-1-7.31-6.24-4.65Z"/><circle class="cls-10" cx="412.21" cy="158.15" r="21.56"/><circle class="cls-11" cx="408.21" cy="157.15" r="21.56"/><path class="cls-10" d="M401.11,152.07V145.9A1.92,1.92,0,0,1,403,144h0A1.92,1.92,0,0,1,405,145.9v6.17"/><path class="cls-10" d="M411.11,152.07V145.9A1.92,1.92,0,0,1,413,144h0A1.92,1.92,0,0,1,415,145.9v6.17"/><path class="cls-11" d="M398.53,152.07h19.36a0,0,0,0,1,0,0v6.68a9.68,9.68,0,0,1-9.68,9.68h0a9.68,9.68,0,0,1-9.68-9.68v-6.68A0,0,0,0,1,398.53,152.07Z"/><line class="cls-7" x1="460.81" y1="210.6" x2="457.24" y2="200.15"/><path class="cls-17" d="M276.5,121.91l7,2.28-7,2.28-2.28,7-2.28-7-7-2.28,7-2.28,2.28-7Z"/><path class="cls-17" d="M403.41,84.35l7,2.28-7,2.28-2.28,7-2.29-7-7-2.28,7-2.28,2.29-7Z"/><path class="cls-18" d="M466.89,167.12l3.34,1.08-3.34,1.09-1.08,3.34-1.09-3.34-3.34-1.09,3.34-1.08,1.09-3.34Z"/><g class="cls-19"><path class="cls-5" d="M168.15,78.5a31.86,31.86,0,0,0-3.51-12.9,25.81,25.81,0,0,0-8.16-9.39,19.85,19.85,0,0,0-10.81-3.58,19,19,0,0,0-10.78,3.12,39,39,0,0,0-12.22-17.21,28.83,28.83,0,0,0-17.89-6.39A27.9,27.9,0,0,0,87.17,38.7,37.36,37.36,0,0,0,75.67,56a22.13,22.13,0,0,0-12.82-4.78A21.12,21.12,0,0,0,50,55.2a27.34,27.34,0,0,0-9.13,11.54,34.77,34.77,0,0,0-2.72,15.74Z"/></g><line class="cls-20" x1="430.71" y1="364.16" x2="495.09" y2="364.16"/><line class="cls-20" x1="501.27" y1="364.16" x2="515.41" y2="364.16"/><line class="cls-20" x1="234.57" y1="364.11" x2="203.18" y2="364.11"/><line class="cls-20" x1="106.61" y1="360.68" x2="67.65" y2="360.68"/><line class="cls-20" x1="70.98" y1="360.68" x2="74.13" y2="320.48"/><polyline class="cls-20" points="72.56 345.63 93.96 332.28 95.96 322.21"/><line class="cls-20" x1="75.13" y1="313.94" x2="75.53" y2="307.13"/></svg>